SplineFontDB: 3.0
FontName: QuicksandBook-Regular
FullName: Quicksand Book Regular
FamilyName: Quicksand Book
Weight: Normal
Copyright: Copyright (c) Andrew Paglinawan, 2008. All rights reserved.
Version: 001.001
ItalicAngle: 0
UnderlinePosition: -50
UnderlineWidth: 50
Ascent: 800
Descent: 200
sfntRevision: 0x00010000
LayerCount: 2
Layer: 0 0 "Back"  1
Layer: 1 0 "Zeichenebene"  0
NeedsXUIDChange: 1
XUID: [1021 516 963196306 6028895]
FSType: 0
OS2Version: 2
OS2_WeightWidthSlopeOnly: 0
OS2_UseTypoMetrics: 1
CreationTime: 1223667926
ModificationTime: 1295307953
PfmFamily: 17
TTFWeight: 400
TTFWidth: 5
LineGap: 30
VLineGap: 0
Panose: 2 7 3 3 0 0 0 6 0 0
OS2TypoAscent: -100
OS2TypoAOffset: 1
OS2TypoDescent: 0
OS2TypoDOffset: 1
OS2TypoLinegap: 30
OS2WinAscent: 0
OS2WinAOffset: 1
OS2WinDescent: 0
OS2WinDOffset: 1
HheadAscent: -223
HheadAOffset: 1
HheadDescent: 5
HheadDOffset: 1
OS2SubXSize: 100
OS2SubYSize: 100
OS2SubXOff: 0
OS2SubYOff: 140
OS2SupXSize: 100
OS2SupYSize: 100
OS2SupXOff: 0
OS2SupYOff: 140
OS2StrikeYSize: 50
OS2StrikeYPos: 250
OS2Vendor: 'pyrs'
OS2CodePages: 20000111.00000000
OS2UnicodeRanges: 800000af.00000008.00000000.00000000
Lookup: 258 0 0 "'kern' Horizontales Kerning in Latin lookup 0"  {"'kern' Horizontales Kerning in Latin lookup 0 subtable"  } ['kern' ('latn' <'dflt' > ) ]
DEI: 91125
LangName: 1033 "" "" "" "FONTLAB:OTFEXPORT" "QuicksandBook-Regular" "001.000" "" "Dashling is a trademark of the Andrew Paglinawan." "Andrew Paglinawan" "Andrew Paglinawan" "" "" "http://www.andrewpaglinawan.com" "" "" "" "Quicksand" "Book" 
Encoding: UnicodeBmp
UnicodeInterp: none
NameList: Adobe Glyph List
DisplaySize: -24
AntiAlias: 1
FitToEm: 1
WinInfo: 56 14 7
BeginPrivate: 4
BlueValues 21 [0 0 505 505 700 700]
OtherBlues 11 [-205 -205]
BlueScale 8 0.039625
ExpansionFactor 4 0.06
EndPrivate
BeginChars: 65537 203

StartChar: B
Encoding: 66 66 1
Width: 594
Flags: MW
HStem: 0 49<120.5 328 127 328 128 328 153 328 153 328> 351 50<153 284 284 318.5 153 328 153 284> 651 49<153 284 153 153>
VStem: 104 49<49 49 49 351 401 651> 409 49<497.5 560> 479 49<200 200>
LayerCount: 2
Fore
SplineSet
104 24 m 2
 104 676 l 2
 104 689 115 700 128 700 c 2
 131 700 l 1
 284 700 l 2
 380 700 458 622 458 525 c 0
 458 470 431 421 391 389 c 1
 470 362 528 288 528 200 c 0
 528 89 438 0 328 0 c 2
 131 0 l 1
 128 0 l 1
 127 0 l 2
 114 0 104 11 104 24 c 2
153 49 m 1
 328 49 l 2
 411 49 478 116 479 200 c 1
 478 283 411 351 328 351 c 2
 153 351 l 1
 153 49 l 1
153 401 m 1
 284 401 l 2
 353 401 409 457 409 525 c 0
 409 595 353 651 284 651 c 2
 153 651 l 1
 153 401 l 1
EndSplineSet
Validated: 1
EndChar

StartChar: C
Encoding: 67 67 2
Width: 771
Flags: MW
HStem: 0 49<336.5 437 437 437> 661 49<349.5 437 437 437>
VStem: 73 49<269.5 452.5 269.5 353>
LayerCount: 2
Fore
SplineSet
73 353 m 1
 73 552 236 709 437 710 c 1
 437 710 l 1
 523 710 602 680 663 633 c 1
 663 633 l 1
 674 624 676 607 667 598 c 1
 667 598 l 1
 659 586 643 585 633 593 c 1
 633 593 l 1
 579 635 511 661 437 661 c 1
 437 661 l 1
 262 661 122 524 122 353 c 1
 122 353 l 1
 122 186 262 49 437 49 c 1
 437 49 l 1
 511 49 579 73 631 117 c 1
 631 117 l 1
 643 125 659 123 666 111 c 1
 666 111 l 1
 676 102 674 84 663 76 c 1
 663 76 l 1
 602 29 523 0 437 0 c 1
 437 0 l 1
 236 0 73 158 73 353 c 1
 73 353 l 1
EndSplineSet
Validated: 37
EndChar

StartChar: D
Encoding: 68 68 3
Width: 719
Flags: MW
HStem: 0 49<126 259 126 259 153 259 153 259> 651 49<153 259 153 153>
VStem: 104 49<49 49 49 651> 560 49<266 432.5>
LayerCount: 2
Fore
SplineSet
259 0 m 2
 130 0 l 1
 126 0 l 1
 114 1 104 11 104 24 c 2
 104 676 l 2
 104 689 115 700 128 700 c 2
 131 700 l 1
 259 700 l 2
 452 700 609 542 609 349 c 0
 609 156 452 0 259 0 c 2
153 49 m 1
 259 49 l 2
 425 49 560 183 560 349 c 0
 560 516 425 650 259 651 c 1
 153 651 l 1
 153 49 l 1
EndSplineSet
Validated: 1
EndChar

StartChar: E
Encoding: 69 69 4
Width: 593
Flags: MW
HStem: 0 49<126 488 126 488 128 488 153 488 153 488> 325 49<153 446 153 446> 651 49<153 488 153 153>
VStem: 104 49<49 325 374 651>
LayerCount: 2
Fore
SplineSet
104 24 m 2
 104 676 l 2
 104 689 115 700 128 700 c 2
 130 700 l 1
 488 700 l 2
 502 700 512 689 512 676 c 0
 512 662 502 651 488 651 c 2
 153 651 l 1
 153 374 l 1
 446 374 l 2
 459 374 470 363 470 349 c 0
 470 336 459 325 446 325 c 2
 153 325 l 1
 153 49 l 1
 488 49 l 2
 502 49 512 38 512 24 c 0
 512 11 502 0 488 0 c 2
 131 0 l 1
 128 0 l 1
 126 0 l 1
 114 1 104 11 104 24 c 2
EndSplineSet
Validated: 1
EndChar

StartChar: F
Encoding: 70 70 5
Width: 605
Flags: MW
HStem: 0 21G<121.5 135> 325 49<153 447 153 447> 651 49<153 489 153 153>
VStem: 104 49<24 325 374 651>
LayerCount: 2
Fore
SplineSet
104 24 m 2
 104 676 l 2
 104 689 114 699 127 700 c 1
 131 700 l 1
 489 700 l 2
 502 700 513 689 513 676 c 0
 513 662 502 651 489 651 c 2
 153 651 l 1
 153 374 l 1
 447 374 l 2
 461 374 472 363 472 349 c 0
 472 336 461 325 447 325 c 2
 153 325 l 1
 153 24 l 2
 153 11 142 0 128 0 c 0
 115 0 104 11 104 24 c 2
EndSplineSet
Validated: 1
EndChar

StartChar: G
Encoding: 71 71 6
Width: 814
Flags: MW
HStem: 0 49<437 471 349.5 480> 315 49<424 647 431 622> 661 49<349.5 474.5>
VStem: 73 49<271 440 271 453.5> 622 50<109 315 315 315>
LayerCount: 2
Fore
SplineSet
622 315 m 1
 431 315 l 2
 417 315 406 325 406 339 c 0
 406 353 417 364 431 364 c 2
 647 364 l 1
 650 364 l 1
 662 363 672 352 672 339 c 2
 672 99 l 1
 672 95 l 1
 671 88 668 81 663 77 c 0
 601 28 523 0 437 0 c 0
 236 1 73 158 73 356 c 0
 73 551 236 710 437 710 c 0
 524 710 601 680 664 631 c 0
 673 624 676 607 667 597 c 0
 659 587 644 585 632 593 c 1
 581 635 512 661 437 661 c 0
 262 661 122 524 122 356 c 0
 122 186 262 49 437 49 c 0
 505 49 570 71 622 109 c 1
 622 315 l 1
EndSplineSet
Validated: 33
EndChar

StartChar: H
Encoding: 72 72 7
Width: 709
Flags: MW
HStem: 0 21G<121.5 135 530.5 544> 326 48<153 513 153 513> 680 20G<121.5 135 530.5 544>
VStem: 104 49<24 326 374 676> 513 49<24 326 326 326 374 676>
LayerCount: 2
Fore
SplineSet
513 24 m 2
 513 326 l 1
 153 326 l 1
 153 24 l 2
 153 11 142 0 128 0 c 0
 115 0 104 11 104 24 c 2
 104 676 l 2
 104 689 115 700 128 700 c 0
 142 700 153 689 153 676 c 2
 153 374 l 1
 513 374 l 1
 513 676 l 2
 513 689 524 700 537 700 c 0
 551 700 562 689 562 676 c 2
 562 24 l 2
 562 11 551 0 537 0 c 0
 524 0 513 11 513 24 c 2
EndSplineSet
Validated: 1
EndChar

StartChar: I
Encoding: 73 73 8
Width: 305
Flags: MW
HStem: 0 21G<128.5 135 135 135> 680 20G<135 135 135 142>
VStem: 111 49<24 676 17.5 24>
LayerCount: 2
Fore
SplineSet
111 24 m 1
 111 676 l 2
 111 689 122 700 135 700 c 1
 135 700 l 1
 149 700 160 689 160 676 c 1
 160 676 l 1
 160 24 l 2
 160 11 149 0 135 0 c 1
 135 0 l 1
 122 0 111 11 111 24 c 1
 111 24 l 1
EndSplineSet
Validated: 5
EndChar

StartChar: J
Encoding: 74 74 9
Width: 594
Flags: MW
HStem: 0 49<219.5 272 272 272> 680 20G<485 485 485 491.5>
VStem: 461 48<171 237 237 676>
LayerCount: 2
Fore
SplineSet
46 164 m 1
 42 177 49 191 62 195 c 1
 62 195 l 1
 75 199 89 192 92 180 c 1
 92 180 l 1
 117 103 188 48 272 49 c 1
 272 49 l 1
 376 49 461 133 461 237 c 1
 461 237 l 1
 461 676 l 2
 461 689 472 700 485 700 c 1
 485 700 l 1
 498 700 509 689 509 676 c 1
 509 676 l 1
 509 237 l 2
 509 105 403 0 272 0 c 1
 272 0 l 1
 167 0 76 69 46 164 c 1
 46 164 l 1
EndSplineSet
Validated: 37
EndChar

StartChar: K
Encoding: 75 75 10
Width: 715
Flags: MW
HStem: 0 21G<121.5 135 592.5 599>
VStem: 104 49<24 199 268 673>
LayerCount: 2
Fore
SplineSet
104 24 m 2
 104 673 l 2
 104 687 115 698 128 698 c 0
 142 698 153 687 153 673 c 2
 153 268 l 1
 576 691 l 2
 586 700 602 700 610 691 c 1
 620 682 620 666 610 656 c 2
 342 388 l 1
 616 40 l 2
 624 29 622 15 612 5 c 0
 607 1 602 0 596 0 c 0
 589 0 583 2 578 9 c 2
 307 353 l 1
 153 199 l 1
 153 24 l 2
 153 11 142 0 128 0 c 0
 115 0 104 11 104 24 c 2
EndSplineSet
Validated: 33
EndChar

StartChar: L
Encoding: 76 76 11
Width: 563
Flags: MW
HStem: 0 49<121.5 488 128 488 153 488 153 488> 680 20G<121.5 135>
VStem: 104 49<49 676 49 676 49 682.5>
LayerCount: 2
Fore
SplineSet
488 0 m 2
 130 0 l 1
 128 0 l 2
 115 0 104 11 104 24 c 2
 104 676 l 2
 104 689 115 700 128 700 c 0
 142 700 153 689 153 676 c 2
 153 49 l 1
 488 49 l 2
 502 49 513 38 513 24 c 0
 513 11 502 0 488 0 c 2
EndSplineSet
Validated: 1
EndChar

StartChar: M
Encoding: 77 77 12
Width: 844
Flags: MW
HStem: 0 21G<122 135.5 661 674.5>
VStem: 104 49<24 599> 644 48<24 600 600 600>
LayerCount: 2
Fore
SplineSet
644 24 m 2
 644 600 l 1
 420 289 l 2
 415 281 407 278 400 278 c 2
 398 278 l 2
 389 278 382 281 377 289 c 2
 153 599 l 1
 153 24 l 2
 153 11 142 0 129 0 c 0
 115 0 104 11 104 24 c 2
 104 672 l 2
 104 680 108 687 114 691 c 0
 114 692 115 692 116 693 c 0
 127 700 142 698 150 687 c 2
 399 342 l 1
 647 687 l 2
 654 698 670 700 681 693 c 0
 684 690 686 688 688 685 c 0
 690 681 692 676 692 672 c 2
 692 24 l 2
 692 11 681 0 668 0 c 0
 654 0 644 11 644 24 c 2
EndSplineSet
Validated: 33
EndChar

StartChar: N
Encoding: 78 78 13
Width: 771
Flags: MW
HStem: 0 21G<124.5 137.5 594 605>
VStem: 107 48<24 597> 574 49<99 669>
LayerCount: 2
Fore
SplineSet
575 13 m 2
 155 597 l 1
 155 24 l 2
 155 11 144 0 131 0 c 0
 118 0 107 11 107 24 c 2
 107 666 l 1
 104 676 107 686 116 693 c 1
 127 700 143 698 150 687 c 2
 574 99 l 1
 574 669 l 2
 574 682 585 693 598 693 c 0
 612 693 623 682 623 669 c 2
 623 24 l 2
 623 11 612 0 598 0 c 0
 590 0 584 3 579 9 c 0
 578 10 576 11 575 13 c 2
EndSplineSet
Validated: 33
EndChar

StartChar: O
Encoding: 79 79 14
Width: 850
Flags: MW
HStem: 0 49<316.5 411 411 411> 660 50<331.5 411 411 411>
VStem: 73 49<269.5 355 269.5 355> 696 50<355 355 355 355>
LayerCount: 2
Fore
SplineSet
73 355 m 1
 74 551 222 710 411 710 c 1
 411 710 l 1
 598 710 745 551 746 355 c 1
 746 355 l 1
 745 159 598 0 411 0 c 1
 411 0 l 1
 222 0 74 159 73 355 c 1
 73 355 l 1
122 355 m 1
 122 184 252 49 411 49 c 1
 411 49 l 1
 565 49 695 184 696 355 c 1
 696 355 l 1
 695 528 565 660 411 660 c 1
 411 660 l 1
 252 660 122 528 122 355 c 1
 122 355 l 1
EndSplineSet
Validated: 5
EndChar

StartChar: P
Encoding: 80 80 15
Width: 583
Flags: MW
HStem: 0 21G<121.5 135> 300 48 651 49<153 326 153 153>
VStem: 104 49<24 299 348 651> 477 48<458.5 541.5>
LayerCount: 2
Fore
SplineSet
104 24 m 2
 104 676 l 2
 104 689 115 700 128 700 c 2
 131 700 l 1
 326 700 l 2
 436 700 525 610 525 500 c 0
 525 390 436 301 326 301 c 1
 153 299 l 1
 153 24 l 2
 153 11 142 0 128 0 c 0
 115 0 104 11 104 24 c 2
153 348 m 1
 326 348 l 1
 409 349 477 417 477 500 c 0
 477 583 409 651 326 651 c 2
 153 651 l 1
 153 348 l 1
EndSplineSet
Validated: 1
EndChar

StartChar: Q
Encoding: 81 81 16
Width: 844
Flags: MW
HStem: -144 49<617.5 642.5 642 643> -65 113<361 397> 659 51<402 402>
VStem: 66 50<269 439.5 269 451.5> 688 50<280.5 439.5>
LayerCount: 2
Fore
SplineSet
804 -49 m 0
 812 -60 811 -76 801 -85 c 1
 746 -127 693 -144 643 -144 c 2
 643 -144 643 -144 642 -144 c 0
 578 -144 521 -118 468 -87 c 0
 438 -70 410 -65 384 -65 c 0
 338 -65 298 -81 291 -87 c 0
 290 -87 290 -87 290 -87 c 1
 280 -92 271 -91 262 -85 c 1
 262 -85 l 1
 262 -85 262 -85 261 -85 c 0
 258 -81 255 -78 254 -74 c 0
 248 -62 253 -47 265 -41 c 2
 358 1 l 1
 192 24 66 175 66 354 c 0
 66 549 215 709 402 710 c 1
 589 709 738 549 738 354 c 0
 738 207 653 81 532 26 c 1
 532 26 l 1
 431 -21 l 1
 451 -25 473 -32 492 -43 c 0
 543 -74 593 -95 642 -95 c 0
 681 -95 722 -81 769 -45 c 0
 780 -37 795 -38 804 -49 c 0
116 354 m 0
 116 184 246 48 402 48 c 0
 558 48 688 184 688 354 c 0
 688 525 558 659 402 659 c 0
 246 659 116 525 116 354 c 0
EndSplineSet
Validated: 37
EndChar

StartChar: R
Encoding: 82 82 17
Width: 625
Flags: MW
HStem: 0 21G<107.5 121> 301 48<139 307 307 309 139 307> 651 49<139 312 139 139>
VStem: 90 49<24 301 349 651> 452 59
LayerCount: 2
Fore
SplineSet
471 43 m 0
 459 66 452 99 452 158 c 0
 452 209 426 241 395 264 c 0
 364 286 327 297 314 299 c 0
 311 300 310 301 309 301 c 2
 139 301 l 1
 139 24 l 2
 139 11 128 0 114 0 c 0
 101 0 90 11 90 24 c 2
 90 676 l 2
 90 688 100 699 112 700 c 1
 114 700 l 1
 117 700 l 1
 312 700 l 2
 422 700 511 611 511 500 c 0
 511 420 464 351 396 319 c 1
 399 317 402 316 406 314 c 0
 452 288 500 237 500 158 c 0
 500 117 504 92 509 77 c 0
 513 65 518 61 519 60 c 1
 530 61 542 55 546 44 c 1
 549 31 543 17 530 12 c 0
 529 12 524 11 518 11 c 2
 516 11 l 2
 503 11 482 21 471 43 c 0
463 500 m 0
 463 584 395 651 312 651 c 2
 139 651 l 1
 139 349 l 1
 307 349 l 1
 316 349 l 1
 397 351 463 418 463 500 c 0
EndSplineSet
Validated: 33
EndChar

StartChar: S
Encoding: 83 83 18
Width: 667
Flags: MW
HStem: -1 45<333 333 333 333> 666 44<302.5 331 331 331>
VStem: 89 44<528 528 528 554.5> 547 45<166 194 166 214>
LayerCount: 2
Fore
SplineSet
75 100 m 1
 66 108 65 122 72 131 c 1
 72 131 l 1
 80 141 94 142 103 134 c 1
 103 134 l 1
 155 92 242 43 333 44 c 1
 333 44 l 1
 394 44 449 62 487 90 c 1
 487 90 l 1
 526 118 547 155 547 194 c 1
 547 194 l 1
 547 234 528 264 490 290 c 1
 490 290 l 1
 452 315 396 334 328 347 c 1
 328 347 l 1
 326 347 l 1
 261 359 204 377 161 406 c 1
 161 406 l 1
 118 434 89 476 89 528 c 1
 89 528 l 1
 89 581 118 627 162 659 c 1
 162 659 l 1
 206 691 265 710 331 710 c 1
 331 710 l 1
 423 710 492 665 547 629 c 1
 547 629 l 1
 557 622 560 609 553 598 c 1
 553 598 l 1
 547 588 533 585 523 592 c 1
 523 592 l 1
 468 628 408 666 331 666 c 1
 331 666 l 1
 274 666 223 649 188 624 c 1
 188 624 l 1
 153 598 133 564 133 528 c 1
 133 528 l 1
 134 493 150 467 185 443 c 1
 185 443 l 1
 220 419 272 402 335 390 c 1
 335 390 l 1
 337 390 l 1
 407 377 469 357 515 326 c 1
 515 326 l 1
 561 296 592 250 592 194 c 1
 592 194 l 1
 592 138 560 88 513 54 c 1
 513 54 l 1
 466 20 403 -1 333 -1 c 1
 333 -1 l 1
 226 0 133 54 75 100 c 1
 75 100 l 1
EndSplineSet
Validated: 37
EndChar

StartChar: T
Encoding: 84 84 19
Width: 648
Flags: MW
HStem: 0 21G<302.5 315.5> 651 49<67.5 544 74 285 333 333 333 544>
VStem: 285 48<24 651>
LayerCount: 2
Fore
SplineSet
285 24 m 2
 285 651 l 1
 74 651 l 2
 61 651 50 662 50 676 c 0
 50 689 61 700 74 700 c 2
 544 700 l 2
 557 700 568 689 568 676 c 0
 568 662 557 651 544 651 c 2
 333 651 l 1
 333 24 l 2
 333 11 322 0 309 0 c 0
 296 0 285 11 285 24 c 2
EndSplineSet
Validated: 1
EndChar

StartChar: U
Encoding: 85 85 20
Width: 814
Flags: MW
HStem: 0 49<309.5 387 387 387> 680 20G<129 129 129 136 646 653 646 646>
VStem: 105 49<283 676 218.5 283> 622 49<205 283 283 676>
LayerCount: 2
Fore
SplineSet
105 283 m 1
 105 676 l 2
 105 689 116 700 129 700 c 1
 129 700 l 1
 143 700 154 689 154 676 c 1
 154 676 l 1
 154 283 l 2
 154 154 259 50 387 49 c 1
 387 49 l 1
 517 50 622 154 622 283 c 1
 622 283 l 1
 622 676 l 1
 622 676 l 1
 622 689 633 700 646 700 c 1
 646 700 l 1
 660 700 671 689 671 676 c 1
 671 676 l 1
 671 283 l 2
 671 127 544 0 387 0 c 1
 387 0 l 1
 232 0 105 127 105 283 c 1
 105 283 l 1
EndSplineSet
Validated: 5
EndChar

StartChar: V
Encoding: 86 86 21
Width: 750
Flags: MW
HStem: 0 21G<354.5 357.5> 1 21G
LayerCount: 2
Fore
SplineSet
346 2 m 1x40
 340 4 336 8 334 14 c 0
 333 14 333 15 333 16 c 2
 332 17 l 1
 61 662 l 2
 56 674 62 689 74 694 c 0
 86 700 101 694 106 682 c 2
 356 86 l 1
 607 682 l 2
 611 694 626 700 638 694 c 0
 650 689 656 674 651 662 c 2
 380 22 l 1x40
 379 13 374 5 366 2 c 1
 365 2 l 1
 362 1 359 0 356 0 c 0x80
 353 0 349 0 347 1 c 0
 346 1 346 2 346 2 c 1x40
EndSplineSet
Validated: 33
EndChar

StartChar: W
Encoding: 87 87 22
Width: 1102
Flags: MW
HStem: 0 21G<357 362.5 759 761 761 764 764 766>
LayerCount: 2
Fore
SplineSet
78 694 m 0
 90 700 105 694 110 682 c 2
 360 87 l 1
 538 508 l 1
 543 517 552 523 561 523 c 0
 572 523 581 517 586 508 c 1
 763 87 l 1
 1013 682 l 2
 1019 694 1032 700 1046 694 c 0
 1058 689 1064 674 1058 662 c 2
 786 16 l 2
 782 7 773 1 766 0 c 1
 764 0 l 1
 761 0 l 2
 757 0 753 1 749 4 c 0
 748 5 746 6 745 8 c 0
 744 9 742 12 741 14 c 0
 741 15 741 16 740 17 c 2
 562 440 l 1
 383 17 l 2
 383 15 382 13 381 12 c 0
 380 9 378 7 376 5 c 0
 375 5 374 4 374 4 c 2
 370 1 365 0 360 0 c 0
 354 0 349 2 345 5 c 2
 343 7 l 1
 342 8 l 2
 339 11 337 15 336 20 c 1
 66 662 l 2
 60 674 66 689 78 694 c 0
EndSplineSet
Validated: 33
EndChar

StartChar: X
Encoding: 88 88 23
Width: 722
Flags: MW
HStem: 0 21G<98.5 104.5 570 576.5>
LayerCount: 2
Fore
SplineSet
86 5 m 0
 75 13 73 28 82 39 c 2
 307 348 l 1
 82 657 l 2
 73 668 75 684 86 691 c 1
 97 700 113 698 120 687 c 2
 337 389 l 1
 554 687 l 2
 563 698 577 700 588 691 c 1
 599 684 602 668 593 657 c 2
 367 348 l 1
 593 39 l 2
 602 28 599 13 588 5 c 0
 583 2 579 0 574 0 c 0
 566 0 559 4 554 11 c 2
 337 308 l 1
 120 11 l 2
 116 4 108 0 101 0 c 0
 96 0 91 2 86 5 c 0
EndSplineSet
Validated: 33
EndChar

StartChar: Y
Encoding: 89 89 24
Width: 604
Flags: MW
HStem: 0 21G<313.5 327>
VStem: 296 48<24 336 336 336>
LayerCount: 2
Fore
SplineSet
296 24 m 2
 296 336 l 1
 61 657 l 2
 54 668 56 684 66 691 c 0
 77 700 93 698 100 687 c 2
 319 386 l 1
 539 687 l 2
 546 698 562 700 573 691 c 1
 584 684 586 668 578 657 c 2
 344 338 l 1
 344 24 l 2
 344 11 334 0 320 0 c 0
 307 0 296 11 296 24 c 2
EndSplineSet
Validated: 33
EndChar

StartChar: Z
Encoding: 90 90 25
Width: 667
Flags: MW
HStem: 0 49<96 571 145 571 145 571> 1 21G<89 90> 648 48<91.5 563 98 522>
LayerCount: 2
Fore
SplineSet
83 5 m 0x60
 74 11 71 23 75 33 c 0
 77 37 79 40 81 42 c 2
 522 648 l 1
 98 648 l 2
 85 648 74 659 74 672 c 0
 74 685 85 696 98 696 c 2
 563 696 l 1
 570 698 577 696 583 692 c 0
 585 691 588 689 590 687 c 0
 597 679 597 666 590 657 c 2
 145 49 l 1
 571 49 l 2
 584 49 595 39 595 24 c 0
 595 11 584 0 571 0 c 2
 98 0 l 1
 96 0 l 2xa0
 94 0 91 1 89 1 c 0
 87 2 85 3 83 5 c 0x60
EndSplineSet
Validated: 1
EndChar

StartChar: ampersand
Encoding: 38 38 26
Width: 696
Flags: MW
HStem: 0 49<228.5 327.5 228.5 341> 272 49<391 427.5> 507 193<226.5 424> 651 49<240 306>
VStem: 49 49<179.5 264 179.5 267.5> 104 49<511 564.5 511 578> 242 49<185 198 185 202> 393 49<524.5 564.5> 458 49<179.5 236>
LayerCount: 2
Fore
SplineSet
49 229 m 0xdf80
 49 306 88 376 148 418 c 1
 120 448 104 488 104 531 c 0
 104 625 180 700 273 700 c 0
 366 700 442 625 442 531 c 0
 442 518 431 507 417 507 c 0xef80
 404 507 393 518 393 531 c 0
 393 598 339 651 273 651 c 0
 207 651 153 598 153 531 c 0
 153 491 174 455 204 434 c 0
 213 427 217 415 212 405 c 1
 211 400 207 396 203 393 c 0
 200 391 198 390 195 389 c 0
 137 358 98 299 98 229 c 0
 98 130 179 49 278 49 c 0
 377 49 458 130 458 229 c 0
 458 243 456 257 453 270 c 1
 442 272 432 272 423 272 c 0
 359 272 327 257 311 241 c 0
 295 225 291 206 291 190 c 0
 291 180 293 173 294 169 c 0
 297 155 290 142 278 138 c 0
 275 137 273 137 271 137 c 0
 259 137 250 143 247 154 c 0
 246 155 242 170 242 190 c 0
 242 214 248 248 277 275 c 1
 305 303 351 321 423 321 c 0
 434 321 447 321 458 319 c 1
 464 319 l 1
 467 319 l 1
 474 319 l 1
 485 321 495 325 502 330 c 1
 510 338 516 346 516 367 c 0
 516 374 516 383 514 393 c 1
 510 406 519 419 532 422 c 0
 546 425 558 416 562 404 c 1
 564 390 565 378 565 367 c 0
 567 334 552 307 531 292 c 0
 521 285 512 280 502 276 c 1
 505 261 507 245 507 229 c 0
 507 103 404 0 278 0 c 0
 152 0 49 103 49 229 c 0xdf80
EndSplineSet
Validated: 33
EndChar

StartChar: zero
Encoding: 48 48 28
Width: 710
Flags: MW
HStem: 0 49<271.5 307 307 307> 651 49<282 307 307 307 307 307 307 307>
VStem: 65 49<307 350 307 397> 501 49<303 350 303 393>
LayerCount: 2
Fore
SplineSet
132 106 m 1
 89 170 65 256 65 350 c 1
 65 350 l 1
 65 444 89 530 132 595 c 1
 132 595 l 1
 175 657 236 700 307 700 c 1
 307 700 l 1
 378 700 439 657 482 595 c 1
 482 595 l 1
 524 530 550 444 550 350 c 1
 550 350 l 1
 550 256 524 170 482 106 c 1
 482 106 l 1
 439 43 378 0 307 0 c 1
 307 0 l 1
 236 0 175 43 132 106 c 1
 132 106 l 1
173 567 m 1
 137 513 114 436 114 350 c 1
 114 350 l 1
 114 264 137 187 173 133 c 1
 173 133 l 1
 209 80 257 49 307 49 c 1
 307 49 l 1
 357 49 404 80 441 133 c 1
 441 133 l 1
 477 187 501 264 501 350 c 1
 501 350 l 1
 501 436 477 513 441 567 c 1
 441 567 l 1
 404 622 357 651 307 651 c 1
 307 651 l 1
 307 651 l 1
 307 651 l 1
 257 651 209 622 173 567 c 1
 173 567 l 1
EndSplineSet
Validated: 5
EndChar

StartChar: one
Encoding: 49 49 29
Width: 335
Flags: MW
HStem: 0 21G<186.5 200>
VStem: 169 48<24 629 629 629>
LayerCount: 2
Fore
SplineSet
169 24 m 2
 169 629 l 1
 70 571 l 2
 67 569 62 567 58 567 c 0
 49 567 41 572 37 579 c 0
 30 592 34 606 46 612 c 1
 181 694 l 2
 192 700 208 696 214 685 c 0
 217 679 218 673 217 667 c 1
 217 24 l 2
 217 11 207 0 193 0 c 0
 180 0 169 11 169 24 c 2
EndSplineSet
Validated: 33
EndChar

StartChar: two
Encoding: 50 50 30
Width: 590
Flags: MW
HStem: 0 49<134 465 134 465> 651 49<239 285.5>
VStem: 441 48<447 493.5>
LayerCount: 2
Fore
SplineSet
53 7 m 0
 44 18 44 33 54 43 c 2
 381 338 l 2
 420 374 441 422 441 472 c 0
 441 515 425 558 394 592 c 0
 359 631 310 651 261 651 c 0
 217 651 174 636 139 605 c 2
 105 574 l 2
 95 564 79 565 71 575 c 1
 61 585 62 601 72 609 c 1
 106 641 l 1
 150 680 206 700 261 700 c 0
 322 700 384 676 429 625 c 1
 470 581 489 526 489 472 c 0
 489 410 464 348 414 302 c 2
 134 49 l 1
 465 49 l 2
 478 49 489 38 489 24 c 0
 489 11 478 0 465 0 c 2
 75 0 l 1
 71 0 l 2
 64 0 57 2 53 7 c 0
EndSplineSet
Validated: 33
EndChar

StartChar: three
Encoding: 51 51 31
Width: 610
Flags: MW
HStem: 0 51<224 248 248 248> 650 50<127 461 134 402>
VStem: 436 50<214 262>
LayerCount: 2
Fore
SplineSet
483 664 m 0
 482 661 480 658 478 656 c 2
 297 470 l 1
 341 461 383 440 417 406 c 0
 463 360 486 299 486 238 c 0
 486 177 463 116 416 70 c 0
 370 24 309 0 248 0 c 1
 248 0 l 1
 188 0 127 23 81 70 c 1
 81 70 l 1
 71 79 71 95 81 105 c 0
 90 115 106 115 116 105 c 0
 153 69 200 51 248 51 c 0
 296 51 344 69 381 105 c 0
 418 142 436 190 436 238 c 0
 436 286 418 334 381 370 c 1
 345 407 297 425 249 425 c 0
 241 425 234 429 229 435 c 1
 228 435 l 1
 218 445 218 461 228 471 c 2
 402 650 l 1
 134 650 l 2
 120 650 109 661 109 675 c 0
 109 689 120 700 134 700 c 2
 461 700 l 2
 475 700 486 689 486 675 c 0
 486 671 485 667 483 664 c 0
EndSplineSet
Validated: 37
EndChar

StartChar: four
Encoding: 52 52 32
Width: 664
Flags: MW
HStem: 0 192<125 487> 144 48<125 456 125 456 505 552>
VStem: 456 49<24 144 192 602 602 602> 456 121<24 174.5 144 174.5 161.5 602>
LayerCount: 2
Fore
SplineSet
456 24 m 2xa0
 456 144 l 1
 77 144 l 1
 76 144 l 1
 74 144 l 2
 69 144 63 145 59 149 c 0
 48 157 47 173 56 183 c 2
 461 687 l 1
 462 688 l 1
 471 699 485 700 496 691 c 0
 500 688 502 683 504 679 c 0
 504 677 505 676 505 675 c 2
 505 672 l 1
 505 192 l 1x60
 552 192 l 2
 566 192 577 181 577 168 c 0x90
 577 155 566 144 552 144 c 2
 505 144 l 1x60
 505 24 l 2
 505 11 494 0 480 0 c 0
 467 0 456 11 456 24 c 2xa0
125 192 m 1
 456 192 l 1
 456 602 l 1
 125 192 l 1
EndSplineSet
Validated: 33
EndChar

StartChar: five
Encoding: 53 53 33
Width: 605
Flags: MW
HStem: 0 50<214 262 214 268> 424 50<218 263> 650 50<145 450 145 145>
VStem: 425 50<213 261.5>
LayerCount: 2
Fore
SplineSet
238 0 m 0
 177 0 116 23 70 69 c 0
 60 79 60 95 70 104 c 0
 80 114 96 114 106 104 c 0
 143 68 190 50 238 50 c 0
 286 50 333 68 370 105 c 0
 407 142 425 189 425 237 c 0
 425 286 407 334 371 370 c 0
 335 406 287 424 239 424 c 0
 190 424 143 406 106 369 c 0
 96 359 80 359 71 369 c 0
 68 371 66 374 65 377 c 1
 65 378 l 1
 64 379 64 380 64 381 c 0
 63 383 63 386 63 389 c 0
 63 390 64 392 64 394 c 2
 98 676 l 2
 98 684 102 690 108 694 c 1
 112 698 118 700 124 700 c 2
 450 700 l 2
 464 700 475 689 475 675 c 0
 475 660 464 650 450 650 c 2
 145 650 l 1
 120 442 l 1
 156 463 197 474 239 474 c 0
 300 474 360 452 406 405 c 1
 453 359 475 299 475 237 c 0
 475 177 453 115 406 69 c 0
 360 24 298 0 238 0 c 0
EndSplineSet
Validated: 33
EndChar

StartChar: six
Encoding: 54 54 34
Width: 642
Flags: MW
HStem: 0 49<251 348 251 361.5> 413 49<262.5 348> 650 49<378 378>
VStem: 66 49 481 48<181 281>
LayerCount: 2
Fore
SplineSet
64 269 m 0
 65 362 84 464 132 547 c 0
 180 632 261 695 377 699 c 0
 390 700 401 689 402 676 c 1
 402 662 391 651 378 650 c 0
 280 646 218 596 174 523 c 0
 150 482 134 433 124 383 c 1
 166 431 228 462 297 462 c 0
 426 462 529 358 529 231 c 0
 529 103 426 0 297 0 c 0
 172 0 70 99 66 223 c 1
 64 238 64 253 64 269 c 0
115 231 m 2
 115 227 l 2
 115 222 116 218 117 214 c 0
 117 211 117 209 116 207 c 1
 128 118 205 49 297 49 c 0
 399 49 481 131 481 231 c 0
 481 331 399 413 297 413 c 0
 197 413 115 331 115 231 c 2
EndSplineSet
Validated: 33
EndChar

StartChar: seven
Encoding: 55 55 35
Width: 587
Flags: MW
HStem: 0 21G<189 195.5> 648 48<81.5 458 88 426>
LayerCount: 2
Fore
SplineSet
181 2 m 0
 169 7 163 22 167 34 c 2
 426 648 l 1
 88 648 l 2
 75 648 64 659 64 672 c 0
 64 685 75 696 88 696 c 2
 458 696 l 1
 463 697 468 697 473 695 c 0
 479 692 484 686 486 680 c 0
 487 677 488 675 488 672 c 0
 488 667 487 663 484 659 c 1
 213 15 l 2
 209 6 200 0 191 0 c 0
 187 0 185 0 181 2 c 0
EndSplineSet
Validated: 33
EndChar

StartChar: eight
Encoding: 56 56 36
Width: 630
Flags: MW
HStem: 0 48<232.5 332 232.5 345> 406 50<282 282> 652 48<255 309>
VStem: 55 48<177.5 274> 137 48<530.5 582 528 595> 380 48<530.5 582> 461 48<177.5 274 164 276>
LayerCount: 2
Fore
SplineSet
137 555 m 0
 137 635 201 700 282 700 c 0
 362 700 428 635 428 555 c 0
 428 506 404 464 368 437 c 1
 451 403 509 321 509 227 c 0
 509 101 408 0 282 0 c 0
 157 0 55 101 55 227 c 0
 55 321 113 403 195 437 c 1
 160 464 137 506 137 555 c 0
103 227 m 0
 103 128 183 48 282 48 c 0
 382 48 461 128 461 227 c 0
 461 325 382 406 282 406 c 0
 183 406 103 325 103 227 c 0
185 555 m 0
 185 501 228 457 282 456 c 1
 336 457 380 501 380 555 c 0
 380 609 336 652 282 652 c 0
 228 652 185 609 185 555 c 0
EndSplineSet
Validated: 1
EndChar

StartChar: nine
Encoding: 57 57 37
Width: 642
Flags: MW
HStem: 0 49<218 218> 239 49<247 332> 651 49<247 348>
VStem: 66 49<419 520 419 533.5> 480 51<419 441.5 384.5 520>
LayerCount: 2
Fore
SplineSet
66 470 m 0
 66 597 170 700 297 700 c 0
 417 700 514 611 527 496 c 0
 528 494 528 493 529 491 c 0
 530 472 531 452 531 431 c 0
 531 338 511 235 464 152 c 0
 416 69 334 4 219 0 c 1
 218 0 l 2
 204 0 193 10 193 23 c 0
 193 37 203 48 217 49 c 0
 314 53 378 103 421 176 c 0
 445 218 462 266 471 316 c 1
 429 268 367 239 297 239 c 0
 170 239 66 341 66 470 c 0
297 288 m 0
 399 288 480 368 480 470 c 0
 480 570 399 651 297 651 c 0
 197 651 115 570 115 470 c 0
 115 368 197 288 297 288 c 0
EndSplineSet
Validated: 1
EndChar

StartChar: a
Encoding: 97 97 38
Width: 619
Flags: MW
HStem: 0 48<222 309.5> 443 47<222 309.5 207.5 322.5>
VStem: 40 48<190 300 190 312> 456 48<24 97 97 97 190 300 394 466>
LayerCount: 2
Fore
SplineSet
480 490 m 0
 493 490 504 480 504 466 c 2
 504 24 l 2
 504 11 493 0 480 0 c 0
 467 0 456 11 456 24 c 2
 456 97 l 1
 414 39 347 0 272 0 c 0
 143 0 40 111 40 245 c 0
 40 379 143 490 272 490 c 0
 347 490 414 452 456 394 c 1
 456 466 l 2
 456 480 467 490 480 490 c 0
272 48 m 0
 373 48 456 135 456 245 c 0
 456 355 373 443 272 443 c 0
 172 443 88 355 88 245 c 0
 88 135 172 48 272 48 c 0
EndSplineSet
Validated: 1
EndChar

StartChar: b
Encoding: 98 98 39
Width: 660
Flags: MW
HStem: 0 49<291.5 382 278.5 396> 441 49<291.5 382> 680 20G<110.5 124>
VStem: 93 49<24 95 190 234 234 244 244 252 394 676> 518 49<190 298.5>
LayerCount: 2
Fore
SplineSet
93 24 m 2
 93 234 l 1
 93 244 l 1
 93 254 l 1
 93 676 l 2
 93 689 104 700 117 700 c 0
 131 700 142 689 142 676 c 2
 142 394 l 1
 185 452 253 490 330 490 c 0
 462 490 567 380 567 244 c 0
 567 110 462 0 330 0 c 0
 253 0 185 37 142 95 c 1
 142 24 l 2
 142 11 131 0 117 0 c 0
 104 0 93 11 93 24 c 2
142 252 m 1
 142 244 l 2
 142 136 227 49 330 49 c 0
 434 49 518 136 518 244 c 0
 518 353 434 441 330 441 c 0
 229 441 146 357 142 252 c 1
EndSplineSet
Validated: 1
EndChar

StartChar: c
Encoding: 99 99 40
Width: 571
Flags: MW
HStem: 0 48<240 310 310 310 310 310 310 310> 443 47<253 310 310 310>
VStem: 58 48<191 246 191 314>
LayerCount: 2
Fore
SplineSet
310 0 m 1
 170 0 58 108 58 246 c 1
 58 246 l 1
 58 382 170 490 310 490 c 1
 310 490 l 1
 368 490 423 470 466 436 c 1
 466 436 l 1
 476 429 478 414 469 403 c 1
 469 403 l 1
 461 394 447 391 436 399 c 1
 436 399 l 1
 401 427 357 443 310 443 c 1
 310 443 l 1
 196 443 106 354 106 246 c 1
 106 246 l 1
 106 136 196 48 310 48 c 1
 310 48 l 1
 357 48 401 64 436 91 c 1
 436 91 l 1
 436 91 l 1
 447 99 461 96 469 87 c 1
 469 87 l 1
 478 76 476 61 464 52 c 1
 464 52 l 1
 423 20 368 0 310 0 c 1
 310 0 l 1
 310 0 l 1
 310 0 l 1
EndSplineSet
Validated: 37
EndChar

StartChar: d
Encoding: 100 100 41
Width: 660
Flags: MW
HStem: 0 49<245.5 335.5> 441 49<245.5 335.5 231 347.5> 680 20G<503 516.5>
VStem: 60 49<190 298.5 190 312> 485 49<24 95 95 95 236 244 244 252 252 252 394 676>
LayerCount: 2
Fore
SplineSet
485 24 m 2
 485 95 l 1
 442 37 374 0 297 0 c 0
 165 0 60 110 60 244 c 0
 60 380 165 490 297 490 c 0
 374 490 442 452 485 394 c 1
 485 676 l 2
 485 689 496 700 510 700 c 0
 523 700 534 689 534 676 c 2
 534 254 l 1
 534 244 l 1
 534 24 l 2
 534 11 523 0 510 0 c 0
 496 0 485 11 485 24 c 2
297 49 m 0
 398 49 481 132 485 236 c 1
 485 252 l 1
 481 357 398 441 297 441 c 0
 194 441 109 353 109 244 c 0
 109 136 194 49 297 49 c 0
EndSplineSet
Validated: 1
EndChar

StartChar: e
Encoding: 101 101 42
Width: 609
Flags: MW
HStem: 0 48<245.5 328.5 245.5 337.5> 236 47<109 480 109 508 106 480> 442 48<250 341>
VStem: 58 48<236 236 236 312>
LayerCount: 2
Fore
SplineSet
296 0 m 0
 164 0 58 110 58 244 c 0
 58 380 164 490 296 490 c 0
 422 490 522 390 532 262 c 1
 532 261 l 1
 532 258 l 2
 532 245 521 236 508 236 c 2
 106 236 l 1
 111 129 195 48 296 48 c 0
 361 48 421 82 454 137 c 0
 461 149 476 151 486 145 c 1
 497 137 501 123 494 111 c 0
 452 44 379 0 296 0 c 0
296 442 m 0
 204 442 127 376 109 283 c 1
 480 283 l 1
 464 375 386 442 296 442 c 0
EndSplineSet
Validated: 33
EndChar

StartChar: f
Encoding: 102 102 43
Width: 362
Flags: MW
HStem: -1 21G<172 185.5> 449 49<82.5 154 89 154 203 272> 650 49<268 291.5>
VStem: 65 138 154 49<23 449 498 550>
LayerCount: 2
Fore
SplineSet
285 699 m 0xe8
 298 699 309 688 309 674 c 0
 309 661 298 650 285 650 c 0
 251 650 233 643 223 631 c 0
 212 619 203 595 203 550 c 2
 203 498 l 1
 272 498 l 2
 286 498 297 487 297 474 c 0
 297 460 286 449 272 449 c 2
 203 449 l 1
 203 23 l 2
 203 10 192 -1 179 -1 c 0
 165 -1 154 10 154 23 c 2
 154 449 l 1xe8
 89 449 l 2
 76 449 65 460 65 474 c 0xf0
 65 487 76 498 89 498 c 2
 154 498 l 1
 154 550 l 1
 155 600 163 637 186 664 c 1
 210 690 246 699 285 699 c 0xe8
EndSplineSet
Validated: 1
EndChar

StartChar: g
Encoding: 103 103 44
Width: 660
Flags: MW
HStem: -191 48<275 341 275 354> 3 47<240 327.5> 442 48<240 327.5 226 340.5>
VStem: 60 48<192 301.5 192 313> 473 48<39 99 99 99 192 301.5 394 466>
LayerCount: 2
Fore
SplineSet
521 466 m 2
 521 39 l 2
 521 -88 418 -191 290 -191 c 0
 254 -191 220 -182 188 -168 c 1
 178 -161 172 -147 178 -136 c 0
 184 -123 198 -118 210 -125 c 1
 235 -137 260 -143 290 -143 c 0
 392 -143 473 -62 473 39 c 2
 473 99 l 1
 432 40 365 3 290 3 c 0
 162 3 60 112 60 247 c 0
 60 379 162 490 290 490 c 0
 365 490 432 452 473 394 c 1
 473 466 l 1
 473 466 l 1
 473 479 484 490 498 490 c 0
 510 490 521 479 521 466 c 2
290 50 m 0
 391 50 473 137 473 247 c 0
 473 356 391 442 290 442 c 0
 190 442 108 356 108 247 c 0
 108 137 190 50 290 50 c 0
EndSplineSet
Validated: 37
EndChar

StartChar: h
Encoding: 104 104 45
Width: 613
Flags: MW
HStem: 0 21G<120 142> 441 49<266 340> 680 20G<110.5 124>
VStem: 93 49<24 297 418 676> 453 49<24 297>
LayerCount: 2
Fore
SplineSet
453 24 m 2
 453 297 l 2
 453 383 383 441 297 441 c 0
 212 441 142 383 142 297 c 2
 142 24 l 1
 142 21 l 2
 142 19 141 18 141 17 c 0
 140 15 140 14 139 13 c 0
 136 7 131 3 124 1 c 1
 124 1 123 0 122 0 c 2
 120 0 l 1
 117 0 l 2
 110 0 103 3 98 8 c 0
 96 11 95 13 94 16 c 0
 93 19 93 21 93 24 c 2
 93 297 l 1
 93 305 l 1
 93 676 l 2
 93 689 104 700 117 700 c 0
 131 700 142 689 142 676 c 2
 142 418 l 1
 179 462 235 490 297 490 c 0
 410 490 502 410 502 297 c 2
 502 24 l 2
 502 11 491 0 477 0 c 0
 464 0 453 11 453 24 c 2
EndSplineSet
Validated: 1
EndChar

StartChar: i
Encoding: 105 105 46
Width: 281
Flags: MW
HStem: 0 21G<111.5 118 118 118> 630 20G<118 118 118 125>
VStem: 94 49<24 466 17.5 24 603 626>
LayerCount: 2
Fore
SplineSet
94 24 m 1
 94 466 l 2
 94 480 105 490 118 490 c 1
 118 490 l 1
 132 490 143 480 143 466 c 1
 143 466 l 1
 143 24 l 2
 143 11 132 0 118 0 c 1
 118 0 l 1
 105 0 94 11 94 24 c 1
 94 24 l 1
94 603 m 1
 94 626 l 2
 94 639 105 650 118 650 c 1
 118 650 l 1
 132 650 143 639 143 626 c 1
 143 626 l 1
 143 603 l 2
 143 589 132 577 118 577 c 1
 118 577 l 1
 105 577 94 589 94 603 c 1
 94 603 l 1
EndSplineSet
Validated: 5
EndChar

StartChar: j
Encoding: 106 106 47
Width: 249
Flags: MW
HStem: -191 21G<12 19 19 19> 630 20G<82 82 82 88.5>
VStem: 55 49<-130 -106 -106 465>
LayerCount: 2
Fore
SplineSet
57 603 m 1
 57 626 l 2
 57 639 70 650 82 650 c 1
 82 650 l 1
 95 650 106 639 106 626 c 1
 106 626 l 1
 106 603 l 2
 106 590 95 578 82 578 c 1
 82 578 l 1
 70 578 57 590 57 603 c 1
 57 603 l 1
-5 -168 m 1
 -5 -154 5 -143 19 -143 c 1
 19 -143 l 1
 38 -143 55 -126 55 -106 c 1
 55 -106 l 1
 55 465 l 2
 55 479 67 490 80 490 c 1
 80 490 l 1
 93 490 104 479 104 465 c 1
 104 465 l 1
 104 -106 l 2
 104 -154 67 -191 19 -191 c 1
 19 -191 l 1
 5 -191 -5 -181 -5 -168 c 1
 -5 -168 l 1
EndSplineSet
Validated: 5
EndChar

StartChar: k
Encoding: 107 107 48
Width: 560
Flags: MW
HStem: 0 21G<110.5 124 445.5 451.5> 680 20G<110.5 124>
VStem: 93 49<24 136 205 676>
LayerCount: 2
Fore
SplineSet
93 24 m 2
 93 676 l 2
 93 689 104 700 117 700 c 0
 131 700 142 689 142 676 c 2
 142 205 l 1
 432 494 l 2
 442 504 456 504 466 494 c 0
 476 485 476 470 466 460 c 2
 277 271 l 1
 467 40 l 2
 476 29 475 15 465 5 c 0
 460 1 454 0 449 0 c 0
 442 0 434 2 430 9 c 1
 242 236 l 1
 142 136 l 1
 142 24 l 2
 142 11 131 0 117 0 c 0
 104 0 93 11 93 24 c 2
EndSplineSet
Validated: 33
EndChar

StartChar: l
Encoding: 108 108 49
Width: 249
Flags: MW
HStem: 0 21G<117.5 124 124 124> 680 20G<124 124 124 131>
VStem: 100 49<24 676 17.5 24>
LayerCount: 2
Fore
SplineSet
100 24 m 1
 100 676 l 2
 100 689 111 700 124 700 c 1
 124 700 l 1
 138 700 149 689 149 676 c 1
 149 676 l 1
 149 24 l 2
 149 11 138 0 124 0 c 1
 124 0 l 1
 111 0 100 11 100 24 c 1
 100 24 l 1
EndSplineSet
Validated: 5
EndChar

StartChar: m
Encoding: 109 109 50
Width: 951
Flags: MW
HStem: 0 21G<442 461 442 463> 1 21G<123 124 458 459> 442 47<260.5 329 604.5 684>
VStem: 93 47<19 23 19 23 23 290 419 466> 442 49<19.5 20 20 21 21 23 23 290> 794 47<23 290>
LayerCount: 2
Fore
SplineSet
794 23 m 2xbc
 794 290 l 1
 792 373 726 442 642 442 c 0
 559 442 491 373 491 290 c 2
 491 23 l 1
 491 20 l 2
 491 19 490 18 490 18 c 1
 490 16 l 1
 488 10 483 6 478 3 c 0
 474 1 470 0 466 0 c 2
 463 0 l 1
 461 0 l 2xbc
 460 0 459 1 459 1 c 2x7c
 457 1 455 3 453 4 c 0
 452 4 451 5 450 6 c 2
 447 9 l 2
 446 10 446 11 445 11 c 1
 445 12 445 12 444 13 c 2
 444 13 444 14 443 15 c 0
 443 16 443 17 442 18 c 1
 442 21 l 1xbc
 442 23 l 1
 442 290 l 2
 442 373 375 442 291 442 c 0
 207 442 140 373 140 290 c 2
 140 23 l 2
 140 15 136 8 129 4 c 0
 128 3 125 1 123 1 c 1x7c
 122 0 121 0 119 0 c 2
 116 0 l 1
 113 0 l 1
 104 1 96 9 93 18 c 1
 93 23 l 1
 93 290 l 1
 93 298 l 1
 93 466 l 2
 93 479 104 489 116 489 c 0
 130 489 140 479 140 466 c 2
 140 419 l 1
 176 462 230 489 291 489 c 0
 367 489 432 447 466 385 c 1
 501 447 567 489 642 489 c 0
 752 489 841 400 841 290 c 2
 841 23 l 2
 841 11 831 0 817 0 c 0
 804 0 794 11 794 23 c 2xbc
EndSplineSet
Validated: 1
EndChar

StartChar: n
Encoding: 110 110 51
Width: 613
Flags: MW
HStem: 0 21G<111 117 111 111 460.5 473.5> 441 48<261.5 334>
VStem: 93 47<20 24 20 24 24 290 418 465> 443 48<24 290>
LayerCount: 2
Fore
SplineSet
443 24 m 2
 443 290 l 2
 443 373 376 441 292 441 c 0
 209 441 142 373 140 290 c 1
 140 24 l 1
 140 20 l 1
 139 16 138 12 135 9 c 0
 131 3 124 0 117 0 c 2
 111 0 l 1
 104 2 98 7 95 13 c 0
 94 14 94 15 94 16 c 0
 94 17 93 18 93 18 c 1
 93 24 l 1
 93 290 l 1
 93 298 l 1
 93 465 l 2
 93 478 103 489 117 489 c 0
 130 489 140 478 140 465 c 2
 140 418 l 1
 176 461 231 489 292 489 c 0
 402 489 491 399 491 290 c 2
 491 24 l 2
 491 10 480 0 467 0 c 0
 454 0 443 10 443 24 c 2
EndSplineSet
Validated: 1
EndChar

StartChar: o
Encoding: 111 111 52
Width: 625
Flags: MW
HStem: 0 48<238 302 302 302> 443 47<252 302 302 302>
VStem: 70 48<190.5 311.5 190.5 245> 486 48<178.5 245 178.5 299.5>
LayerCount: 2
Fore
SplineSet
70 245 m 1
 70 378 174 490 302 490 c 1
 302 490 l 1
 431 490 534 378 534 245 c 1
 534 245 l 1
 534 112 431 0 302 0 c 1
 302 0 l 1
 174 0 70 112 70 245 c 1
 70 245 l 1
118 245 m 1
 118 136 202 48 302 48 c 1
 302 48 l 1
 402 48 486 136 486 245 c 1
 486 245 l 1
 486 354 402 443 302 443 c 1
 302 443 l 1
 202 443 118 354 118 245 c 1
 118 245 l 1
EndSplineSet
Validated: 5
EndChar

StartChar: p
Encoding: 112 112 53
Width: 660
Flags: MW
HStem: -205 21G<110.5 124> 3 48<328 328> 441 49<290 380>
VStem: 93 49<-181 99 193 237 237 247 247 255 395 466> 516 49<193 301>
LayerCount: 2
Fore
SplineSet
93 -181 m 2
 93 237 l 1
 93 247 l 1
 93 257 l 1
 93 466 l 2
 93 479 104 490 117 490 c 0
 131 490 142 479 142 466 c 2
 142 395 l 1
 184 452 252 490 328 490 c 0
 460 490 565 381 565 247 c 0
 565 114 460 3 328 3 c 0
 252 3 184 41 142 99 c 1
 142 -181 l 2
 142 -194 131 -205 117 -205 c 0
 104 -205 93 -194 93 -181 c 2
142 255 m 1
 142 247 l 2
 142 139 227 52 328 51 c 1
 432 52 516 139 516 247 c 0
 516 355 432 441 328 441 c 0
 229 441 146 359 142 255 c 1
EndSplineSet
Validated: 1
EndChar

StartChar: q
Encoding: 113 113 54
Width: 660
Flags: MW
HStem: -205 21G<500.5 514.5> 2 49<295 295> 441 49<244 333.5 230.5 347>
VStem: 60 49<193 301.5 193 314> 483 49<-181 99 99 99 193 237 237 247 247 257 257 301.5 394 466>
LayerCount: 2
Fore
SplineSet
483 -181 m 2
 483 99 l 1
 440 41 372 2 295 2 c 0
 166 3 60 114 60 247 c 0
 60 381 166 490 295 490 c 0
 372 490 440 452 483 394 c 1
 483 466 l 2
 483 479 494 490 507 490 c 0
 522 490 532 479 532 466 c 2
 532 257 l 1
 532 247 l 1
 532 237 l 1
 532 -181 l 2
 532 -194 522 -205 507 -205 c 0
 494 -205 483 -194 483 -181 c 2
109 247 m 0
 109 139 193 52 295 51 c 1
 399 52 483 139 483 247 c 0
 483 356 399 441 295 441 c 0
 193 441 109 356 109 247 c 0
EndSplineSet
Validated: 1
EndChar

StartChar: r
Encoding: 114 114 55
Width: 439
Flags: MW
HStem: 0 21G<111 124> 441 48<312 350.5>
VStem: 93 48<24 239 357 465>
LayerCount: 2
Fore
SplineSet
93 24 m 2
 93 465 l 2
 93 479 104 489 118 489 c 0
 130 489 141 479 141 465 c 2
 141 357 l 1
 143 361 145 365 148 369 c 0
 185 427 250 489 344 489 c 0
 357 489 368 479 368 465 c 0
 368 452 357 441 344 441 c 0
 280 441 236 405 202 361 c 0
 169 317 150 267 143 247 c 0
 141 243 141 241 141 239 c 2
 141 24 l 2
 141 10 130 0 118 0 c 0
 104 0 93 10 93 24 c 2
EndSplineSet
Validated: 1
EndChar

StartChar: s
Encoding: 115 115 56
Width: 492
Flags: MW
HStem: 0 48<243 243 243 243> 445 45<221 241 241 241>
LayerCount: 2
Fore
SplineSet
62 70 m 1
 52 79 51 92 59 102 c 1
 59 102 l 1
 67 112 82 114 93 105 c 1
 93 105 l 1
 127 80 181 48 243 48 c 1
 243 48 l 1
 281 48 314 60 336 78 c 1
 336 78 l 1
 360 94 373 116 373 138 c 1
 373 138 l 1
 372 161 363 177 338 198 c 1
 338 198 l 1
 317 214 282 226 234 234 c 1
 234 234 l 1
 232 235 l 1
 188 243 149 253 121 273 c 1
 121 273 l 1
 90 291 68 323 68 361 c 1
 68 361 l 1
 68 400 90 434 121 457 c 1
 121 457 l 1
 150 477 191 490 241 490 c 1
 241 490 l 1
 304 490 349 461 387 437 c 1
 387 437 l 1
 398 429 401 414 394 403 c 1
 394 403 l 1
 387 392 372 389 361 396 c 1
 361 396 l 1
 325 420 289 445 241 445 c 1
 241 445 l 1
 201 445 169 434 148 417 c 1
 148 417 l 1
 128 401 117 381 117 361 c 1
 117 361 l 1
 117 341 126 327 145 312 c 1
 145 312 l 1
 167 297 200 285 245 278 c 1
 245 278 l 1
 247 278 l 1
 294 271 332 257 366 238 c 1
 366 238 l 1
 398 217 421 179 421 138 c 1
 421 138 l 1
 421 97 398 64 365 39 c 1
 365 39 l 1
 331 14 291 0 243 0 c 1
 243 0 l 1
 164 1 102 38 62 70 c 1
 62 70 l 1
EndSplineSet
Validated: 37
EndChar

StartChar: t
Encoding: 116 116 57
Width: 400
Flags: MW
HStem: 0 21G<188.5 219> 442 48<54 127 66 127 177 240> 676 20G<145 157.5>
VStem: 127 50<85 442 490 672>
LayerCount: 2
Fore
SplineSet
240 490 m 2
 252 490 264 478 264 466 c 0
 264 454 252 442 240 442 c 2
 177 442 l 1
 177 85 l 2
 177 61 201 49 213 49 c 0
 225 49 238 36 238 24 c 0
 238 12 225 0 213 0 c 0
 164 0 127 36 127 85 c 2
 127 442 l 1
 66 442 l 2
 42 442 42 454 42 466 c 0
 42 478 42 490 66 490 c 2
 127 490 l 1
 127 672 l 2
 127 684 139 696 151 696 c 0
 164 696 177 684 177 672 c 2
 177 490 l 1
 240 490 l 2
EndSplineSet
Validated: 1
EndChar

StartChar: u
Encoding: 117 117 58
Width: 613
Flags: MW
HStem: 0 48<226 281 281 281> 471 20G<107 107 107 113.5 457 464 457 457>
VStem: 83 48<200 467 158 200> 433 49<145 200 200 467>
LayerCount: 2
Fore
SplineSet
83 200 m 1
 83 467 l 2
 83 481 94 491 107 491 c 1
 107 491 l 1
 120 491 131 481 131 467 c 1
 131 467 l 1
 131 200 l 2
 131 116 198 49 281 48 c 1
 281 48 l 1
 365 49 433 116 433 200 c 1
 433 200 l 1
 433 467 l 1
 433 467 l 1
 433 481 445 491 457 491 c 1
 457 491 l 1
 471 491 482 481 482 467 c 1
 482 467 l 1
 482 200 l 2
 482 90 393 0 281 0 c 1
 281 0 l 1
 171 0 83 90 83 200 c 1
 83 200 l 1
EndSplineSet
Validated: 5
EndChar

StartChar: v
Encoding: 118 118 59
Width: 582
Flags: MW
HStem: 0 21G<263.5 267.5> 1 21G<256.5 257>
LayerCount: 2
Fore
SplineSet
255 2 m 1x40
 253 2 252 3 250 4 c 0
 247 7 244 10 242 15 c 2
 58 453 l 2
 53 465 59 479 70 484 c 0
 82 489 97 483 101 471 c 2
 264 85 l 1
 427 471 l 2
 431 483 446 489 458 484 c 0
 470 479 475 465 470 453 c 2
 287 19 l 2
 286 15 284 11 281 7 c 0
 277 2 270 0 265 0 c 0x80
 262 0 260 0 257 1 c 0
 256 1 256 1 255 2 c 1x40
EndSplineSet
Validated: 33
EndChar

StartChar: w
Encoding: 119 119 60
Width: 861
Flags: MW
HStem: 0 21G<268.5 274 539 542 539 539 542 544>
LayerCount: 2
Fore
SplineSet
261 2 m 0
 259 2 258 3 257 4 c 0
 252 6 249 10 247 15 c 2
 63 453 l 2
 58 465 64 479 75 484 c 0
 87 489 102 483 106 471 c 2
 269 85 l 1
 382 354 l 2
 386 363 396 369 405 369 c 0
 415 369 425 363 429 354 c 2
 542 85 l 1
 704 471 l 2
 709 483 724 489 735 484 c 0
 747 479 753 465 748 453 c 2
 565 17 l 2
 563 12 560 8 556 5 c 0
 552 2 548 0 544 0 c 2
 542 0 l 1
 539 0 l 1
 531 1 522 7 520 15 c 1
 519 16 l 1
 405 287 l 1
 292 17 l 1
 292 17 291 16 291 15 c 0
 288 6 278 0 270 0 c 0
 267 0 264 1 261 2 c 0
EndSplineSet
Validated: 33
EndChar

StartChar: x
Encoding: 120 120 61
Width: 570
Flags: MW
HStem: 0 21G<91 96.5 411 417>
LayerCount: 2
Fore
SplineSet
79 5 m 0
 69 13 67 27 74 38 c 2
 224 243 l 1
 74 449 l 1
 67 461 69 475 79 483 c 0
 89 490 105 488 112 477 c 2
 254 284 l 1
 395 477 l 2
 403 488 418 490 427 483 c 0
 439 475 441 461 434 449 c 1
 283 243 l 1
 434 38 l 2
 441 27 439 13 427 5 c 0
 424 2 419 0 415 0 c 0
 407 0 399 3 395 10 c 2
 254 203 l 1
 112 10 l 2
 108 3 100 0 93 0 c 0
 89 0 84 2 79 5 c 0
EndSplineSet
Validated: 33
EndChar

StartChar: y
Encoding: 121 121 62
Width: 588
Flags: MW
HStem: -191 48<203 268 203 281.5> 1 49<250 280.5> 469 20G<418 420 420 420.5> 470 20G<69 82 423 426 426 429 429 429>
VStem: 52 48<201 467> 402 48<39 71 71 71 201 467>
LayerCount: 2
Fore
SplineSet
52 201 m 2xdc
 52 467 l 2
 52 480 63 490 75 490 c 0xdc
 89 490 100 480 100 467 c 2
 100 201 l 2
 100 117 167 50 250 50 c 0
 334 50 401 117 402 201 c 1
 402 467 l 2
 402 471 403 476 406 479 c 0
 406 480 407 481 407 482 c 1
 408 482 408 483 409 483 c 0
 411 486 415 488 418 489 c 1
 420 489 l 2xec
 421 489 422 490 423 490 c 2
 426 490 l 1
 429 490 l 1
 433 489 437 487 441 485 c 0
 443 483 446 480 447 477 c 0
 449 474 450 470 450 467 c 2
 450 201 l 1
 450 192 l 1
 450 39 l 2
 450 -89 346 -191 217 -191 c 0
 181 -191 147 -182 116 -168 c 1
 105 -161 100 -147 106 -136 c 0
 112 -124 125 -121 137 -124 c 1
 161 -136 189 -143 217 -143 c 0
 319 -143 401 -62 402 39 c 1
 402 71 l 1
 365 29 311 1 250 1 c 0
 141 2 52 91 52 201 c 2xdc
EndSplineSet
Validated: 33
EndChar

StartChar: z
Encoding: 122 122 63
Width: 554
Flags: MW
HStem: 0 48<80 405 131 405 131 405> 438 48<78.5 402 85 358>
LayerCount: 2
Fore
SplineSet
358 438 m 1
 85 438 l 2
 72 438 61 449 61 462 c 0
 61 476 72 486 85 486 c 2
 402 486 l 1
 408 487 414 485 419 482 c 1
 422 479 l 1
 423 478 l 2
 429 472 431 464 428 456 c 0
 427 451 424 446 419 443 c 1
 131 48 l 1
 405 48 l 2
 418 48 429 38 429 24 c 0
 429 10 418 0 405 0 c 2
 85 0 l 2
 75 0 66 6 63 14 c 0
 63 15 62 15 62 15 c 1
 61 18 61 21 61 24 c 2
 61 25 l 2
 61 32 64 38 69 42 c 1
 358 438 l 1
EndSplineSet
Validated: 1
EndChar

StartChar: exclam
Encoding: 33 33 64
Width: 252
Flags: MW
HStem: 0 21G<110.5 117 117 117> 680 20G<117 117 117 124>
VStem: 93 49<24 48 17.5 24 17.5 54.5 174 676>
LayerCount: 2
Fore
SplineSet
93 174 m 1
 93 676 l 2
 93 689 104 700 117 700 c 1
 117 700 l 1
 131 700 142 689 142 676 c 1
 142 676 l 1
 142 174 l 2
 142 160 131 149 117 149 c 1
 117 149 l 1
 104 149 93 160 93 174 c 1
 93 174 l 1
93 24 m 1
 93 48 l 2
 93 61 104 72 117 72 c 1
 117 72 l 1
 131 72 142 61 142 48 c 1
 142 48 l 1
 142 24 l 2
 142 11 131 0 117 0 c 1
 117 0 l 1
 104 0 93 11 93 24 c 1
 93 24 l 1
EndSplineSet
Validated: 5
EndChar

StartChar: parenleft
Encoding: 40 40 65
Width: 430
Flags: MW
HStem: -97 56<250.5 293 291 293 291 293 293 293> 647 56<293 293 293 293>
VStem: 71 56<253 303 253 355.5>
LayerCount: 2
Fore
SplineSet
119 28 m 1
 85 101 71 198 71 303 c 1
 71 303 l 1
 71 408 85 504 119 578 c 1
 119 578 l 1
 152 651 211 703 293 703 c 1
 293 703 l 1
 308 703 320 690 320 675 c 1
 320 675 l 1
 320 660 308 647 293 647 c 1
 293 647 l 1
 236 646 199 616 169 554 c 1
 169 554 l 1
 141 493 127 403 127 303 c 1
 127 303 l 1
 127 203 141 113 169 52 c 1
 169 52 l 1
 199 -10 236 -41 293 -41 c 1
 293 -41 l 1
 308 -41 320 -54 320 -69 c 1
 320 -69 l 1
 320 -85 308 -97 293 -97 c 1
 293 -97 l 1
 292 -97 292 -97 291 -97 c 1
 291 -97 l 1
 210 -97 151 -45 119 28 c 1
 119 28 l 1
EndSplineSet
Validated: 5
EndChar

StartChar: parenright
Encoding: 41 41 66
Width: 430
Flags: MW
HStem: -97 56<79.5 87 87 89 87 87 89 89> 647 56<79.5 87 87 87>
VStem: 253 56<250.5 303 250.5 353>
LayerCount: 2
Fore
SplineSet
261 28 m 1
 229 -45 170 -97 89 -97 c 1
 89 -97 l 1
 88 -97 88 -97 87 -97 c 1
 87 -97 l 1
 72 -97 60 -85 60 -69 c 1
 60 -69 l 1
 60 -54 72 -41 87 -41 c 1
 87 -41 l 1
 144 -41 181 -10 211 52 c 1
 211 52 l 1
 239 113 253 203 253 303 c 1
 253 303 l 1
 253 403 239 493 211 554 c 1
 211 554 l 1
 181 616 144 646 87 647 c 1
 87 647 l 1
 72 647 60 660 60 675 c 1
 60 675 l 1
 60 690 72 703 87 703 c 1
 87 703 l 1
 169 703 228 651 261 578 c 1
 261 578 l 1
 295 504 309 408 309 303 c 1
 309 303 l 1
 309 198 295 101 261 28 c 1
EndSplineSet
Validated: 5
EndChar

StartChar: plus
Encoding: 43 43 67
Width: 620
Flags: MW
HStem: 100 21G<304.5 323.5> 317 67<88.5 281 98 281 348 531> 580 20G<304.5 323.5>
VStem: 281 67<134 317 384 567>
LayerCount: 2
Fore
SplineSet
281 134 m 2
 281 317 l 1
 98 317 l 2
 79 317 64 331 64 350 c 0
 64 369 79 384 98 384 c 2
 281 384 l 1
 281 567 l 2
 281 585 295 600 314 600 c 0
 333 600 348 585 348 567 c 2
 348 384 l 1
 531 384 l 2
 549 384 564 369 564 350 c 0
 564 331 549 317 531 317 c 2
 348 317 l 1
 348 134 l 2
 348 115 333 100 314 100 c 0
 295 100 281 115 281 134 c 2
EndSplineSet
Validated: 1
EndChar

StartChar: less
Encoding: 60 60 68
Width: 620
Flags: MW
HStem: 0 21G<402.5 410>
LayerCount: 2
Fore
SplineSet
386 9 m 2
 70 327 l 1
 69 328 l 2
 67 330 65 332 64 334 c 0
 63 335 63 336 63 336 c 2
 62 337 62 338 62 339 c 0
 61 341 61 342 61 344 c 0
 60 347 60 350 61 353 c 0
 61 355 62 357 63 360 c 0
 64 362 65 364 66 365 c 2
 69 368 l 1
 70 369 l 1
 386 689 l 2
 397 699 416 700 427 689 c 1
 437 677 437 659 427 647 c 1
 129 348 l 1
 427 48 l 2
 437 37 437 20 427 9 c 0
 422 3 414 0 406 0 c 0
 399 0 392 3 386 9 c 2
EndSplineSet
Validated: 33
EndChar

StartChar: greater
Encoding: 62 62 69
Width: 620
Flags: MW
HStem: 0 21G<116 123.5>
LayerCount: 2
Fore
SplineSet
99 9 m 0
 89 20 89 37 99 48 c 2
 397 348 l 1
 99 647 l 1
 89 659 89 677 99 689 c 1
 110 700 129 699 140 689 c 2
 456 369 l 1
 457 368 l 2
 462 363 465 355 465 348 c 0
 465 342 463 335 459 330 c 0
 459 329 458 329 457 328 c 2
 456 327 l 1
 140 9 l 2
 135 3 127 0 120 0 c 0
 112 0 105 3 99 9 c 0
EndSplineSet
Validated: 33
EndChar

StartChar: A
Encoding: 65 65 70
Width: 646
Flags: MW
HStem: 0 21G<82 88 567.5 573.5> 1 21G<74 75.5 579 581> 181 49<186 469 186 487 168 469> 677 20G<322 332.5>
LayerCount: 2
Fore
SplineSet
549 16 m 2xb0
 487 181 l 1
 168 181 l 1
 106 16 l 2
 102 6 93 0 83 0 c 0xb0
 81 0 77 1 74 1 c 1
 62 6 55 21 60 33 c 2
 303 682 l 2
 307 691 317 697 327 697 c 0
 338 697 348 691 351 682 c 2
 594 33 l 2
 599 21 593 6 581 1 c 1x70
 577 1 575 0 572 0 c 0
 563 0 553 6 549 16 c 2xb0
328 606 m 1
 186 230 l 1
 469 230 l 1
 328 606 l 1
EndSplineSet
Validated: 33
EndChar

StartChar: period
Encoding: 46 46 71
Width: 230
Flags: MW
HStem: 0 100<118 146>
VStem: 82 100<36 64>
LayerCount: 2
Fore
SplineSet
82 50 m 0
 82 78 104 100 132 100 c 0
 160 100 182 78 182 50 c 0
 182 22 160 0 132 0 c 0
 104 0 82 22 82 50 c 0
EndSplineSet
Validated: 1
EndChar

StartChar: question
Encoding: 63 63 72
Width: 534
Flags: MW
HStem: 0 21G<224 236.5> 653 47<198.5 230>
VStem: 207 47<23 45 16.5 51.5 162 269> 399 47<436.5 530.5>
LayerCount: 2
Fore
SplineSet
207 162 m 2
 207 287 l 1
 207 290 l 1
 207 291 l 2
 207 304 218 314 230 314 c 0
 324 314 399 390 399 483 c 0
 399 578 324 652 230 653 c 0
 167 653 113 620 84 568 c 0
 78 558 63 553 52 560 c 0
 40 567 37 581 44 592 c 0
 81 657 150 700 230 700 c 0
 349 700 446 603 446 483 c 0
 446 373 362 281 254 269 c 1
 254 162 l 2
 254 149 243 139 230 139 c 0
 218 139 207 149 207 162 c 2
207 23 m 2
 207 45 l 2
 207 58 218 69 230 69 c 0
 243 69 254 58 254 45 c 2
 254 23 l 2
 254 10 243 0 230 0 c 0
 218 0 207 10 207 23 c 2
EndSplineSet
Validated: 33
EndChar

StartChar: equal
Encoding: 61 61 73
Width: 620
Flags: MW
HStem: 214 55<99 107 107 107 107 463> 430 55<99 107 107 107 107 463>
LayerCount: 2
Fore
SplineSet
107 214 m 1
 91 214 79 226 79 242 c 1
 79 242 l 1
 79 256 91 269 107 269 c 1
 107 269 l 1
 463 269 l 2
 479 269 491 256 491 242 c 1
 491 242 l 1
 491 226 479 214 463 214 c 1
 463 214 l 1
 107 214 l 1
 107 214 l 1
107 430 m 1
 91 430 79 442 79 457 c 1
 79 457 l 1
 79 473 91 485 107 485 c 1
 107 485 l 1
 463 485 l 2
 479 485 491 473 491 457 c 1
 491 457 l 1
 491 442 479 430 463 430 c 1
 463 430 l 1
 107 430 l 1
 107 430 l 1
EndSplineSet
Validated: 5
EndChar

StartChar: hyphen
Encoding: 45 45 74
AltUni2: 0000ad.ffffffff.0 0000ad.ffffffff.0 0000ad.ffffffff.0
Width: 408
Flags: MW
HStem: 328 38<79.5 85 85 85 85 298>
LayerCount: 2
Fore
SplineSet
85 328 m 1
 74 328 66 336 66 348 c 1
 66 348 l 1
 66 359 74 366 85 366 c 1
 85 366 l 1
 298 366 l 2
 308 366 317 359 317 348 c 1
 317 348 l 1
 317 336 308 328 298 328 c 1
 298 328 l 1
 85 328 l 1
 85 328 l 1
EndSplineSet
Validated: 5
EndChar

StartChar: slash
Encoding: 47 47 75
Width: 422
Flags: MW
HStem: 0 21G<99 101 101 101>
LayerCount: 2
Fore
SplineSet
91 1 m 1
 79 7 73 21 78 34 c 1
 78 34 l 1
 351 682 l 2
 357 694 370 700 383 695 c 1
 383 695 l 1
 396 690 402 676 396 663 c 1
 396 663 l 1
 123 15 l 2
 119 5 110 0 101 0 c 1
 101 0 l 1
 97 0 94 0 91 1 c 1
 91 1 l 1
EndSplineSet
Validated: 37
EndChar

StartChar: colon
Encoding: 58 58 76
Width: 240
Flags: MW
HStem: 0 100<123 151> 420 100<123 151>
VStem: 87 100<36 64 456 484>
LayerCount: 2
Fore
SplineSet
87 50 m 0
 87 78 109 100 137 100 c 0
 165 100 187 78 187 50 c 0
 187 22 165 0 137 0 c 0
 109 0 87 22 87 50 c 0
87 470 m 0
 87 498 109 520 137 520 c 0
 165 520 187 498 187 470 c 0
 187 442 165 420 137 420 c 0
 109 420 87 442 87 470 c 0
EndSplineSet
Validated: 1
EndChar

StartChar: semicolon
Encoding: 59 59 77
AltUni2: 00037e.ffffffff.0 00037e.ffffffff.0 00037e.ffffffff.0
Width: 240
Flags: MW
HStem: -105 21G<70.5 78.5> 419 100<104 132>
VStem: 68 100<455 483> 87 66<35 56 3 65.5>
LayerCount: 2
Fore
SplineSet
68 469 m 0xe0
 68 497 90 519 118 519 c 0
 146 519 168 497 168 469 c 0
 168 441 146 419 118 419 c 0
 90 419 68 441 68 469 c 0xe0
59 -90 m 0
 59 -85 62 -80 67 -77 c 0
 103 -57 117 -35 114 0 c 1
 99 4 87 15 87 35 c 2
 87 56 l 2
 87 75 101 89 120 89 c 0
 139 89 153 75 153 56 c 2
 153 31 l 2xd0
 153 -25 144 -55 126 -73 c 0
 108 -91 83 -105 74 -105 c 0
 67 -105 59 -100 59 -90 c 0
EndSplineSet
Validated: 33
EndChar

StartChar: comma
Encoding: 44 44 78
Width: 230
Flags: MW
HStem: -105 21G<65.5 73.5> 69 20G<105.5 124.5>
VStem: 82 66<35 56 3 65.5>
LayerCount: 2
Fore
SplineSet
54 -90 m 0
 54 -85 57 -80 62 -77 c 0
 98 -57 112 -35 109 0 c 1
 94 4 82 15 82 35 c 2
 82 56 l 2
 82 75 96 89 115 89 c 0
 134 89 148 75 148 56 c 2
 148 31 l 2
 148 -25 139 -55 121 -73 c 0
 103 -91 78 -105 69 -105 c 0
 62 -105 54 -100 54 -90 c 0
EndSplineSet
Validated: 33
EndChar

StartChar: quotesingle
Encoding: 39 39 79
Width: 230
Flags: MW
HStem: 442 21G<79.5 88.5> 682 20G<128 147 147 151.5>
LayerCount: 2
Fore
SplineSet
70 461 m 2
 100 676 l 2
 103 694 112 702 128 702 c 2
 147 702 l 2
 156 702 163 697 163 685 c 0
 163 679 160 670 158 661 c 2
 101 460 l 2
 97 447 93 442 84 442 c 0
 75 442 68 446 70 461 c 2
EndSplineSet
Validated: 1
EndChar

StartChar: quotedbl
Encoding: 34 34 80
Width: 410
Flags: MW
HStem: 442 21G<79.5 88.5 259.5 268.5> 682 20G<128 147 147 151.5 308 327 327 331.5>
LayerCount: 2
Fore
SplineSet
250 461 m 2
 280 676 l 2
 283 694 292 702 308 702 c 2
 327 702 l 2
 336 702 343 697 343 685 c 0
 343 679 340 670 338 661 c 2
 281 460 l 2
 277 447 273 442 264 442 c 0
 255 442 248 446 250 461 c 2
70 461 m 2
 100 676 l 2
 103 694 112 702 128 702 c 2
 147 702 l 2
 156 702 163 697 163 685 c 0
 163 679 160 670 158 661 c 2
 101 460 l 2
 97 447 93 442 84 442 c 0
 75 442 68 446 70 461 c 2
EndSplineSet
Validated: 1
EndChar

StartChar: underscore
Encoding: 95 95 81
Width: 600
Flags: MW
HStem: -160 44<-8 602 -2 602>
LayerCount: 2
Fore
SplineSet
-2 -160 m 2
 -14 -160 -24 -150 -24 -138 c 0
 -24 -126 -14 -116 -2 -116 c 2
 602 -116 l 2
 614 -116 624 -126 624 -138 c 0
 624 -150 614 -160 602 -160 c 2
 -2 -160 l 2
EndSplineSet
Validated: 1
EndChar

StartChar: asterisk
Encoding: 42 42 82
Width: 430
Flags: MW
HStem: 402 21G<209 221> 686 20G<209 221>
VStem: 76 155 199 32 199 155
LayerCount: 2
Fore
SplineSet
195 424 m 2xd0
 203 533 l 1
 112 471 l 2
 106 467 102 465 96 465 c 0
 85 465 76 475 76 486 c 0
 76 495 83 502 90 505 c 2
 193 554 l 1
 90 603 l 2
 82 607 76 613 76 622 c 0xe0
 76 633 85 642 96 643 c 0
 103 643 106 641 112 637 c 2
 203 575 l 1
 195 684 l 2
 194 696 203 706 215 706 c 0
 227 706 236 696 235 684 c 2
 227 575 l 1
 318 637 l 2
 324 641 328 643 334 643 c 0
 345 643 354 633 354 622 c 0
 354 611 347 606 340 603 c 2
 237 554 l 1
 340 505 l 2
 347 502 354 497 354 486 c 0xc8
 354 475 345 465 334 465 c 0
 328 465 324 467 318 471 c 2
 227 533 l 1
 235 424 l 2
 236 412 227 402 215 402 c 0
 203 402 194 412 195 424 c 2xd0
EndSplineSet
Validated: 1
EndChar

StartChar: at
Encoding: 64 64 83
Width: 980
Flags: MW
HStem: 0 49<321 417 321 419> 162 52<369 430> 489 49<369 438.5> 652 49<321 486.5>
VStem: 53 49<268 433.5 268 448> 225 52<312.5 389 312.5 402> 532 49<312.5 338 338 343 343 351 191 389> 705 49<326 433.5>
LayerCount: 2
Fore
SplineSet
53 351 m 0
 53 545 209 701 404 701 c 0
 598 701 754 545 754 351 c 0
 754 292 741 238 717 191 c 1
 714 188 685 132 626 115 c 0
 619 113 612 113 606 113 c 0
 579 113 560 125 549 140 c 0
 539 155 533 171 533 188 c 2
 533 222 l 1
 500 185 456 162 404 162 c 0
 305 162 225 248 225 351 c 0
 225 453 305 538 404 538 c 0
 503 538 581 453 581 351 c 2
 581 343 l 1
 581 338 l 1
 581 191 l 1
 582 191 l 1
 581 185 585 175 588 169 c 0
 591 165 596 162 606 162 c 2
 614 162 l 1
 644 169 668 204 672 214 c 1
 694 254 705 301 705 351 c 0
 705 516 569 652 404 652 c 0
 238 652 102 516 102 351 c 0
 102 185 238 49 404 49 c 0
 430 49 454 50 479 57 c 0
 492 60 506 54 507 40 c 1
 512 27 503 13 490 11 c 1
 463 4 434 0 404 0 c 0
 209 0 53 156 53 351 c 0
277 351 m 0
 277 274 334 214 404 214 c 0
 473 214 532 274 532 351 c 0
 532 427 473 489 404 489 c 0
 334 489 277 427 277 351 c 0
EndSplineSet
Validated: 33
EndChar

StartChar: backslash
Encoding: 92 92 84
Width: 448
Flags: MW
HStem: 2 21G<357.5 362 362 362>
LayerCount: 2
Fore
SplineSet
372 3 m 1
 372 3 l 1
 369 2 366 2 362 2 c 1
 362 2 l 1
 353 2 344 7 340 17 c 2
 67 665 l 1
 67 665 l 1
 61 678 67 692 80 697 c 1
 80 697 l 1
 93 702 106 696 112 684 c 2
 385 36 l 1
 385 36 l 1
 390 23 384 9 372 3 c 1
EndSplineSet
Validated: 37
EndChar

StartChar: quotedblleft
Encoding: 8220 8220 85
Width: 410
Flags: MW
HStem: 509 194<101 159.5 151.5 299>
VStem: 77 66<542 563 533 567 533 595> 257 66<542 563 533 567 533 595>
LayerCount: 2
Fore
SplineSet
351 688 m 0
 351 683 348 678 343 675 c 0
 307 655 293 633 296 598 c 1
 311 594 323 583 323 563 c 2
 323 542 l 2
 323 524 308 509 290 509 c 0
 272 509 257 524 257 542 c 2
 257 567 l 2
 257 623 266 653 284 671 c 0
 302 689 327 703 336 703 c 0
 343 703 351 698 351 688 c 0
171 688 m 0
 171 683 168 678 163 675 c 0
 127 655 113 633 116 598 c 1
 131 594 143 583 143 563 c 2
 143 542 l 2
 143 524 128 509 110 509 c 0
 92 509 77 524 77 542 c 2
 77 567 l 2
 77 623 86 653 104 671 c 0
 122 689 147 703 156 703 c 0
 163 703 171 698 171 688 c 0
EndSplineSet
Validated: 33
EndChar

StartChar: quotedblright
Encoding: 8221 8221 86
Width: 410
Flags: MW
HStem: 510 194<70.5 129 111 258.5>
VStem: 87 66<650 671 618 680> 267 66<650 671 618 680>
LayerCount: 2
Fore
SplineSet
59 525 m 0
 59 530 62 535 67 538 c 0
 103 558 117 580 114 615 c 1
 99 619 87 630 87 650 c 2
 87 671 l 2
 87 689 102 704 120 704 c 0
 138 704 153 689 153 671 c 2
 153 646 l 2
 153 590 144 560 126 542 c 0
 108 524 83 510 74 510 c 0
 67 510 59 515 59 525 c 0
239 525 m 0
 239 530 242 535 247 538 c 0
 283 558 297 580 294 615 c 1
 279 619 267 630 267 650 c 2
 267 671 l 2
 267 689 282 704 300 704 c 0
 318 704 333 689 333 671 c 2
 333 646 l 2
 333 590 324 560 306 542 c 0
 288 524 263 510 254 510 c 0
 247 510 239 515 239 525 c 0
EndSplineSet
Validated: 33
EndChar

StartChar: quoteleft
Encoding: 8216 8216 88
Width: 230
Flags: MW
HStem: 509 21G<101 119> 683 20G<151.5 159.5>
VStem: 77 66<542 563 533 567 533 595>
LayerCount: 2
Fore
SplineSet
171 688 m 0
 171 683 168 678 163 675 c 0
 127 655 113 633 116 598 c 1
 131 594 143 583 143 563 c 2
 143 542 l 2
 143 524 128 509 110 509 c 0
 92 509 77 524 77 542 c 2
 77 567 l 2
 77 623 86 653 104 671 c 0
 122 689 147 703 156 703 c 0
 163 703 171 698 171 688 c 0
EndSplineSet
Validated: 33
EndChar

StartChar: quoteright
Encoding: 8217 8217 89
Width: 230
Flags: MW
HStem: 510 21G<70.5 78.5> 684 20G<111 129>
VStem: 87 66<650 671 618 680>
LayerCount: 2
Fore
SplineSet
59 525 m 0
 59 530 62 535 67 538 c 0
 103 558 117 580 114 615 c 1
 99 619 87 630 87 650 c 2
 87 671 l 2
 87 689 102 704 120 704 c 0
 138 704 153 689 153 671 c 2
 153 646 l 2
 153 590 144 560 126 542 c 0
 108 524 83 510 74 510 c 0
 67 510 59 515 59 525 c 0
EndSplineSet
Validated: 33
EndChar

StartChar: grave
Encoding: 96 96 90
Width: 500
Flags: MW
HStem: 592 21G<279.5 289.5> 703 20G<195.5 211>
LayerCount: 2
Fore
SplineSet
286 592 m 0
 273 592 266 594 254 605 c 2
 174 682 l 2
 168 688 163 694 163 700 c 0
 163 710 186 723 205 723 c 0
 217 723 225 717 233 705 c 2
 295 612 l 2
 297 609 299 605 299 601 c 0
 299 596 293 592 286 592 c 0
EndSplineSet
Validated: 1
EndChar

StartChar: Ograve
Encoding: 210 210 91
Width: 850
Flags: MW
HStem: 0 49<331.5 411 331.5 504.5> 660 50<316.5 411 316.5 488> 710 213<374.5 390 374.5 411 374.5 411>
VStem: 73 49<355 355 355 355> 696 50<355 355 355 355>
LayerCount: 2
Fore
SplineSet
73 355 m 1xd8
 73 355 l 1
 74 159 222 0 411 0 c 1
 411 0 l 1
 598 0 745 159 746 355 c 1
 746 355 l 1
 745 551 598 710 411 710 c 1
 411 710 l 1
 222 710 74 551 73 355 c 1xd8
122 355 m 1
 122 355 l 1
 122 528 252 660 411 660 c 1
 411 660 l 1
 565 660 695 528 696 355 c 1
 696 355 l 1
 695 184 565 49 411 49 c 1
 411 49 l 1
 252 49 122 184 122 355 c 1
465 792 m 0
 452 792 445 794 433 805 c 2
 353 882 l 2
 347 888 342 894 342 900 c 0
 342 910 365 923 384 923 c 0xb8
 396 923 404 917 412 905 c 2
 474 812 l 2
 476 809 478 805 478 801 c 0
 478 796 472 792 465 792 c 0
EndSplineSet
Validated: 5
EndChar

StartChar: Ugrave
Encoding: 217 217 92
Width: 760
Flags: MW
HStem: 0 49<375 375 375 453.5> 680 20G<110.5 117 117 117 627.5 634 634 634> 903 20G<340.5 356>
VStem: 93 49<205 676 283 676 283 676> 610 49<218.5 676 283 676 283 676 283 676>
LayerCount: 2
Fore
SplineSet
93 283 m 1
 93 283 l 1
 93 127 220 0 375 0 c 1
 375 0 l 1
 532 0 659 127 659 283 c 2
 659 676 l 1
 659 676 l 1
 659 689 648 700 634 700 c 1
 634 700 l 1
 621 700 610 689 610 676 c 1
 610 676 l 1
 610 283 l 1
 610 283 l 1
 610 154 505 50 375 49 c 1
 375 49 l 1
 247 50 142 154 142 283 c 2
 142 676 l 1
 142 676 l 1
 142 689 131 700 117 700 c 1
 117 700 l 1
 104 700 93 689 93 676 c 2
 93 283 l 1
431 792 m 0
 418 792 411 794 399 805 c 2
 319 882 l 2
 313 888 308 894 308 900 c 0
 308 910 331 923 350 923 c 0
 362 923 370 917 378 905 c 2
 440 812 l 2
 442 809 444 805 444 801 c 0
 444 796 438 792 431 792 c 0
EndSplineSet
Validated: 5
EndChar

StartChar: ellipsis
Encoding: 8230 8230 93
Width: 680
Flags: MW
HStem: 0 100<118 146 345 373 572 600>
VStem: 82 100<36 64> 309 100<36 64> 536 100<36 64>
CounterMasks: 1 70
LayerCount: 2
Fore
SplineSet
82 50 m 0
 82 78 104 100 132 100 c 0
 160 100 182 78 182 50 c 0
 182 22 160 0 132 0 c 0
 104 0 82 22 82 50 c 0
309 50 m 0
 309 78 331 100 359 100 c 0
 387 100 409 78 409 50 c 0
 409 22 387 0 359 0 c 0
 331 0 309 22 309 50 c 0
536 50 m 0
 536 78 558 100 586 100 c 0
 614 100 636 78 636 50 c 0
 636 22 614 0 586 0 c 0
 558 0 536 22 536 50 c 0
EndSplineSet
Validated: 1
EndChar

StartChar: dieresis
Encoding: 168 168 94
Width: 500
Flags: MW
HStem: 594 86<164 188 329 353>
VStem: 133 86<625 649> 298 86<625 649>
LayerCount: 2
Fore
SplineSet
133 637 m 0
 133 661 152 680 176 680 c 0
 200 680 219 661 219 637 c 0
 219 613 200 594 176 594 c 0
 152 594 133 613 133 637 c 0
298 637 m 0
 298 661 317 680 341 680 c 0
 365 680 384 661 384 637 c 0
 384 613 365 594 341 594 c 0
 317 594 298 613 298 637 c 0
EndSplineSet
Validated: 1
EndChar

StartChar: agrave
Encoding: 224 224 95
Width: 574
Flags: MW
HStem: 0 48<245 332.5> 443 47<245 332.5 230.5 345.5> 681 20G<260.5 276>
VStem: 63 48<190 300 190 312> 479 48<24 97 97 97 190 300 394 466>
LayerCount: 2
Fore
SplineSet
503 490 m 0
 516 490 527 480 527 466 c 2
 527 24 l 2
 527 11 516 0 503 0 c 0
 490 0 479 11 479 24 c 2
 479 97 l 1
 437 39 370 0 295 0 c 0
 166 0 63 111 63 245 c 0
 63 379 166 490 295 490 c 0
 370 490 437 452 479 394 c 1
 479 466 l 2
 479 480 490 490 503 490 c 0
295 48 m 0
 396 48 479 135 479 245 c 0
 479 355 396 443 295 443 c 0
 195 443 111 355 111 245 c 0
 111 135 195 48 295 48 c 0
351 570 m 0
 338 570 331 572 319 583 c 2
 239 660 l 2
 233 666 228 672 228 678 c 0
 228 688 251 701 270 701 c 0
 282 701 290 695 298 683 c 2
 360 590 l 2
 362 587 364 583 364 579 c 0
 364 574 358 570 351 570 c 0
EndSplineSet
Validated: 1
EndChar

StartChar: ograve
Encoding: 242 242 96
Width: 640
Flags: MW
HStem: 0 48<240 290 240 354.5> 443 47<226 290 226 340> 490 211<254.5 270 254.5 290 254.5 290>
VStem: 58 48<178.5 245 245 245> 474 48<190.5 245 245 245>
LayerCount: 2
Fore
SplineSet
58 245 m 1xd8
 58 245 l 1
 58 112 162 0 290 0 c 1
 290 0 l 1
 419 0 522 112 522 245 c 1
 522 245 l 1
 522 378 419 490 290 490 c 1
 290 490 l 1
 162 490 58 378 58 245 c 1xd8
106 245 m 1
 106 245 l 1
 106 354 190 443 290 443 c 1
 290 443 l 1
 390 443 474 354 474 245 c 1
 474 245 l 1
 474 136 390 48 290 48 c 1
 290 48 l 1
 190 48 106 136 106 245 c 1
345 570 m 0
 332 570 325 572 313 583 c 2
 233 660 l 2
 227 666 222 672 222 678 c 0
 222 688 245 701 264 701 c 0xb8
 276 701 284 695 292 683 c 2
 354 590 l 2
 356 587 358 583 358 579 c 0
 358 574 352 570 345 570 c 0
EndSplineSet
Validated: 5
EndChar

StartChar: ugrave
Encoding: 249 249 97
Width: 613
Flags: MW
HStem: 0 48<281 281 281 337> 681 20G<246.5 262>
VStem: 83 48<145 467 200 467 200 467> 433 49<158 467 200 467 200 467 200 467>
LayerCount: 2
Fore
SplineSet
83 200 m 1
 83 200 l 1
 83 90 171 0 281 0 c 1
 281 0 l 1
 393 0 482 90 482 200 c 2
 482 467 l 1
 482 467 l 1
 482 481 471 491 457 491 c 1
 457 491 l 1
 445 491 433 481 433 467 c 1
 433 467 l 1
 433 200 l 1
 433 200 l 1
 433 116 365 49 281 48 c 1
 281 48 l 1
 198 49 131 116 131 200 c 2
 131 467 l 1
 131 467 l 1
 131 481 120 491 107 491 c 1
 107 491 l 1
 94 491 83 481 83 467 c 2
 83 200 l 1
337 570 m 0
 324 570 317 572 305 583 c 2
 225 660 l 2
 219 666 214 672 214 678 c 0
 214 688 237 701 256 701 c 0
 268 701 276 695 284 683 c 2
 346 590 l 2
 348 587 350 583 350 579 c 0
 350 574 344 570 337 570 c 0
EndSplineSet
Validated: 5
EndChar

StartChar: asciitilde
Encoding: 126 126 98
Width: 460
Flags: MW
HStem: 240 21G<98 108> 251 52<277 305 277 312> 292 52<155 183> 335 20G<352.5 362>
LayerCount: 2
Fore
SplineSet
121 254 m 0xa0
 118 248 113 240 103 240 c 0
 93 240 85 247 85 257 c 0
 85 260 86 266 87 269 c 0
 106 327 130 344 166 344 c 0xa0
 204 344 260 303 294 303 c 0
 316 303 327 314 339 341 c 0
 342 347 348 355 357 355 c 0
 367 355 375 348 375 338 c 0
 375 335 374 329 373 326 c 0
 354 268 330 251 294 251 c 0x50
 256 251 200 292 166 292 c 0
 144 292 133 281 121 254 c 0xa0
EndSplineSet
Validated: 1
EndChar

StartChar: tilde
Encoding: 732 732 99
Width: 500
Flags: MW
HStem: 584 21G<118 128> 595 52<297 325 297 332> 636 52<175 203> 679 20G<372.5 382>
LayerCount: 2
Fore
SplineSet
141 598 m 0xa0
 138 592 133 584 123 584 c 0
 113 584 105 591 105 601 c 0
 105 604 106 610 107 613 c 0
 126 671 150 688 186 688 c 0xa0
 224 688 280 647 314 647 c 0
 336 647 347 658 359 685 c 0
 362 691 368 699 377 699 c 0
 387 699 395 692 395 682 c 0
 395 679 394 673 393 670 c 0
 374 612 350 595 314 595 c 0x50
 276 595 220 636 186 636 c 0
 164 636 153 625 141 598 c 0xa0
EndSplineSet
Validated: 1
EndChar

StartChar: Ntilde
Encoding: 209 209 100
Width: 790
Flags: MW
HStem: 0 21G<124.5 137.5 594 605> 795 52<411 439 411 446> 836 52<289 317> 879 20G<486.5 496>
VStem: 107 48<17.5 597 24 597 24 666> 574 49<99 669 99 99>
LayerCount: 2
Fore
SplineSet
575 13 m 2xac
 576 11 578 10 579 9 c 0
 584 3 590 0 598 0 c 0
 612 0 623 11 623 24 c 2
 623 669 l 2
 623 682 612 693 598 693 c 0
 585 693 574 682 574 669 c 2
 574 99 l 1
 150 687 l 2
 143 698 127 700 116 693 c 1
 107 686 104 676 107 666 c 1
 107 24 l 2
 107 11 118 0 131 0 c 0
 144 0 155 11 155 24 c 2
 155 597 l 1
 575 13 l 2xac
255 798 m 0
 252 792 247 784 237 784 c 0
 227 784 219 791 219 801 c 0
 219 804 220 810 221 813 c 0
 240 871 264 888 300 888 c 0xac
 338 888 394 847 428 847 c 0
 450 847 461 858 473 885 c 0
 476 891 482 899 491 899 c 0
 501 899 509 892 509 882 c 0
 509 879 508 873 507 870 c 0
 488 812 464 795 428 795 c 0xdc
 390 795 334 836 300 836 c 0
 278 836 267 825 255 798 c 0
EndSplineSet
Validated: 41
EndChar

StartChar: ntilde
Encoding: 241 241 101
Width: 613
Flags: MW
HStem: 0 21G<112 118 118 121.5 461.5 474.5> 441 48<262.5 335> 571 52<341 369 341 376> 612 52<219 247> 655 20G<416.5 426>
VStem: 94 47<20 24 20 24 18 24 24 290 418 465> 444 48<17 290 24 290>
LayerCount: 2
Fore
SplineSet
444 24 m 2xd6
 444 10 455 0 468 0 c 0
 481 0 492 10 492 24 c 2
 492 290 l 2
 492 399 403 489 293 489 c 0
 232 489 177 461 141 418 c 1
 141 465 l 2
 141 478 131 489 118 489 c 0
 104 489 94 478 94 465 c 2
 94 298 l 1
 94 290 l 1
 94 24 l 1
 94 18 l 1
 94 18 95 17 95 16 c 0
 95 15 95 14 96 13 c 0
 99 7 105 2 112 0 c 1
 118 0 l 2
 125 0 132 3 136 9 c 0
 139 12 140 16 141 20 c 1
 141 24 l 1
 141 290 l 1
 143 373 210 441 293 441 c 0
 377 441 444 373 444 290 c 2
 444 24 l 2xd6
185 574 m 0
 182 568 177 560 167 560 c 0
 157 560 149 567 149 577 c 0
 149 580 150 586 151 589 c 0
 170 647 194 664 230 664 c 0xd6
 268 664 324 623 358 623 c 0
 380 623 391 634 403 661 c 0
 406 667 412 675 421 675 c 0
 431 675 439 668 439 658 c 0
 439 655 438 649 437 646 c 0
 418 588 394 571 358 571 c 0xee
 320 571 264 612 230 612 c 0
 208 612 197 601 185 574 c 0
EndSplineSet
Validated: 9
EndChar

StartChar: numbersign
Encoding: 35 35 102
Width: 700
Flags: MW
HStem: -4 238<155.5 170.5 410.5 425.5> 187 47<62.5 178 69 170 69 218 226 425 481 590> 470 47<102.5 227 109 219 109 267 275 474 530 630> 470 234<102.5 288.5 109 288.5 267 288.5 273.5 288.5 273.5 474 273.5 522 528.5 543.5>
LayerCount: 2
Fore
SplineSet
142 25 m 2xa0
 170 187 l 1
 69 187 l 2x60
 56 187 45 197 45 210 c 0
 45 223 56 234 69 234 c 2
 178 234 l 1
 219 470 l 1
 109 470 l 2
 96 470 85 480 85 493 c 0
 85 506 96 517 109 517 c 2
 227 517 l 1xa0
 255 682 l 2
 257 695 267 704 280 704 c 0x90
 297 704 304 689 302 675 c 2
 275 517 l 1
 482 517 l 1xa0
 510 682 l 2
 512 695 522 704 535 704 c 0x90
 552 704 559 689 557 675 c 2
 530 517 l 1
 630 517 l 2
 643 517 654 507 654 494 c 0
 654 481 643 470 630 470 c 2
 522 470 l 1
 481 234 l 1
 590 234 l 2
 603 234 614 224 614 211 c 0
 614 198 603 187 590 187 c 2
 473 187 l 1x60
 444 18 l 2
 442 5 432 -4 419 -4 c 0xa0
 402 -4 395 11 397 25 c 2
 425 187 l 1
 218 187 l 1x60
 189 18 l 2
 187 5 177 -4 164 -4 c 0
 147 -4 140 11 142 25 c 2xa0
226 234 m 1
 433 234 l 1
 474 470 l 1
 267 470 l 1
 226 234 l 1
EndSplineSet
Validated: 33
EndChar

StartChar: dollar
Encoding: 36 36 103
Width: 632
Flags: MW
HStem: -102 147<314.5 343> 0 45<343 345> 655 45<297 299> 655 107<299 327.5>
VStem: 87 51<489 559 489 569.5> 299 44<46 321 45 331 45 331 382 652> 508 51<143 215.5>
LayerCount: 2
Fore
SplineSet
297 738 m 2xae
 297 751 308 762 321 762 c 0
 334 762 345 751 345 738 c 2
 345 698 l 1
 417 692 469 668 523 628 c 0
 532 621 537 615 537 605 c 0
 537 591 525 580 511 580 c 0
 505 580 500 581 493 587 c 0
 444 626 396 646 343 652 c 1
 343 372 l 1
 495 340 559 283 559 185 c 0
 559 79 470 4 345 0 c 1x5e
 345 -78 l 2
 345 -91 334 -102 321 -102 c 0
 308 -102 297 -91 297 -78 c 2
 297 1 l 1
 210 8 139 40 72 98 c 0
 65 104 61 110 61 119 c 0
 61 132 73 144 86 144 c 0
 95 144 101 140 104 137 c 0
 160 85 221 54 299 46 c 1
 299 331 l 1
 149 364 87 419 87 519 c 0
 87 620 175 697 297 700 c 1
 297 738 l 2xae
508 181 m 0
 508 250 473 292 343 321 c 1
 343 45 l 1
 443 47 508 105 508 181 c 0
138 523 m 0
 138 455 170 413 299 382 c 1
 299 655 l 1
 202 653 138 595 138 523 c 0
EndSplineSet
Validated: 1
EndChar

StartChar: percent
Encoding: 65536 -1 104
Width: 824
Flags: MW
HStem: -8 43<588 645.5 588 660.5> 307 43<584.5 642> 350 43<182 239.5 182 254.5> 665 43<178.5 236>
VStem: 55 52<527 529 529 531 489.5 576> 311 52<527 529 529 531 482 568> 461 52<169 171 171 173 131.5 218> 717 52<169 171 171 173 124 210>
LayerCount: 2
Fore
SplineSet
208 350 m 0xdf
 116 350 55 434 55 527 c 2
 55 529 l 2
 55 623 117 708 210 708 c 0
 302 708 363 623 363 531 c 2
 363 529 l 2
 363 435 301 350 208 350 c 0xdf
146 17 m 0
 146 22 147 26 150 30 c 2
 637 693 l 2
 642 700 648 704 656 704 c 0
 668 704 678 695 678 683 c 0
 678 678 677 674 674 670 c 2
 187 7 l 2
 182 0 176 -4 168 -4 c 0
 156 -4 146 5 146 17 c 0
614 -8 m 0
 522 -8 461 76 461 169 c 2
 461 171 l 2
 461 265 523 350 616 350 c 0
 708 350 769 265 769 173 c 2
 769 171 l 2
 769 77 707 -8 614 -8 c 0
210 393 m 0xbf
 269 393 311 452 311 527 c 2
 311 529 l 2
 311 607 264 665 208 665 c 0
 149 665 107 604 107 531 c 2
 107 529 l 2
 107 450 154 393 210 393 c 0xbf
616 35 m 0
 675 35 717 94 717 169 c 2
 717 171 l 2
 717 249 670 307 614 307 c 0xdf
 555 307 513 246 513 173 c 2
 513 171 l 2
 513 92 560 35 616 35 c 0
EndSplineSet
Validated: 1
EndChar

StartChar: bracketleft
Encoding: 91 91 105
Width: 430
Flags: MW
HStem: -130 38<117 356 144 356 144 356> 662 38<144 356 144 144>
VStem: 98 46<-92 662 -92 674 -92 681>
LayerCount: 2
Fore
SplineSet
98 -104 m 2
 98 674 l 2
 98 688 110 700 124 700 c 2
 356 700 l 2
 366 700 375 691 375 681 c 0
 375 671 366 662 356 662 c 2
 144 662 l 1
 144 -92 l 1
 356 -92 l 2
 366 -92 375 -101 375 -111 c 0
 375 -121 366 -130 356 -130 c 2
 124 -130 l 2
 110 -130 98 -118 98 -104 c 2
EndSplineSet
Validated: 1
EndChar

StartChar: bracketright
Encoding: 93 93 106
Width: 430
Flags: MW
HStem: -130 38<69 286 74 286 74 306> 662 38<69 306 74 286>
VStem: 286 46<-92 662 662 662>
LayerCount: 2
Fore
SplineSet
332 674 m 2
 332 -104 l 2
 332 -118 320 -130 306 -130 c 2
 74 -130 l 2
 64 -130 55 -121 55 -111 c 0
 55 -101 64 -92 74 -92 c 2
 286 -92 l 1
 286 662 l 1
 74 662 l 2
 64 662 55 671 55 681 c 0
 55 691 64 700 74 700 c 2
 306 700 l 2
 320 700 332 688 332 674 c 2
EndSplineSet
Validated: 1
EndChar

StartChar: asciicircum
Encoding: 94 94 107
Width: 500
Flags: MW
HStem: 489 21G<89.5 101.5 397 410> 687 20G<246 254 254 260>
LayerCount: 2
Fore
SplineSet
249 660 m 1
 129 503 l 2
 121 492 109 489 94 489 c 0
 85 489 80 495 80 500 c 0
 80 504 81 507 85 513 c 2
 218 689 l 2
 227 700 234 707 246 707 c 2
 254 707 l 2
 266 707 273 700 282 689 c 2
 415 513 l 2
 419 507 420 504 420 500 c 0
 420 495 415 489 405 489 c 0
 389 489 377 492 369 503 c 2
 249 660 l 1
EndSplineSet
Validated: 1
EndChar

StartChar: braceleft
Encoding: 123 123 108
Width: 480
Flags: MW
HStem: 268 38<71 130.5>
VStem: 205 49<62 68 68 141 141 143 433 506>
LayerCount: 2
Fore
SplineSet
406 -139 m 0
 237 -105 205 -41 205 62 c 2
 205 141 l 2
 205 219 182 268 79 268 c 0
 63 268 55 276 55 287 c 0
 55 298 63 306 79 306 c 0
 182 306 205 355 205 433 c 2
 205 512 l 2
 205 615 237 679 406 713 c 0
 417 715 427 709 427 697 c 0
 427 689 421 683 415 681 c 0
 270 643 254 605 254 506 c 2
 254 431 l 2
 254 342 213 306 150 287 c 1
 217 265 254 232 254 143 c 2
 254 68 l 2
 254 -31 270 -69 415 -107 c 0
 421 -109 427 -115 427 -123 c 0
 427 -135 417 -141 406 -139 c 0
EndSplineSet
Validated: 1
EndChar

StartChar: braceright
Encoding: 125 125 109
Width: 480
Flags: MW
HStem: 268 38<349.5 409>
VStem: 226 49<68 141 431 433 433 506 506 512>
LayerCount: 2
Fore
SplineSet
74 713 m 0
 243 679 275 615 275 512 c 2
 275 433 l 2
 275 355 298 306 401 306 c 0
 417 306 425 298 425 287 c 0
 425 276 417 268 401 268 c 0
 298 268 275 219 275 141 c 2
 275 62 l 2
 275 -41 243 -105 74 -139 c 0
 63 -141 53 -135 53 -123 c 0
 53 -115 59 -109 65 -107 c 0
 210 -69 226 -31 226 68 c 2
 226 143 l 2
 226 232 267 268 330 287 c 1
 263 309 226 342 226 431 c 2
 226 506 l 2
 226 605 210 643 65 681 c 0
 59 683 53 689 53 697 c 0
 53 709 63 715 74 713 c 0
EndSplineSet
Validated: 1
EndChar

StartChar: bar
Encoding: 124 124 110
Width: 286
Flags: MW
HStem: -132 21G<137 149> 782 20G<137 149>
VStem: 121 44<-110 780>
LayerCount: 2
Fore
SplineSet
121 -110 m 2
 121 780 l 2
 121 792 131 802 143 802 c 0
 155 802 165 792 165 780 c 2
 165 -110 l 2
 165 -122 155 -132 143 -132 c 0
 131 -132 121 -122 121 -110 c 2
EndSplineSet
Validated: 1
EndChar

StartChar: questiondown
Encoding: 191 191 111
Width: 534
Flags: MW
HStem: 0 47<213.5 245 213.5 304.5> 680 20G<239 251.5>
VStem: 222 47<409 538 410 538 431 538 431 538 431 544.5 655 677> 414 47<169.5 263.5>
LayerCount: 2
Fore
SplineSet
222 538 m 2
 222 551 233 561 245 561 c 0
 258 561 269 551 269 538 c 2
 269 431 l 1
 377 419 461 327 461 217 c 0
 461 97 364 0 245 0 c 0
 165 0 96 43 59 108 c 0
 52 119 55 133 67 140 c 0
 78 147 93 142 99 132 c 0
 128 80 182 47 245 47 c 0
 339 48 414 122 414 217 c 0
 414 310 339 386 245 386 c 0
 233 386 222 396 222 409 c 2
 222 410 l 1
 222 413 l 1
 222 538 l 2
222 677 m 2
 222 690 233 700 245 700 c 0
 258 700 269 690 269 677 c 2
 269 655 l 2
 269 642 258 631 245 631 c 0
 233 631 222 642 222 655 c 2
 222 677 l 2
EndSplineSet
Validated: 33
EndChar

StartChar: trademark
Encoding: 8482 8482 112
Width: 690
Flags: MW
HStem: 400 21G<130.5 136 306 312 537 543> 679 21<29.5 234 32 123 143 143 143 234>
VStem: 123 20<410 679> 298 21<410 657> 530 21<410 657 657 657>
LayerCount: 2
Fore
SplineSet
123 410 m 2
 123 679 l 1
 32 679 l 2
 27 679 22 684 22 690 c 0
 22 695 27 700 32 700 c 2
 234 700 l 2
 240 700 244 695 244 690 c 0
 244 684 240 679 234 679 c 2
 143 679 l 1
 143 410 l 2
 143 404 139 400 133 400 c 0
 128 400 123 404 123 410 c 2
530 410 m 2
 530 657 l 1
 434 524 l 2
 432 520 428 519 425 519 c 2
 424 519 l 2
 421 519 418 520 415 524 c 2
 319 657 l 1
 319 410 l 2
 319 404 315 400 309 400 c 0
 303 400 298 404 298 410 c 2
 298 688 l 2
 298 691 300 694 303 696 c 0
 303 697 303 697 303 697 c 1
 308 700 315 699 318 694 c 2
 425 546 l 1
 531 694 l 2
 534 699 541 700 546 697 c 0
 547 696 548 695 549 694 c 0
 550 692 551 690 551 688 c 2
 551 410 l 2
 551 404 546 400 540 400 c 0
 534 400 530 404 530 410 c 2
EndSplineSet
Validated: 1
EndChar

StartChar: circumflex
Encoding: 710 710 113
Width: 500
Flags: MW
HStem: 592 21G<150 160.5 338.5 349.5> 700 20G<246 254 254 260>
LayerCount: 2
Fore
SplineSet
249 663 m 1
 186 605 l 2
 174 594 167 592 154 592 c 0
 146 592 141 597 141 602 c 0
 141 606 142 609 146 614 c 2
 218 702 l 2
 227 713 234 720 246 720 c 2
 254 720 l 2
 266 720 273 713 282 702 c 2
 354 614 l 2
 358 609 359 606 359 602 c 0
 359 597 354 592 345 592 c 0
 332 592 324 594 312 605 c 2
 249 663 l 1
EndSplineSet
Validated: 1
EndChar

StartChar: ocircumflex
Encoding: 244 244 114
Width: 640
Flags: MW
HStem: 0 48<240 290 240 354.5> 443 47<226 290 226 340> 443 127<190 290 190 340> 678 20G<286 294 294 300>
VStem: 58 48<178.5 245 245 245> 474 48<190.5 245 245 245>
LayerCount: 2
Fore
SplineSet
58 245 m 1xdc
 58 245 l 1
 58 112 162 0 290 0 c 1
 290 0 l 1
 419 0 522 112 522 245 c 1
 522 245 l 1
 522 378 419 490 290 490 c 1
 290 490 l 1
 162 490 58 378 58 245 c 1xdc
106 245 m 1
 106 245 l 1
 106 354 190 443 290 443 c 1
 290 443 l 1
 390 443 474 354 474 245 c 1
 474 245 l 1
 474 136 390 48 290 48 c 1
 290 48 l 1
 190 48 106 136 106 245 c 1
289 641 m 1
 226 583 l 2
 214 572 207 570 194 570 c 0
 186 570 181 575 181 580 c 0
 181 584 182 587 186 592 c 2
 258 680 l 2
 267 691 274 698 286 698 c 2
 294 698 l 2
 306 698 313 691 322 680 c 2
 394 592 l 2
 398 587 399 584 399 580 c 0
 399 575 394 570 385 570 c 0xbc
 372 570 364 572 352 583 c 2
 289 641 l 1
EndSplineSet
Validated: 5
EndChar

StartChar: acute
Encoding: 180 180 115
Width: 500
Flags: MW
HStem: 592 21G<210.5 220.5> 703 20G<289 304.5>
LayerCount: 2
Fore
SplineSet
214 592 m 0
 207 592 201 596 201 601 c 0
 201 605 203 609 205 612 c 2
 267 705 l 2
 275 717 283 723 295 723 c 0
 314 723 337 710 337 700 c 0
 337 694 332 688 326 682 c 2
 246 605 l 2
 234 594 227 592 214 592 c 0
EndSplineSet
Validated: 1
EndChar

StartChar: oacute
Encoding: 243 243 116
Width: 640
Flags: MW
HStem: 0 48<240 290 240 354.5> 443 47<226 290 226 340> 490 211<226 327.5 290 327.5>
VStem: 58 48<178.5 245 245 245> 474 48<190.5 245 245 245>
LayerCount: 2
Fore
SplineSet
58 245 m 1xd8
 58 245 l 1
 58 112 162 0 290 0 c 1
 290 0 l 1
 419 0 522 112 522 245 c 1
 522 245 l 1
 522 378 419 490 290 490 c 1
 290 490 l 1
 162 490 58 378 58 245 c 1xd8
106 245 m 1
 106 245 l 1
 106 354 190 443 290 443 c 1
 290 443 l 1
 390 443 474 354 474 245 c 1
 474 245 l 1
 474 136 390 48 290 48 c 1
 290 48 l 1
 190 48 106 136 106 245 c 1
237 570 m 0
 230 570 224 574 224 579 c 0
 224 583 226 587 228 590 c 2
 290 683 l 2
 298 695 306 701 318 701 c 0xb8
 337 701 360 688 360 678 c 0
 360 672 355 666 349 660 c 2
 269 583 l 2
 257 572 250 570 237 570 c 0
EndSplineSet
Validated: 5
EndChar

StartChar: otilde
Encoding: 245 245 117
Width: 640
Flags: MW
HStem: 0 48<240 290 240 354.5> 443 47<226 290 226 340> 581 52<337 365 337 372> 622 52<215 243> 665 20G<412.5 422>
VStem: 58 48<178.5 245 245 245> 474 48<190.5 245 245 245>
LayerCount: 2
Fore
SplineSet
58 245 m 1xd6
 58 245 l 1
 58 112 162 0 290 0 c 1
 290 0 l 1
 419 0 522 112 522 245 c 1
 522 245 l 1
 522 378 419 490 290 490 c 1
 290 490 l 1
 162 490 58 378 58 245 c 1xd6
106 245 m 1
 106 245 l 1
 106 354 190 443 290 443 c 1
 290 443 l 1
 390 443 474 354 474 245 c 1
 474 245 l 1
 474 136 390 48 290 48 c 1
 290 48 l 1
 190 48 106 136 106 245 c 1
181 584 m 0
 178 578 173 570 163 570 c 0
 153 570 145 577 145 587 c 0
 145 590 146 596 147 599 c 0
 166 657 190 674 226 674 c 0xd6
 264 674 320 633 354 633 c 0
 376 633 387 644 399 671 c 0
 402 677 408 685 417 685 c 0
 427 685 435 678 435 668 c 0
 435 665 434 659 433 656 c 0
 414 598 390 581 354 581 c 0xee
 316 581 260 622 226 622 c 0
 204 622 193 611 181 584 c 0
EndSplineSet
Validated: 5
EndChar

StartChar: aacute
Encoding: 225 225 118
Width: 574
Flags: MW
HStem: 0 48<245 332.5> 443 47<245 332.5 230.5 345.5> 681 20G<315 330.5>
VStem: 63 48<190 300 190 312> 479 48<24 97 97 97 190 300 394 466>
LayerCount: 2
Fore
SplineSet
503 490 m 0
 516 490 527 480 527 466 c 2
 527 24 l 2
 527 11 516 0 503 0 c 0
 490 0 479 11 479 24 c 2
 479 97 l 1
 437 39 370 0 295 0 c 0
 166 0 63 111 63 245 c 0
 63 379 166 490 295 490 c 0
 370 490 437 452 479 394 c 1
 479 466 l 2
 479 480 490 490 503 490 c 0
295 48 m 0
 396 48 479 135 479 245 c 0
 479 355 396 443 295 443 c 0
 195 443 111 355 111 245 c 0
 111 135 195 48 295 48 c 0
240 570 m 0
 233 570 227 574 227 579 c 0
 227 583 229 587 231 590 c 2
 293 683 l 2
 301 695 309 701 321 701 c 0
 340 701 363 688 363 678 c 0
 363 672 358 666 352 660 c 2
 272 583 l 2
 260 572 253 570 240 570 c 0
EndSplineSet
Validated: 1
EndChar

StartChar: acircumflex
Encoding: 226 226 119
Width: 574
Flags: MW
HStem: 0 48<245 332.5> 443 47<245 332.5 230.5 345.5> 490 80<195 332.5> 678 20G<291 299 299 305>
VStem: 63 48<190 300 190 312> 479 48<24 97 97 97 190 300 394 466>
LayerCount: 2
Fore
SplineSet
503 490 m 0xdc
 516 490 527 480 527 466 c 2
 527 24 l 2
 527 11 516 0 503 0 c 0
 490 0 479 11 479 24 c 2
 479 97 l 1
 437 39 370 0 295 0 c 0
 166 0 63 111 63 245 c 0
 63 379 166 490 295 490 c 0
 370 490 437 452 479 394 c 1
 479 466 l 2
 479 480 490 490 503 490 c 0xdc
295 48 m 0
 396 48 479 135 479 245 c 0
 479 355 396 443 295 443 c 0
 195 443 111 355 111 245 c 0
 111 135 195 48 295 48 c 0
294 641 m 1
 231 583 l 2
 219 572 212 570 199 570 c 0
 191 570 186 575 186 580 c 0
 186 584 187 587 191 592 c 2
 263 680 l 2
 272 691 279 698 291 698 c 2
 299 698 l 2
 311 698 318 691 327 680 c 2
 399 592 l 2
 403 587 404 584 404 580 c 0
 404 575 399 570 390 570 c 0xbc
 377 570 369 572 357 583 c 2
 294 641 l 1
EndSplineSet
Validated: 1
EndChar

StartChar: atilde
Encoding: 227 227 120
Width: 574
Flags: MW
HStem: 0 48<245 332.5> 443 47<245 332.5 230.5 345.5> 581 52<342 370 342 377> 622 52<220 248> 665 20G<417.5 427>
VStem: 63 48<190 300 190 312> 479 48<24 97 97 97 190 300 394 466>
LayerCount: 2
Fore
SplineSet
503 490 m 0xd6
 516 490 527 480 527 466 c 2
 527 24 l 2
 527 11 516 0 503 0 c 0
 490 0 479 11 479 24 c 2
 479 97 l 1
 437 39 370 0 295 0 c 0
 166 0 63 111 63 245 c 0
 63 379 166 490 295 490 c 0
 370 490 437 452 479 394 c 1
 479 466 l 2
 479 480 490 490 503 490 c 0xd6
295 48 m 0
 396 48 479 135 479 245 c 0
 479 355 396 443 295 443 c 0
 195 443 111 355 111 245 c 0
 111 135 195 48 295 48 c 0
186 584 m 0
 183 578 178 570 168 570 c 0
 158 570 150 577 150 587 c 0
 150 590 151 596 152 599 c 0
 171 657 195 674 231 674 c 0xd6
 269 674 325 633 359 633 c 0
 381 633 392 644 404 671 c 0
 407 677 413 685 422 685 c 0
 432 685 440 678 440 668 c 0
 440 665 439 659 438 656 c 0
 419 598 395 581 359 581 c 0xee
 321 581 265 622 231 622 c 0
 209 622 198 611 186 584 c 0
EndSplineSet
Validated: 1
EndChar

StartChar: Igrave
Encoding: 204 204 121
Width: 348
Flags: MW
HStem: 0 21G<215 215 215 222> 680 20G<208.5 215 215 215> 903 20G<180.5 196>
VStem: 191 49<17.5 676 24 676 24 676>
LayerCount: 2
Fore
SplineSet
191 24 m 1
 191 24 l 1
 191 11 202 0 215 0 c 1
 215 0 l 1
 229 0 240 11 240 24 c 2
 240 676 l 1
 240 676 l 1
 240 689 229 700 215 700 c 1
 215 700 l 1
 202 700 191 689 191 676 c 2
 191 24 l 1
271 792 m 0
 258 792 251 794 239 805 c 2
 159 882 l 2
 153 888 148 894 148 900 c 0
 148 910 171 923 190 923 c 0
 202 923 210 917 218 905 c 2
 280 812 l 2
 282 809 284 805 284 801 c 0
 284 796 278 792 271 792 c 0
EndSplineSet
Validated: 5
EndChar

StartChar: Iacute
Encoding: 205 205 122
Width: 274
Flags: MW
HStem: 0 21G<151 151 151 158> 680 20G<144.5 151 151 151> 903 20G<171 186.5>
VStem: 127 49<17.5 676 24 676 24 676>
LayerCount: 2
Fore
SplineSet
127 24 m 1
 127 24 l 1
 127 11 138 0 151 0 c 1
 151 0 l 1
 165 0 176 11 176 24 c 2
 176 676 l 1
 176 676 l 1
 176 689 165 700 151 700 c 1
 151 700 l 1
 138 700 127 689 127 676 c 2
 127 24 l 1
96 792 m 0
 89 792 83 796 83 801 c 0
 83 805 85 809 87 812 c 2
 149 905 l 2
 157 917 165 923 177 923 c 0
 196 923 219 910 219 900 c 0
 219 894 214 888 208 882 c 2
 128 805 l 2
 116 794 109 792 96 792 c 0
EndSplineSet
Validated: 5
EndChar

StartChar: Icircumflex
Encoding: 206 206 123
Width: 274
Flags: MW
HStem: 0 21G<110 110 110 117> 680 20G<103.5 110 110 110> 900 20G<106 114 114 120>
VStem: 86 49<17.5 676 24 676 24 676>
LayerCount: 2
Fore
SplineSet
86 24 m 1
 86 24 l 1
 86 11 97 0 110 0 c 1
 110 0 l 1
 124 0 135 11 135 24 c 2
 135 676 l 1
 135 676 l 1
 135 689 124 700 110 700 c 1
 110 700 l 1
 97 700 86 689 86 676 c 2
 86 24 l 1
109 863 m 1
 46 805 l 2
 34 794 27 792 14 792 c 0
 6 792 1 797 1 802 c 0
 1 806 2 809 6 814 c 2
 78 902 l 2
 87 913 94 920 106 920 c 2
 114 920 l 2
 126 920 133 913 142 902 c 2
 214 814 l 2
 218 809 219 806 219 802 c 0
 219 797 214 792 205 792 c 0
 192 792 184 794 172 805 c 2
 109 863 l 1
EndSplineSet
Validated: 5
EndChar

StartChar: Acircumflex
Encoding: 194 194 124
Width: 664
Flags: MW
HStem: 0 21G<83 89 568.5 574.5> 1 21G<75 76.5 580 582> 181 49<187 187 187 470> 900 20G<325 333 333 339>
LayerCount: 2
Fore
SplineSet
550 16 m 2xb0
 554 6 564 0 573 0 c 0xb0
 576 0 578 1 582 1 c 1
 594 6 600 21 595 33 c 2
 352 682 l 2
 349 691 339 697 328 697 c 0
 318 697 308 691 304 682 c 2
 61 33 l 2
 56 21 63 6 75 1 c 1x70
 78 1 82 0 84 0 c 0
 94 0 103 6 107 16 c 2
 169 181 l 1
 488 181 l 1
 550 16 l 2xb0
187 230 m 1
 329 606 l 1
 470 230 l 1
 187 230 l 1
328 863 m 1
 265 805 l 2
 253 794 246 792 233 792 c 0
 225 792 220 797 220 802 c 0
 220 806 221 809 225 814 c 2
 297 902 l 2
 306 913 313 920 325 920 c 2
 333 920 l 2
 345 920 352 913 361 902 c 2
 433 814 l 2
 437 809 438 806 438 802 c 0
 438 797 433 792 424 792 c 0
 411 792 403 794 391 805 c 2
 328 863 l 1
EndSplineSet
Validated: 41
EndChar

StartChar: Atilde
Encoding: 195 195 125
Width: 664
Flags: MW
HStem: 0 21G<83 89 568.5 574.5> 1 21G<75 76.5 580 582> 795 52<376 404 376 411> 836 52<254 282> 879 20G<451.5 461>
LayerCount: 2
Fore
SplineSet
550 16 m 2x90
 554 6 564 0 573 0 c 0x90
 576 0 578 1 582 1 c 1
 594 6 600 21 595 33 c 2
 352 682 l 2
 349 691 339 697 328 697 c 0
 318 697 308 691 304 682 c 2
 61 33 l 2
 56 21 63 6 75 1 c 1x50
 78 1 82 0 84 0 c 0
 94 0 103 6 107 16 c 2
 169 181 l 1
 488 181 l 1
 550 16 l 2x90
187 230 m 1
 329 606 l 1
 470 230 l 1
 187 230 l 1
220 798 m 0
 217 792 212 784 202 784 c 0
 192 784 184 791 184 801 c 0
 184 804 185 810 186 813 c 0
 205 871 229 888 265 888 c 0x90
 303 888 359 847 393 847 c 0
 415 847 426 858 438 885 c 0
 441 891 447 899 456 899 c 0
 466 899 474 892 474 882 c 0
 474 879 473 873 472 870 c 0
 453 812 429 795 393 795 c 0xa8
 355 795 299 836 265 836 c 0
 243 836 232 825 220 798 c 0
EndSplineSet
Validated: 41
EndChar

StartChar: uacute
Encoding: 250 250 126
Width: 613
Flags: MW
HStem: 0 48<281 281 281 337> 681 20G<302 317.5>
VStem: 83 48<145 467 200 467 200 467> 433 49<158 467 200 467 200 467 200 467>
LayerCount: 2
Fore
SplineSet
83 200 m 1
 83 200 l 1
 83 90 171 0 281 0 c 1
 281 0 l 1
 393 0 482 90 482 200 c 2
 482 467 l 1
 482 467 l 1
 482 481 471 491 457 491 c 1
 457 491 l 1
 445 491 433 481 433 467 c 1
 433 467 l 1
 433 200 l 1
 433 200 l 1
 433 116 365 49 281 48 c 1
 281 48 l 1
 198 49 131 116 131 200 c 2
 131 467 l 1
 131 467 l 1
 131 481 120 491 107 491 c 1
 107 491 l 1
 94 491 83 481 83 467 c 2
 83 200 l 1
227 570 m 0
 220 570 214 574 214 579 c 0
 214 583 216 587 218 590 c 2
 280 683 l 2
 288 695 296 701 308 701 c 0
 327 701 350 688 350 678 c 0
 350 672 345 666 339 660 c 2
 259 583 l 2
 247 572 240 570 227 570 c 0
EndSplineSet
Validated: 5
EndChar

StartChar: ucircumflex
Encoding: 251 251 127
Width: 613
Flags: MW
HStem: 0 48<281 281 281 337> 678 20G<279 287 287 293>
VStem: 83 48<145 467 200 467 200 467> 433 49<158 467 200 467 200 467 200 467>
LayerCount: 2
Fore
SplineSet
83 200 m 1
 83 200 l 1
 83 90 171 0 281 0 c 1
 281 0 l 1
 393 0 482 90 482 200 c 2
 482 467 l 1
 482 467 l 1
 482 481 471 491 457 491 c 1
 457 491 l 1
 445 491 433 481 433 467 c 1
 433 467 l 1
 433 200 l 1
 433 200 l 1
 433 116 365 49 281 48 c 1
 281 48 l 1
 198 49 131 116 131 200 c 2
 131 467 l 1
 131 467 l 1
 131 481 120 491 107 491 c 1
 107 491 l 1
 94 491 83 481 83 467 c 2
 83 200 l 1
282 641 m 1
 219 583 l 2
 207 572 200 570 187 570 c 0
 179 570 174 575 174 580 c 0
 174 584 175 587 179 592 c 2
 251 680 l 2
 260 691 267 698 279 698 c 2
 287 698 l 2
 299 698 306 691 315 680 c 2
 387 592 l 2
 391 587 392 584 392 580 c 0
 392 575 387 570 378 570 c 0
 365 570 357 572 345 583 c 2
 282 641 l 1
EndSplineSet
Validated: 5
EndChar

StartChar: florin
Encoding: 402 402 128
Width: 506
Flags: MW
HStem: -5 44<81 108.5 77.5 129> 384 45<122 226 128 218 280 416> 661 44<372.5 406.5 355 413>
LayerCount: 2
Fore
SplineSet
94 -5 m 0
 68 -5 56 4 56 17 c 0
 56 32 68 39 87 39 c 0
 130 39 159 65 169 121 c 2
 218 384 l 1
 128 384 l 2
 116 384 105 394 105 406 c 0
 105 419 116 429 128 429 c 2
 226 429 l 1
 252 565 l 2
 271 664 315 705 395 705 c 0
 418 705 434 704 454 699 c 0
 467 696 474 688 474 676 c 0
 474 664 464 655 452 655 c 0
 445 655 426 661 400 661 c 0
 345 661 318 633 305 562 c 2
 280 429 l 1
 416 429 l 2
 428 429 439 418 439 406 c 0
 439 394 428 384 416 384 c 2
 272 384 l 1
 222 118 l 2
 206 35 164 -5 94 -5 c 0
EndSplineSet
Validated: 1
EndChar

StartChar: oe
Encoding: 339 339 129
Width: 1055
Flags: MW
HStem: 0 48<239 337 671 753> 236 49<532 905 532 933 529 905> 442 50
VStem: 58 48<190 299.5 190 311.5> 473 56<236 236 236 299.5>
LayerCount: 2
Fore
SplineSet
720 0 m 0
 622 0 538 60 501 146 c 1
 466 60 385 0 289 0 c 0
 161 0 58 111 58 245 c 0
 58 378 161 489 289 489 c 0
 384 489 465 429 501 344 c 1
 538 431 622 492 720 492 c 0
 846 492 947 391 957 264 c 1
 957 260 l 2
 957 247 946 236 933 236 c 2
 529 236 l 1
 534 129 618 48 720 48 c 0
 786 48 845 83 878 137 c 0
 885 149 901 151 911 145 c 1
 922 137 926 123 919 112 c 0
 876 44 804 0 720 0 c 0
106 245 m 0
 106 135 189 48 289 48 c 0
 390 48 473 135 473 245 c 0
 473 354 390 442 289 442 c 0
 189 442 106 354 106 245 c 0
720 444 m 0
 627 444 550 377 532 285 c 1
 905 285 l 1
 888 376 811 444 720 444 c 0
EndSplineSet
Validated: 33
EndChar

StartChar: edieresis
Encoding: 235 235 130
Width: 584
Flags: MW
HStem: 0 48<248.5 331.5 248.5 340.5> 48 188<248.5 331.5> 236 47<112 483 112 511 112 517.5> 283 159<253 344 253 483 112 344> 442 48<253 344> 570 86<204 228 369 393>
VStem: 61 48<236 236 236 312> 259 79<601 625>
LayerCount: 2
Fore
SplineSet
299 0 m 0x6f
 382 0 455 44 497 111 c 0
 504 123 500 137 489 145 c 1
 479 151 464 149 457 137 c 0
 424 82 364 48 299 48 c 0
 198 48 114 129 109 236 c 1
 511 236 l 2
 524 236 535 245 535 258 c 2
 535 261 l 1
 535 262 l 1
 525 390 425 490 299 490 c 0
 167 490 61 380 61 244 c 0
 61 110 167 0 299 0 c 0x6f
299 442 m 0
 389 442 467 375 483 283 c 1
 112 283 l 1
 130 376 207 442 299 442 c 0
173 613 m 0
 173 637 192 656 216 656 c 0
 240 656 259 637 259 613 c 0
 259 589 240 570 216 570 c 0
 192 570 173 589 173 613 c 0
338 613 m 0
 338 637 357 656 381 656 c 0
 405 656 424 637 424 613 c 0
 424 589 405 570 381 570 c 0
 357 570 338 589 338 613 c 0
EndSplineSet
Validated: 41
EndChar

StartChar: Edieresis
Encoding: 203 203 131
Width: 670
Flags: MW
HStem: 0 49<126 488 128 488 153 488 153 488 153 495> 325 49<153 446 153 452.5> 651 49<153 488> 794 86<212 236 377 401>
VStem: 104 49<17.5 325 49 325 374 651> 267 79<825 849>
LayerCount: 2
Fore
SplineSet
104 24 m 2
 104 11 114 1 126 0 c 1
 128 0 l 1
 131 0 l 1
 488 0 l 2
 502 0 512 11 512 24 c 0
 512 38 502 49 488 49 c 2
 153 49 l 1
 153 325 l 1
 446 325 l 2
 459 325 470 336 470 349 c 0
 470 363 459 374 446 374 c 2
 153 374 l 1
 153 651 l 1
 488 651 l 2
 502 651 512 662 512 676 c 0
 512 689 502 700 488 700 c 2
 130 700 l 1
 128 700 l 2
 115 700 104 689 104 676 c 2
 104 24 l 2
181 837 m 0
 181 861 200 880 224 880 c 0
 248 880 267 861 267 837 c 0
 267 813 248 794 224 794 c 0
 200 794 181 813 181 837 c 0
346 837 m 0
 346 861 365 880 389 880 c 0
 413 880 432 861 432 837 c 0
 432 813 413 794 389 794 c 0
 365 794 346 813 346 837 c 0
EndSplineSet
Validated: 9
EndChar

StartChar: odieresis
Encoding: 246 246 132
Width: 640
Flags: MW
HStem: 0 48<240 290 240 354.5> 443 47<226 290 226 340> 570 86<195 219 360 384>
VStem: 58 48<178.5 245 245 245> 250 79<601 625> 474 48<190.5 245 245 245>
LayerCount: 2
Fore
SplineSet
58 245 m 1
 58 245 l 1
 58 112 162 0 290 0 c 1
 290 0 l 1
 419 0 522 112 522 245 c 1
 522 245 l 1
 522 378 419 490 290 490 c 1
 290 490 l 1
 162 490 58 378 58 245 c 1
106 245 m 1
 106 245 l 1
 106 354 190 443 290 443 c 1
 290 443 l 1
 390 443 474 354 474 245 c 1
 474 245 l 1
 474 136 390 48 290 48 c 1
 290 48 l 1
 190 48 106 136 106 245 c 1
164 613 m 0
 164 637 183 656 207 656 c 0
 231 656 250 637 250 613 c 0
 250 589 231 570 207 570 c 0
 183 570 164 589 164 613 c 0
329 613 m 0
 329 637 348 656 372 656 c 0
 396 656 415 637 415 613 c 0
 415 589 396 570 372 570 c 0
 348 570 329 589 329 613 c 0
EndSplineSet
Validated: 5
EndChar

StartChar: udieresis
Encoding: 252 252 133
Width: 613
Flags: MW
HStem: 0 48<281 281 281 337> 570 86<189 213 354 378>
VStem: 83 48<145 467 200 467 200 467> 244 79<601 625> 433 49<158 467 200 467 200 467 200 467>
LayerCount: 2
Fore
SplineSet
83 200 m 1
 83 200 l 1
 83 90 171 0 281 0 c 1
 281 0 l 1
 393 0 482 90 482 200 c 2
 482 467 l 1
 482 467 l 1
 482 481 471 491 457 491 c 1
 457 491 l 1
 445 491 433 481 433 467 c 1
 433 467 l 1
 433 200 l 1
 433 200 l 1
 433 116 365 49 281 48 c 1
 281 48 l 1
 198 49 131 116 131 200 c 2
 131 467 l 1
 131 467 l 1
 131 481 120 491 107 491 c 1
 107 491 l 1
 94 491 83 481 83 467 c 2
 83 200 l 1
158 613 m 0
 158 637 177 656 201 656 c 0
 225 656 244 637 244 613 c 0
 244 589 225 570 201 570 c 0
 177 570 158 589 158 613 c 0
323 613 m 0
 323 637 342 656 366 656 c 0
 390 656 409 637 409 613 c 0
 409 589 390 570 366 570 c 0
 342 570 323 589 323 613 c 0
EndSplineSet
Validated: 5
EndChar

StartChar: Adieresis
Encoding: 196 196 134
Width: 663
Flags: MW
HStem: 0 21G<83 89 568.5 574.5> 1 21G<75 76.5 580 582> 794 86<235 259 400 424>
VStem: 204 86<825 849> 369 86<825 849>
LayerCount: 2
Fore
SplineSet
550 16 m 2xb8
 554 6 564 0 573 0 c 0xb8
 576 0 578 1 582 1 c 1
 594 6 600 21 595 33 c 2
 352 682 l 2
 349 691 339 697 328 697 c 0
 318 697 308 691 304 682 c 2
 61 33 l 2
 56 21 63 6 75 1 c 1x78
 78 1 82 0 84 0 c 0
 94 0 103 6 107 16 c 2
 169 181 l 1
 488 181 l 1
 550 16 l 2xb8
187 230 m 1
 329 606 l 1
 470 230 l 1
 187 230 l 1
204 837 m 0
 204 861 223 880 247 880 c 0
 271 880 290 861 290 837 c 0
 290 813 271 794 247 794 c 0
 223 794 204 813 204 837 c 0
369 837 m 0
 369 861 388 880 412 880 c 0
 436 880 455 861 455 837 c 0
 455 813 436 794 412 794 c 0
 388 794 369 813 369 837 c 0
EndSplineSet
Validated: 41
EndChar

StartChar: adieresis
Encoding: 228 228 135
Width: 574
Flags: MW
HStem: 0 48<245 332.5> 443 47<245 332.5 230.5 345.5> 570 86<202 226 367 391>
VStem: 63 48<190 300 190 312> 171 86<601 625> 336 86<601 625> 479 48<24 97 97 97 190 300 394 466>
LayerCount: 2
Fore
SplineSet
503 490 m 0
 516 490 527 480 527 466 c 2
 527 24 l 2
 527 11 516 0 503 0 c 0
 490 0 479 11 479 24 c 2
 479 97 l 1
 437 39 370 0 295 0 c 0
 166 0 63 111 63 245 c 0
 63 379 166 490 295 490 c 0
 370 490 437 452 479 394 c 1
 479 466 l 2
 479 480 490 490 503 490 c 0
295 48 m 0
 396 48 479 135 479 245 c 0
 479 355 396 443 295 443 c 0
 195 443 111 355 111 245 c 0
 111 135 195 48 295 48 c 0
171 613 m 0
 171 637 190 656 214 656 c 0
 238 656 257 637 257 613 c 0
 257 589 238 570 214 570 c 0
 190 570 171 589 171 613 c 0
336 613 m 0
 336 637 355 656 379 656 c 0
 403 656 422 637 422 613 c 0
 422 589 403 570 379 570 c 0
 355 570 336 589 336 613 c 0
EndSplineSet
Validated: 1
EndChar

StartChar: ae
Encoding: 230 230 136
Width: 954
Flags: MW
HStem: 0 48<233 320.5 671 745> 236 49<524 897 524 925 521 897> 443 47<233 320.5 218.5 333.5> 472 20G<671 775>
VStem: 51 48<190 300 190 312> 467 54<236 236 236 300>
LayerCount: 2
Fore
SplineSet
712 492 m 0xdc
 838 492 939 391 949 264 c 1
 949 263 l 1
 949 260 l 2
 949 247 938 236 925 236 c 2
 521 236 l 1
 526 129 610 48 712 48 c 0
 778 48 837 83 870 137 c 0
 877 149 893 151 903 145 c 1
 914 137 918 123 911 112 c 0
 868 44 796 0 712 0 c 0
 630 0 558 43 515 107 c 1
 515 24 l 2
 515 11 504 0 491 0 c 0
 478 0 467 11 467 24 c 2
 467 97 l 1
 425 39 358 0 283 0 c 0
 154 0 51 111 51 245 c 0
 51 379 154 490 283 490 c 0
 358 490 425 452 467 394 c 1
 467 466 l 2
 467 480 478 490 491 490 c 0xec
 504 490 515 480 515 466 c 2
 515 385 l 1
 558 449 630 492 712 492 c 0xdc
283 48 m 0
 384 48 467 135 467 245 c 0
 467 355 384 443 283 443 c 0xec
 183 443 99 355 99 245 c 0
 99 135 183 48 283 48 c 0
524 285 m 1
 897 285 l 1
 880 376 803 444 712 444 c 0
 619 444 542 377 524 285 c 1
EndSplineSet
Validated: 33
EndChar

StartChar: quotedblbase
Encoding: 8222 8222 137
Width: 410
Flags: MW
HStem: -105 194<65.5 124.5 105.5 253.5>
VStem: 82 66<35 56 3 65.5> 262 66<35 56 3 65>
LayerCount: 2
Fore
SplineSet
54 -90 m 0
 54 -85 57 -80 62 -77 c 0
 98 -57 112 -35 109 0 c 1
 94 4 82 15 82 35 c 2
 82 56 l 2
 82 75 96 89 115 89 c 0
 134 89 148 75 148 56 c 2
 148 31 l 2
 148 -25 139 -55 121 -73 c 0
 103 -91 78 -105 69 -105 c 0
 62 -105 54 -100 54 -90 c 0
234 -90 m 0
 234 -85 237 -80 242 -77 c 0
 278 -57 292 -35 289 0 c 1
 274 4 262 15 262 35 c 2
 262 56 l 2
 262 74 277 89 295 89 c 0
 313 89 328 74 328 56 c 2
 328 31 l 2
 328 -25 319 -55 301 -73 c 0
 283 -91 258 -105 249 -105 c 0
 242 -105 234 -100 234 -90 c 0
EndSplineSet
Validated: 33
EndChar

StartChar: bullet
Encoding: 8226 8226 138
Width: 470
Flags: MW
HStem: 228 248<202.5 267 202.5 269>
VStem: 111 248<351 353 317 387>
LayerCount: 2
Fore
SplineSet
235 228 m 0
 167 228 111 283 111 351 c 2
 111 353 l 2
 111 421 170 476 235 476 c 0
 299 476 359 421 359 353 c 2
 359 351 l 2
 359 283 303 228 235 228 c 0
EndSplineSet
Validated: 1
EndChar

StartChar: endash
Encoding: 8211 8211 139
Width: 528
Flags: MW
HStem: 271 52<85 436 92 436>
LayerCount: 2
Fore
SplineSet
92 271 m 2
 78 271 66 283 66 297 c 0
 66 311 78 323 92 323 c 2
 436 323 l 2
 450 323 462 311 462 297 c 0
 462 283 450 271 436 271 c 2
 92 271 l 2
EndSplineSet
Validated: 1
EndChar

StartChar: emdash
Encoding: 8212 8212 140
Width: 898
Flags: MW
HStem: 271 52<85 806 92 806>
LayerCount: 2
Fore
SplineSet
92 271 m 2
 78 271 66 283 66 297 c 0
 66 311 78 323 92 323 c 2
 806 323 l 2
 820 323 832 311 832 297 c 0
 832 283 820 271 806 271 c 2
 92 271 l 2
EndSplineSet
Validated: 1
EndChar

StartChar: Ydieresis
Encoding: 376 376 141
Width: 716
Flags: MW
HStem: 0 21G<313.5 327> 794 86<226 250 391 415>
VStem: 195 86<825 849> 360 86<825 849>
LayerCount: 2
Fore
SplineSet
296 24 m 2
 296 11 307 0 320 0 c 0
 334 0 344 11 344 24 c 2
 344 338 l 1
 578 657 l 2
 586 668 584 684 573 691 c 1
 562 700 546 698 539 687 c 2
 319 386 l 1
 100 687 l 2
 93 698 77 700 66 691 c 0
 56 684 54 668 61 657 c 2
 296 336 l 1
 296 24 l 2
195 837 m 0
 195 861 214 880 238 880 c 0
 262 880 281 861 281 837 c 0
 281 813 262 794 238 794 c 0
 214 794 195 813 195 837 c 0
360 837 m 0
 360 861 379 880 403 880 c 0
 427 880 446 861 446 837 c 0
 446 813 427 794 403 794 c 0
 379 794 360 813 360 837 c 0
EndSplineSet
Validated: 41
EndChar

StartChar: yacute
Encoding: 253 253 142
Width: 588
Flags: MW
HStem: -191 48<203 268 203 281.5> -143 144<250 268> 1 49<250 280.5> 681 20G<271 286.5>
VStem: 52 48<146 467 201 467> 402 48<39 71 39 192 39 201 201 467>
LayerCount: 2
Fore
SplineSet
52 201 m 2xbc
 52 91 141 2 250 1 c 0x5c
 311 1 365 29 402 71 c 1
 402 39 l 1
 401 -62 319 -143 217 -143 c 0
 189 -143 161 -136 137 -124 c 1
 125 -121 112 -124 106 -136 c 0
 100 -147 105 -161 116 -168 c 1
 147 -182 181 -191 217 -191 c 0
 346 -191 450 -89 450 39 c 2
 450 192 l 1
 450 201 l 1
 450 467 l 2
 450 470 449 474 447 477 c 0
 446 480 443 483 441 485 c 0
 437 487 433 489 429 490 c 1
 426 490 l 1
 423 490 l 2
 422 490 421 489 420 489 c 2
 418 489 l 1
 415 488 411 486 409 483 c 0
 408 483 408 482 407 482 c 1
 407 481 406 480 406 479 c 0
 403 476 402 471 402 467 c 2
 402 201 l 1
 401 117 334 50 250 50 c 0
 167 50 100 117 100 201 c 2
 100 467 l 2
 100 480 89 490 75 490 c 0
 63 490 52 480 52 467 c 2
 52 201 l 2xbc
196 570 m 0
 189 570 183 574 183 579 c 0
 183 583 185 587 187 590 c 2
 249 683 l 2
 257 695 265 701 277 701 c 0
 296 701 319 688 319 678 c 0
 319 672 314 666 308 660 c 2
 228 583 l 2
 216 572 209 570 196 570 c 0
EndSplineSet
Validated: 41
EndChar

StartChar: ydieresis
Encoding: 255 255 143
Width: 588
Flags: MW
HStem: -191 48<203 268 203 281.5> -143 144<250 268> 1 49<250 280.5> 570 86<156 180 321 345>
VStem: 52 48<146 467 201 467> 211 79<601 625> 402 48<39 71 39 192 39 201 201 467>
LayerCount: 2
Fore
SplineSet
52 201 m 2xbe
 52 91 141 2 250 1 c 0x5e
 311 1 365 29 402 71 c 1
 402 39 l 1
 401 -62 319 -143 217 -143 c 0
 189 -143 161 -136 137 -124 c 1
 125 -121 112 -124 106 -136 c 0
 100 -147 105 -161 116 -168 c 1
 147 -182 181 -191 217 -191 c 0
 346 -191 450 -89 450 39 c 2
 450 192 l 1
 450 201 l 1
 450 467 l 2
 450 470 449 474 447 477 c 0
 446 480 443 483 441 485 c 0
 437 487 433 489 429 490 c 1
 426 490 l 1
 423 490 l 2
 422 490 421 489 420 489 c 2
 418 489 l 1
 415 488 411 486 409 483 c 0
 408 483 408 482 407 482 c 1
 407 481 406 480 406 479 c 0
 403 476 402 471 402 467 c 2
 402 201 l 1
 401 117 334 50 250 50 c 0
 167 50 100 117 100 201 c 2
 100 467 l 2
 100 480 89 490 75 490 c 0
 63 490 52 480 52 467 c 2
 52 201 l 2xbe
125 613 m 0
 125 637 144 656 168 656 c 0
 192 656 211 637 211 613 c 0
 211 589 192 570 168 570 c 0
 144 570 125 589 125 613 c 0
290 613 m 0
 290 637 309 656 333 656 c 0
 357 656 376 637 376 613 c 0
 376 589 357 570 333 570 c 0
 309 570 290 589 290 613 c 0
EndSplineSet
Validated: 41
EndChar

StartChar: Yacute
Encoding: 221 221 144
Width: 716
Flags: MW
HStem: 0 21G<313.5 327> 903 20G<340 355.5>
VStem: 296 48<17.5 338 24 336>
LayerCount: 2
Fore
SplineSet
296 24 m 2
 296 11 307 0 320 0 c 0
 334 0 344 11 344 24 c 2
 344 338 l 1
 578 657 l 2
 586 668 584 684 573 691 c 1
 562 700 546 698 539 687 c 2
 319 386 l 1
 100 687 l 2
 93 698 77 700 66 691 c 0
 56 684 54 668 61 657 c 2
 296 336 l 1
 296 24 l 2
265 792 m 0
 258 792 252 796 252 801 c 0
 252 805 254 809 256 812 c 2
 318 905 l 2
 326 917 334 923 346 923 c 0
 365 923 388 910 388 900 c 0
 388 894 383 888 377 882 c 2
 297 805 l 2
 285 794 278 792 265 792 c 0
EndSplineSet
Validated: 41
EndChar

StartChar: Udieresis
Encoding: 220 220 145
Width: 760
Flags: MW
HStem: 0 49<375 375 375 453.5> 680 20G<110.5 117 117 117 627.5 634 634 634> 794 86<282 306 447 471>
VStem: 93 49<205 676 283 676 283 676> 337 79<825 849> 610 49<218.5 676 283 676 283 676 283 676>
LayerCount: 2
Fore
SplineSet
93 283 m 1
 93 283 l 1
 93 127 220 0 375 0 c 1
 375 0 l 1
 532 0 659 127 659 283 c 2
 659 676 l 1
 659 676 l 1
 659 689 648 700 634 700 c 1
 634 700 l 1
 621 700 610 689 610 676 c 1
 610 676 l 1
 610 283 l 1
 610 283 l 1
 610 154 505 50 375 49 c 1
 375 49 l 1
 247 50 142 154 142 283 c 2
 142 676 l 1
 142 676 l 1
 142 689 131 700 117 700 c 1
 117 700 l 1
 104 700 93 689 93 676 c 2
 93 283 l 1
251 837 m 0
 251 861 270 880 294 880 c 0
 318 880 337 861 337 837 c 0
 337 813 318 794 294 794 c 0
 270 794 251 813 251 837 c 0
416 837 m 0
 416 861 435 880 459 880 c 0
 483 880 502 861 502 837 c 0
 502 813 483 794 459 794 c 0
 435 794 416 813 416 837 c 0
EndSplineSet
Validated: 5
EndChar

StartChar: Ucircumflex
Encoding: 219 219 146
Width: 760
Flags: MW
HStem: 0 49<375 375 375 453.5> 680 20G<110.5 117 117 117 627.5 634 634 634> 900 20G<373 381 381 387>
VStem: 93 49<205 676 283 676 283 676> 610 49<218.5 676 283 676 283 676 283 676>
LayerCount: 2
Fore
SplineSet
93 283 m 1
 93 283 l 1
 93 127 220 0 375 0 c 1
 375 0 l 1
 532 0 659 127 659 283 c 2
 659 676 l 1
 659 676 l 1
 659 689 648 700 634 700 c 1
 634 700 l 1
 621 700 610 689 610 676 c 1
 610 676 l 1
 610 283 l 1
 610 283 l 1
 610 154 505 50 375 49 c 1
 375 49 l 1
 247 50 142 154 142 283 c 2
 142 676 l 1
 142 676 l 1
 142 689 131 700 117 700 c 1
 117 700 l 1
 104 700 93 689 93 676 c 2
 93 283 l 1
376 863 m 1
 313 805 l 2
 301 794 294 792 281 792 c 0
 273 792 268 797 268 802 c 0
 268 806 269 809 273 814 c 2
 345 902 l 2
 354 913 361 920 373 920 c 2
 381 920 l 2
 393 920 400 913 409 902 c 2
 481 814 l 2
 485 809 486 806 486 802 c 0
 486 797 481 792 472 792 c 0
 459 792 451 794 439 805 c 2
 376 863 l 1
EndSplineSet
Validated: 5
EndChar

StartChar: Uacute
Encoding: 218 218 147
Width: 760
Flags: MW
HStem: 0 49<375 375 375 453.5> 680 20G<110.5 117 117 117 627.5 634 634 634> 903 20G<396 411.5>
VStem: 93 49<205 676 283 676 283 676> 610 49<218.5 676 283 676 283 676 283 676>
LayerCount: 2
Fore
SplineSet
93 283 m 1
 93 283 l 1
 93 127 220 0 375 0 c 1
 375 0 l 1
 532 0 659 127 659 283 c 2
 659 676 l 1
 659 676 l 1
 659 689 648 700 634 700 c 1
 634 700 l 1
 621 700 610 689 610 676 c 1
 610 676 l 1
 610 283 l 1
 610 283 l 1
 610 154 505 50 375 49 c 1
 375 49 l 1
 247 50 142 154 142 283 c 2
 142 676 l 1
 142 676 l 1
 142 689 131 700 117 700 c 1
 117 700 l 1
 104 700 93 689 93 676 c 2
 93 283 l 1
321 792 m 0
 314 792 308 796 308 801 c 0
 308 805 310 809 312 812 c 2
 374 905 l 2
 382 917 390 923 402 923 c 0
 421 923 444 910 444 900 c 0
 444 894 439 888 433 882 c 2
 353 805 l 2
 341 794 334 792 321 792 c 0
EndSplineSet
Validated: 5
EndChar

StartChar: Odieresis
Encoding: 214 214 148
Width: 850
Flags: MW
HStem: 0 49<331.5 411 331.5 504.5> 660 50<316.5 411 316.5 488> 794 86<315 339 480 504>
VStem: 73 49<355 355 355 355> 370 79<825 849> 696 50<355 355 355 355>
LayerCount: 2
Fore
SplineSet
73 355 m 1
 73 355 l 1
 74 159 222 0 411 0 c 1
 411 0 l 1
 598 0 745 159 746 355 c 1
 746 355 l 1
 745 551 598 710 411 710 c 1
 411 710 l 1
 222 710 74 551 73 355 c 1
122 355 m 1
 122 355 l 1
 122 528 252 660 411 660 c 1
 411 660 l 1
 565 660 695 528 696 355 c 1
 696 355 l 1
 695 184 565 49 411 49 c 1
 411 49 l 1
 252 49 122 184 122 355 c 1
284 837 m 0
 284 861 303 880 327 880 c 0
 351 880 370 861 370 837 c 0
 370 813 351 794 327 794 c 0
 303 794 284 813 284 837 c 0
449 837 m 0
 449 861 468 880 492 880 c 0
 516 880 535 861 535 837 c 0
 535 813 516 794 492 794 c 0
 468 794 449 813 449 837 c 0
EndSplineSet
Validated: 5
EndChar

StartChar: Otilde
Encoding: 213 213 149
Width: 850
Flags: MW
HStem: 0 49<331.5 411 331.5 504.5> 660 50<316.5 411 316.5 488> 795 52<456 484 456 491> 836 52<334 362> 879 20G<531.5 541>
VStem: 73 49<355 355 355 355> 696 50<355 355 355 355>
LayerCount: 2
Fore
SplineSet
73 355 m 1xd6
 73 355 l 1
 74 159 222 0 411 0 c 1
 411 0 l 1
 598 0 745 159 746 355 c 1
 746 355 l 1
 745 551 598 710 411 710 c 1
 411 710 l 1
 222 710 74 551 73 355 c 1xd6
122 355 m 1
 122 355 l 1
 122 528 252 660 411 660 c 1
 411 660 l 1
 565 660 695 528 696 355 c 1
 696 355 l 1
 695 184 565 49 411 49 c 1
 411 49 l 1
 252 49 122 184 122 355 c 1
300 798 m 0
 297 792 292 784 282 784 c 0
 272 784 264 791 264 801 c 0
 264 804 265 810 266 813 c 0
 285 871 309 888 345 888 c 0xd6
 383 888 439 847 473 847 c 0
 495 847 506 858 518 885 c 0
 521 891 527 899 536 899 c 0
 546 899 554 892 554 882 c 0
 554 879 553 873 552 870 c 0
 533 812 509 795 473 795 c 0xee
 435 795 379 836 345 836 c 0
 323 836 312 825 300 798 c 0
EndSplineSet
Validated: 5
EndChar

StartChar: Ocircumflex
Encoding: 212 212 150
Width: 850
Flags: MW
HStem: 0 49<331.5 411 331.5 504.5> 660 50<316.5 411 316.5 488> 660 132<310 411 310 488> 900 20G<406 414 414 420>
VStem: 73 49<355 355 355 355> 696 50<355 355 355 355>
LayerCount: 2
Fore
SplineSet
73 355 m 1xdc
 73 355 l 1
 74 159 222 0 411 0 c 1
 411 0 l 1
 598 0 745 159 746 355 c 1
 746 355 l 1
 745 551 598 710 411 710 c 1
 411 710 l 1
 222 710 74 551 73 355 c 1xdc
122 355 m 1
 122 355 l 1
 122 528 252 660 411 660 c 1
 411 660 l 1
 565 660 695 528 696 355 c 1
 696 355 l 1
 695 184 565 49 411 49 c 1
 411 49 l 1
 252 49 122 184 122 355 c 1
409 863 m 1
 346 805 l 2
 334 794 327 792 314 792 c 0
 306 792 301 797 301 802 c 0
 301 806 302 809 306 814 c 2
 378 902 l 2
 387 913 394 920 406 920 c 2
 414 920 l 2
 426 920 433 913 442 902 c 2
 514 814 l 2
 518 809 519 806 519 802 c 0
 519 797 514 792 505 792 c 0xbc
 492 792 484 794 472 805 c 2
 409 863 l 1
EndSplineSet
Validated: 5
EndChar

StartChar: Oacute
Encoding: 211 211 151
Width: 850
Flags: MW
HStem: 0 49<331.5 411 331.5 504.5> 660 50<316.5 411 316.5 488> 710 213<316.5 443.5 411 443.5>
VStem: 73 49<355 355 355 355> 696 50<355 355 355 355>
LayerCount: 2
Fore
SplineSet
73 355 m 1xd8
 73 355 l 1
 74 159 222 0 411 0 c 1
 411 0 l 1
 598 0 745 159 746 355 c 1
 746 355 l 1
 745 551 598 710 411 710 c 1
 411 710 l 1
 222 710 74 551 73 355 c 1xd8
122 355 m 1
 122 355 l 1
 122 528 252 660 411 660 c 1
 411 660 l 1
 565 660 695 528 696 355 c 1
 696 355 l 1
 695 184 565 49 411 49 c 1
 411 49 l 1
 252 49 122 184 122 355 c 1
353 792 m 0
 346 792 340 796 340 801 c 0
 340 805 342 809 344 812 c 2
 406 905 l 2
 414 917 422 923 434 923 c 0xb8
 453 923 476 910 476 900 c 0
 476 894 471 888 465 882 c 2
 385 805 l 2
 373 794 366 792 353 792 c 0
EndSplineSet
Validated: 5
EndChar

StartChar: Idieresis
Encoding: 207 207 152
Width: 274
Flags: MW
HStem: 0 21G<117 117 117 124> 680 20G<110.5 117 117 117> 794 86<23 47 188 212>
VStem: -8 86<825 849> 157 86<825 849>
LayerCount: 2
Fore
SplineSet
93 24 m 1
 93 24 l 1
 93 11 104 0 117 0 c 1
 117 0 l 1
 131 0 142 11 142 24 c 2
 142 676 l 1
 142 676 l 1
 142 689 131 700 117 700 c 1
 117 700 l 1
 104 700 93 689 93 676 c 2
 93 24 l 1
-8 837 m 0
 -8 861 11 880 35 880 c 0
 59 880 78 861 78 837 c 0
 78 813 59 794 35 794 c 0
 11 794 -8 813 -8 837 c 0
157 837 m 0
 157 861 176 880 200 880 c 0
 224 880 243 861 243 837 c 0
 243 813 224 794 200 794 c 0
 176 794 157 813 157 837 c 0
EndSplineSet
Validated: 5
EndChar

StartChar: exclamdown
Encoding: 161 161 153
Width: 252
Flags: MW
HStem: 0 21G<110.5 117 117 117> 680 20G<117 117 117 124>
VStem: 93 49<24 526 652 676>
LayerCount: 2
Fore
SplineSet
93 526 m 1
 93 526 l 1
 93 540 104 551 117 551 c 1
 117 551 l 1
 131 551 142 540 142 526 c 2
 142 24 l 1
 142 24 l 1
 142 11 131 0 117 0 c 1
 117 0 l 1
 104 0 93 11 93 24 c 2
 93 526 l 1
93 676 m 1
 93 676 l 1
 93 689 104 700 117 700 c 1
 117 700 l 1
 131 700 142 689 142 676 c 2
 142 652 l 1
 142 652 l 1
 142 639 131 628 117 628 c 1
 117 628 l 1
 104 628 93 639 93 652 c 2
 93 676 l 1
EndSplineSet
Validated: 5
EndChar

StartChar: degree
Encoding: 176 176 155
Width: 450
Flags: MW
HStem: 412 44<196 254 196 264.5> 662 44<196 254>
VStem: 74 50<558 560 531.5 599> 326 50<558 560 519 586.5>
LayerCount: 2
Fore
SplineSet
225 412 m 0
 146 412 74 480 74 558 c 2
 74 560 l 2
 74 638 146 706 225 706 c 0
 304 706 376 638 376 560 c 2
 376 558 l 2
 376 480 304 412 225 412 c 0
225 456 m 0
 283 456 326 505 326 558 c 2
 326 560 l 2
 326 613 283 662 225 662 c 0
 167 662 124 613 124 560 c 2
 124 558 l 2
 124 505 167 456 225 456 c 0
EndSplineSet
Validated: 1
EndChar

StartChar: registered
Encoding: 174 174 156
Width: 416
Flags: MW
HStem: 360 21G<159 256.5> 532 94<160 212 160 214 212 214 214 215> 642 68<149 257 151 257 152 257 159.5 214>
VStem: 34 20<534 535 491.5 582.5> 34 110<534 535 535 582.5> 160 98<462 479.5 462 517 462 517 462 626> 276 106<487.5 596.5> 362 20<535 536 487.5 578.5>
LayerCount: 2
Fore
SplineSet
208 360 m 0xf6
 110 360 34 439 34 534 c 2
 34 535 l 2
 34 630 111 710 208 710 c 0
 306 710 382 631 382 536 c 2
 382 535 l 2
 382 440 305 360 208 360 c 0xf6
208 379 m 0
 295 379 362 450 362 535 c 2
 362 536 l 2xed
 362 621 296 691 208 691 c 0
 121 691 54 620 54 535 c 2
 54 534 l 2
 54 449 120 379 208 379 c 0
264 435 m 0
 267 428 274 425 278 425 c 2
 279 425 l 2
 280 425 282 426 283 426 c 0
 286 427 288 431 287 436 c 0
 286 439 283 441 279 441 c 1
 279 441 277 442 276 446 c 0
 274 451 273 459 273 471 c 0
 273 496 258 513 243 521 c 0
 242 521 241 521 240 522 c 1
 261 532 276 554 276 579 c 0xf6
 276 614 248 642 214 642 c 2
 153 642 l 1
 152 642 l 1
 151 642 l 2
 147 642 144 638 144 634 c 2
 144 430 l 2
 144 425 147 422 152 422 c 0
 156 422 160 425 160 430 c 2
 160 517 l 1
 213 517 l 1
 214 516 l 1
 218 515 230 512 240 505 c 0
 250 498 258 488 258 471 c 0
 258 453 260 442 264 435 c 0
261 579 m 0
 261 554 240 532 215 532 c 2
 212 532 l 1
 160 532 l 1
 160 626 l 1
 214 626 l 2
 240 626 261 605 261 579 c 0
EndSplineSet
Validated: 9
EndChar

StartChar: copyright
Encoding: 169 169 157
Width: 830
Flags: MW
HStem: -12 28<319.5 509 319.5 515.5> 166 40<381.5 442.5 381.5 449> 505 40<379.5 440> 684 28<321 510.5>
VStem: 53 30<348 350 256.5 448.5> 237 44<354 355 355 356 356 357 314.5 407> 747 30<350 352 251.5 443.5>
LayerCount: 2
Fore
SplineSet
414 -12 m 0
 211 -12 53 151 53 348 c 2
 53 350 l 2
 53 547 213 712 416 712 c 0
 619 712 777 549 777 352 c 2
 777 350 l 2
 777 153 617 -12 414 -12 c 0
414 16 m 0
 604 16 747 167 747 350 c 2
 747 352 l 2
 747 535 605 684 416 684 c 0
 226 684 83 533 83 350 c 2
 83 348 l 2
 83 165 225 16 414 16 c 0
419 166 m 0
 316 166 237 251 237 354 c 2
 237 356 l 2
 237 458 317 545 420 545 c 0
 479 545 517 523 549 495 c 0
 554 491 558 484 558 477 c 0
 558 465 548 456 536 456 c 0
 530 456 525 459 520 463 c 0
 493 486 461 505 419 505 c 0
 340 505 281 438 281 357 c 2
 281 355 l 2
 281 274 343 206 420 206 c 0
 465 206 495 222 526 250 c 0
 529 252 534 255 540 255 c 0
 551 255 560 246 560 235 c 0
 560 229 557 223 553 220 c 0
 516 188 479 166 419 166 c 0
EndSplineSet
Validated: 1
EndChar

StartChar: divide
Encoding: 247 247 158
Width: 620
Flags: MW
HStem: 111 97<299 321> 111 217<299 321> 376 217<81.5 321 299 321 299 532> 496 97<299 321>
LayerCount: 2
Fore
SplineSet
88 328 m 2x60
 532 328 l 2
 545 328 556 339 556 352 c 0
 556 365 545 376 532 376 c 2
 88 376 l 2
 75 376 64 365 64 352 c 0
 64 339 75 328 88 328 c 2x60
310 593 m 0
 332 593 350 575 350 553 c 2
 350 536 l 2
 350 514 332 496 310 496 c 0x90
 288 496 270 514 270 536 c 2
 270 553 l 2
 270 575 288 593 310 593 c 0
310 208 m 0
 332 208 350 190 350 168 c 2
 350 151 l 2
 350 129 332 111 310 111 c 0
 288 111 270 129 270 151 c 2
 270 168 l 2
 270 190 288 208 310 208 c 0
EndSplineSet
Validated: 9
EndChar

StartChar: germandbls
Encoding: 223 223 159
Width: 620
Flags: MW
HStem: -4 21G<110 124> -2 44<306 306> 691 46<261.5 354>
VStem: 93 49<20 500> 459 53<558 560 560 562 511 598> 504 53<187 189 189 191 127.5 234.5>
LayerCount: 2
Fore
SplineSet
285 20 m 0x74
 285 32 295 41 306 42 c 0
 420 48 504 92 504 187 c 2
 504 189 l 2x74
 504 280 417 325 310 339 c 0
 295 341 285 349 285 363 c 0
 285 376 294 384 305 388 c 0
 391 418 459 470 459 558 c 2
 459 560 l 2
 459 636 398 691 310 691 c 0
 213 691 142 617 142 500 c 2
 142 20 l 2
 142 6 131 -4 117 -4 c 0
 103 -4 93 6 93 20 c 2
 93 500 l 2
 93 639 178 737 313 737 c 0
 433 737 512 660 512 562 c 2
 512 560 l 2xb8
 512 462 433 398 355 370 c 1
 460 352 557 298 557 191 c 2
 557 189 l 2
 557 66 450 3 306 -2 c 0
 295 -2 285 8 285 20 c 0x74
EndSplineSet
Validated: 1
EndChar

StartChar: AE
Encoding: 198 198 160
Width: 1045
Flags: MW
HStem: -5 21G<52.5 63.5> 0 48<513 962 546 962 546 962> 196 47<222 494 222 494 194 494> 329 48<546 912 546 912> 652 48<546 957 546 546>
VStem: 494 52<48 196 196 196 243 329 377 652>
LayerCount: 2
Fore
SplineSet
35 19 m 0xbc
 35 23 37 28 40 33 c 2
 434 684 l 2
 440 694 447 700 460 700 c 2
 957 700 l 2
 970 700 981 689 981 676 c 0
 981 663 970 652 957 652 c 2
 546 652 l 1
 546 377 l 1
 912 377 l 2
 925 377 936 366 936 353 c 0
 936 340 925 329 912 329 c 2
 546 329 l 1
 546 48 l 1
 962 48 l 2
 975 48 986 37 986 24 c 0
 986 11 975 0 962 0 c 2
 520 0 l 2x7c
 506 0 494 12 494 26 c 2
 494 196 l 1
 194 196 l 1
 81 8 l 2
 76 0 68 -5 59 -5 c 0
 46 -5 35 6 35 19 c 0xbc
222 243 m 1
 494 243 l 1
 494 653 l 1
 468 653 l 1
 222 243 l 1
EndSplineSet
Validated: 1
EndChar

StartChar: sterling
Encoding: 163 163 161
Width: 644
Flags: MW
HStem: 0 47<207 561 207 561> 305 48<83.5 156 90 156 207 485> 663 47<346 409.5>
VStem: 66 141<9.5 305 47 335.5> 156 51<47 305 47 305 47 305 353 471 471 472>
LayerCount: 2
Fore
SplineSet
66 13 m 0xf0
 66 20 70 25 78 27 c 2
 156 45 l 1
 156 305 l 1xe8
 90 305 l 2
 77 305 66 316 66 329 c 0xf0
 66 342 77 353 90 353 c 2
 156 353 l 1
 156 471 l 2xe8
 156 546 179 610 221 652 c 0
 258 689 310 710 371 710 c 0
 469 710 527 669 571 617 c 0
 575 612 578 605 578 598 c 0
 578 584 567 574 553 574 c 0
 544 574 538 578 533 583 c 0
 493 629 449 663 370 663 c 0
 322 663 285 648 257 620 c 0
 224 587 207 536 207 472 c 2
 207 353 l 1
 485 353 l 2
 498 353 509 342 509 329 c 0
 509 316 498 305 485 305 c 2
 207 305 l 1
 207 47 l 1
 561 47 l 2
 574 47 585 36 585 23 c 0
 585 10 574 0 561 0 c 2
 79 0 l 2
 72 0 66 6 66 13 c 0xf0
EndSplineSet
Validated: 1
EndChar

StartChar: cent
Encoding: 162 162 162
Width: 581
Flags: MW
HStem: -10 21G<235 249.5> 88 46<319 357 319 366> 576 46<263 337 322 330> 690 20G<350 382>
VStem: 62 53<353 355 355 357 308 426.5>
LayerCount: 2
Fore
SplineSet
219 21 m 2
 236 103 l 1
 133 139 62 239 62 353 c 2
 62 355 l 2
 62 498 176 622 322 622 c 2
 337 622 l 1
 350 690 l 2
 352 700 361 710 374 710 c 0
 390 710 402 697 398 679 c 2
 385 615 l 1
 440 602 480 572 514 540 c 0
 520 534 523 528 523 520 c 0
 523 506 513 495 499 495 c 0
 490 495 485 498 480 503 c 0
 450 532 416 558 373 569 c 1
 289 137 l 1
 301 135 313 134 325 134 c 0
 389 134 441 163 485 207 c 0
 490 212 496 216 504 216 c 0
 516 216 526 205 526 193 c 0
 526 186 523 181 519 177 c 0
 470 125 410 88 322 88 c 0
 309 88 296 88 283 90 c 1
 267 10 l 2
 265 0 256 -10 243 -10 c 0
 227 -10 215 3 219 21 c 2
115 355 m 2
 115 261 170 181 248 149 c 1
 330 576 l 1
 321 576 l 2
 205 576 115 479 115 357 c 2
 115 355 l 2
EndSplineSet
Validated: 33
EndChar

StartChar: scaron
Encoding: 353 353 163
Width: 497
Flags: MW
HStem: 0 48<212 243 212 267> 445 45<216 241 216 265> 490 230<154.5 241 154.5 241>
VStem: 373 48<127 138 138 138>
LayerCount: 2
Fore
SplineSet
255 649 m 1xb0
 318 707 l 2
 330 718 337 720 350 720 c 0
 358 720 363 715 363 710 c 0
 363 706 362 703 358 698 c 2
 286 610 l 2
 277 599 270 592 258 592 c 2
 250 592 l 2
 238 592 231 599 222 610 c 2
 150 698 l 2
 146 703 145 706 145 710 c 0
 145 715 150 720 159 720 c 0
 172 720 180 718 192 707 c 2
 255 649 l 1xb0
62 70 m 1
 62 70 l 1
 102 38 164 1 243 0 c 1
 243 0 l 1
 291 0 331 14 365 39 c 1
 365 39 l 1
 398 64 421 97 421 138 c 1
 421 138 l 1
 421 179 398 217 366 238 c 1
 366 238 l 1
 332 257 294 271 247 278 c 1
 245 278 l 1
 245 278 l 1
 200 285 167 297 145 312 c 1
 145 312 l 1
 126 327 117 341 117 361 c 1
 117 361 l 1
 117 381 128 401 148 417 c 1
 148 417 l 1
 169 434 201 445 241 445 c 1
 241 445 l 1xd0
 289 445 325 420 361 396 c 1
 361 396 l 1
 372 389 387 392 394 403 c 1
 394 403 l 1
 401 414 398 429 387 437 c 1
 387 437 l 1
 349 461 304 490 241 490 c 1
 241 490 l 1
 191 490 150 477 121 457 c 1
 121 457 l 1
 90 434 68 400 68 361 c 1
 68 361 l 1
 68 323 90 291 121 273 c 1
 121 273 l 1
 149 253 188 243 232 235 c 1
 234 234 l 1
 234 234 l 1
 282 226 317 214 338 198 c 1
 338 198 l 1
 363 177 372 161 373 138 c 1
 373 138 l 1
 373 116 360 94 336 78 c 1
 336 78 l 1
 314 60 281 48 243 48 c 1
 243 48 l 1
 181 48 127 80 93 105 c 1
 93 105 l 1
 82 114 67 112 59 102 c 1
 59 102 l 1
 51 92 52 79 62 70 c 1
EndSplineSet
Validated: 37
EndChar

StartChar: guilsinglright
Encoding: 8250 8250 164
Width: 311
Flags: MW
HStem: 43 21G<84 94> 447 20G<84 94.5>
LayerCount: 2
Fore
SplineSet
90 467 m 0
 99 467 104 463 109 456 c 2
 246 277 l 2
 253 268 256 262 256 255 c 0
 256 248 253 242 246 233 c 2
 109 54 l 2
 104 47 98 43 90 43 c 0
 78 43 68 52 68 64 c 0
 68 70 70 76 74 81 c 2
 200 254 l 1
 74 429 l 2
 70 435 67 439 68 446 c 0
 69 458 78 467 90 467 c 0
EndSplineSet
Validated: 1
EndChar

StartChar: aring
Encoding: 229 229 165
Width: 574
Flags: MW
HStem: 0 48<233 320.5> 443 47<233 320.5 218.5 333.5> 560 41<270.5 297.5 270.5 307.5> 697 39<270.5 297.5>
VStem: 51 48<190 300 190 312> 194 43<647 648 635.5 672> 332 43<647 648 624 660.5> 467 48<24 97 97 97 190 300 394 466>
LayerCount: 2
Fore
SplineSet
491 490 m 0
 504 490 515 480 515 466 c 2
 515 24 l 2
 515 11 504 0 491 0 c 0
 478 0 467 11 467 24 c 2
 467 97 l 1
 425 39 358 0 283 0 c 0
 154 0 51 111 51 245 c 0
 51 379 154 490 283 490 c 0
 358 490 425 452 467 394 c 1
 467 466 l 2
 467 480 478 490 491 490 c 0
283 48 m 0
 384 48 467 135 467 245 c 0
 467 355 384 443 283 443 c 0
 183 443 99 355 99 245 c 0
 99 135 183 48 283 48 c 0
283 560 m 0
 237 560 194 601 194 647 c 2
 194 648 l 2
 194 696 237 736 283 736 c 0
 332 736 375 696 375 648 c 2
 375 647 l 2
 375 601 332 560 283 560 c 0
283 601 m 0
 312 601 332 624 332 647 c 2
 332 648 l 2
 332 673 312 697 283 697 c 0
 258 697 237 673 237 648 c 2
 237 647 l 2
 237 624 258 601 283 601 c 0
EndSplineSet
Validated: 1
EndChar

StartChar: Eth
Encoding: 208 208 166
Width: 812
Flags: MW
HStem: 0 49<207 313 207 313 180 313> 330 38<68.5 158 74 158 207 287> 651 49<207 313 207 207>
VStem: 158 49<49 49 49 330 368 651> 614 49<266 432.5>
LayerCount: 2
Fore
SplineSet
158 330 m 1
 74 330 l 2
 63 330 55 338 55 350 c 0
 55 361 63 368 74 368 c 2
 158 368 l 1
 158 676 l 2
 158 689 169 700 182 700 c 2
 313 700 l 2
 506 700 663 542 663 349 c 0
 663 156 506 0 313 0 c 2
 180 0 l 1
 168 1 158 11 158 24 c 2
 158 330 l 1
207 49 m 1
 313 49 l 2
 479 49 614 183 614 349 c 0
 614 516 479 650 313 651 c 1
 207 651 l 1
 207 368 l 1
 287 368 l 2
 297 368 306 361 306 350 c 0
 306 338 297 330 287 330 c 2
 207 330 l 1
 207 49 l 1
EndSplineSet
Validated: 1
EndChar

StartChar: eth
Encoding: 240 240 167
Width: 628
Flags: MW
HStem: -12 46<255 374 255 387.5> 442 44<244.5 338.5 235 363.5> 716 20G<444.5 452>
VStem: 58 53<187.5 297.5 187.5 316.5> 515 53<187.5 296.5 179 297.5>
LayerCount: 2
Fore
SplineSet
475 423 m 1
 328 631 l 1
 206 569 l 2
 202 567 197 566 194 566 c 0
 182 566 172 577 172 589 c 0
 172 599 178 605 186 609 c 2
 303 666 l 1
 285 692 l 2
 282 696 279 703 279 710 c 0
 279 723 290 734 304 734 c 0
 315 734 322 728 327 721 c 2
 348 689 l 1
 434 733 l 2
 438 735 443 736 446 736 c 0
 458 736 468 725 468 713 c 0
 468 703 462 697 454 693 c 2
 373 653 l 1
 481 492 l 2
 534 414 568 345 568 248 c 0
 568 110 466 -12 309 -12 c 0
 165 -12 58 106 58 244 c 0
 58 389 172 486 298 486 c 0
 379 486 431 457 475 423 c 1
515 243 m 0
 515 352 423 442 304 442 c 0
 185 442 111 354 111 241 c 0
 111 134 196 34 314 34 c 0
 434 34 515 132 515 243 c 0
EndSplineSet
Validated: 1
EndChar

StartChar: oslash
Encoding: 248 248 168
Width: 640
Flags: MW
HStem: -12 46<294.5 381.5 294.5 395> 476 46<258.5 345.5> 501 20G<551 559.5>
VStem: 58 53<253 255 255 257 228 326.5> 529 53<253 255 255 257 183.5 282>
LayerCount: 2
Fore
SplineSet
319 -12 m 0xb8
 254 -12 196 11 152 48 c 1
 104 -1 l 2
 99 -6 92 -9 86 -9 c 0
 75 -9 66 -1 66 10 c 0
 66 15 68 21 72 25 c 2
 122 77 l 1
 82 125 58 186 58 253 c 2
 58 255 l 2
 58 398 169 522 321 522 c 0xd8
 386 522 444 499 488 461 c 1
 536 513 l 2
 541 518 548 521 554 521 c 0
 565 521 574 513 574 502 c 0
 574 497 572 491 568 487 c 2
 517 433 l 1
 558 386 582 324 582 257 c 2
 582 255 l 2
 582 112 471 -12 319 -12 c 0xb8
321 34 m 0
 442 34 529 133 529 253 c 2
 529 255 l 2
 529 309 511 358 481 396 c 1
 184 86 l 1
 221 53 268 34 321 34 c 0
111 255 m 2
 111 201 128 152 158 114 c 1
 456 423 l 1
 419 456 372 476 319 476 c 0
 198 476 111 377 111 257 c 2
 111 255 l 2
EndSplineSet
Validated: 1
EndChar

StartChar: Oslash
Encoding: 216 216 169
Width: 850
Flags: MW
HStem: -12 47<387.5 512.5 387.5 530> 665 47<337.5 462.5>
VStem: 73 54<348 350 350 352 309.5 445.5> 723 54<348 350 350 352 254.5 390>
LayerCount: 2
Fore
SplineSet
424 -12 m 0
 332 -12 255 19 196 70 c 1
 129 -1 l 2
 124 -6 118 -9 111 -9 c 0
 99 -9 90 0 90 12 c 0
 90 18 92 24 96 28 c 2
 164 101 l 1
 106 167 73 255 73 348 c 2
 73 350 l 2
 73 541 214 712 426 712 c 0
 517 712 595 680 654 629 c 1
 721 701 l 2
 726 706 732 709 739 709 c 0
 751 709 760 700 760 688 c 0
 760 682 758 676 754 672 c 2
 685 598 l 1
 744 533 777 445 777 352 c 2
 777 350 l 2
 777 159 636 -12 424 -12 c 0
127 350 m 2
 127 269 154 196 201 140 c 1
 620 590 l 1
 569 636 501 665 424 665 c 0
 251 665 127 525 127 352 c 2
 127 350 l 2
426 35 m 0
 599 35 723 175 723 348 c 2
 723 350 l 2
 723 430 695 503 649 559 c 1
 229 110 l 1
 281 63 349 35 426 35 c 0
EndSplineSet
Validated: 1
EndChar

StartChar: multiply
Encoding: 215 215 170
Width: 620
Flags: MW
HStem: 142 21G<117.5 127.5 491 502> 542 20G<118 129 492.5 502.5>
LayerCount: 2
Fore
SplineSet
512 520 m 2
 343 353 l 1
 511 187 l 2
 516 182 520 175 520 167 c 0
 520 153 509 142 495 142 c 0
 487 142 480 146 475 151 c 2
 309 319 l 1
 142 150 l 2
 137 145 131 142 124 142 c 0
 111 142 100 153 100 166 c 0
 100 173 103 179 108 184 c 2
 277 351 l 1
 109 517 l 2
 104 522 100 529 100 537 c 0
 100 551 111 562 125 562 c 0
 133 562 140 558 145 553 c 2
 311 385 l 1
 478 554 l 2
 483 559 489 562 496 562 c 0
 509 562 520 551 520 538 c 0
 520 531 517 525 512 520 c 2
EndSplineSet
Validated: 1
EndChar

StartChar: Scaron
Encoding: 352 352 171
Width: 640
Flags: MW
HStem: -1 45<333 333 333 368> 666 44<298 331 298 369.5> 710 190<228.5 331 228.5 331>
VStem: 89 44<502 528 528 528> 547 45<174.5 194 194 194>
LayerCount: 2
Fore
SplineSet
329 829 m 1xb8
 392 887 l 2
 404 898 411 900 424 900 c 0
 432 900 437 895 437 890 c 0
 437 886 436 883 432 878 c 2
 360 790 l 2
 351 779 344 772 332 772 c 2
 324 772 l 2
 312 772 305 779 296 790 c 2
 224 878 l 2
 220 883 219 886 219 890 c 0
 219 895 224 900 233 900 c 0
 246 900 254 898 266 887 c 2
 329 829 l 1xb8
75 100 m 1
 75 100 l 1
 133 54 226 0 333 -1 c 1
 333 -1 l 1
 403 -1 466 20 513 54 c 1
 513 54 l 1
 560 88 592 138 592 194 c 1
 592 194 l 1
 592 250 561 296 515 326 c 1
 515 326 l 1
 469 357 407 377 337 390 c 1
 335 390 l 1
 335 390 l 1
 272 402 220 419 185 443 c 1
 185 443 l 1
 150 467 134 493 133 528 c 1
 133 528 l 1
 133 564 153 598 188 624 c 1
 188 624 l 1
 223 649 274 666 331 666 c 1
 331 666 l 1xd8
 408 666 468 628 523 592 c 1
 523 592 l 1
 533 585 547 588 553 598 c 1
 553 598 l 1
 560 609 557 622 547 629 c 1
 547 629 l 1
 492 665 423 710 331 710 c 1
 331 710 l 1
 265 710 206 691 162 659 c 1
 162 659 l 1
 118 627 89 581 89 528 c 1
 89 528 l 1
 89 476 118 434 161 406 c 1
 161 406 l 1
 204 377 261 359 326 347 c 1
 328 347 l 1
 328 347 l 1
 396 334 452 315 490 290 c 1
 490 290 l 1
 528 264 547 234 547 194 c 1
 547 194 l 1
 547 155 526 118 487 90 c 1
 487 90 l 1
 449 62 394 44 333 44 c 1
 333 44 l 1
 242 43 155 92 103 134 c 1
 103 134 l 1
 94 142 80 141 72 131 c 1
 72 131 l 1
 65 122 66 108 75 100 c 1
EndSplineSet
Validated: 37
EndChar

StartChar: dagger
Encoding: 8224 8224 172
Width: 410
Flags: MW
HStem: 234 21G<199 211> 521 37 521 183
VStem: 185 39
LayerCount: 2
Fore
SplineSet
183 257 m 2xd0
 188 524 l 1
 82 518 l 2
 70 517 59 527 59 539 c 0
 59 551 70 562 82 561 c 2
 187 555 l 1
 181 678 l 2
 180 693 190 704 205 704 c 0xb0
 220 704 230 693 229 678 c 2
 223 555 l 1
 328 561 l 2
 340 562 351 551 351 539 c 0
 351 527 340 517 328 518 c 2
 222 524 l 1
 227 257 l 2
 227 243 217 234 205 234 c 0
 193 234 183 243 183 257 c 2xd0
EndSplineSet
Validated: 33
EndChar

StartChar: daggerdbl
Encoding: 8225 8225 173
Width: 430
Flags: MW
HStem: -4 183 142 37 521 37 521 183
VStem: 69 165 194 40 194 167
LayerCount: 2
Fore
SplineSet
191 22 m 2x64
 197 145 l 1
 92 139 l 2
 80 138 69 149 69 161 c 0
 69 173 80 183 92 182 c 2
 198 176 l 1
 193 350 l 1
 198 524 l 1
 92 518 l 2
 80 517 69 527 69 539 c 0x68
 69 551 80 562 92 561 c 2
 197 555 l 1
 191 678 l 2
 190 693 200 704 215 704 c 0x54
 230 704 240 693 239 678 c 2
 233 555 l 1
 338 561 l 2
 350 562 361 551 361 539 c 0
 361 527 350 517 338 518 c 2
 232 524 l 1
 237 350 l 1
 232 176 l 1
 338 182 l 2
 350 183 361 173 361 161 c 0x62
 361 149 350 138 338 139 c 2
 233 145 l 1
 239 22 l 2
 240 7 230 -4 215 -4 c 0xa4
 200 -4 190 7 191 22 c 2x64
EndSplineSet
Validated: 33
EndChar

StartChar: guilsinglleft
Encoding: 8249 8249 174
Width: 311
Flags: MW
HStem: 43 21G<217 227> 447 20G<217 227>
LayerCount: 2
Fore
SplineSet
221 43 m 0
 213 43 207 47 202 54 c 2
 65 233 l 2
 58 242 55 248 55 255 c 0
 55 262 58 268 65 277 c 2
 202 456 l 2
 207 463 213 467 221 467 c 0
 233 467 243 458 243 446 c 0
 243 440 241 434 237 429 c 2
 111 256 l 1
 237 81 l 2
 241 76 243 70 243 64 c 0
 243 52 233 43 221 43 c 0
EndSplineSet
Validated: 1
EndChar

StartChar: guillemotright
Encoding: 187 187 175
Width: 515
Flags: MW
HStem: 43 21G<84 94 288 298> 447 20G<84 94.5 288 298>
LayerCount: 2
Fore
SplineSet
294 467 m 0
 302 467 308 463 313 456 c 2
 450 277 l 2
 457 268 460 262 460 255 c 0
 460 248 457 242 450 233 c 2
 313 54 l 2
 308 47 302 43 294 43 c 0
 282 43 272 52 272 64 c 0
 272 70 274 76 278 81 c 2
 404 254 l 1
 278 429 l 2
 274 434 272 440 272 446 c 0
 272 458 282 467 294 467 c 0
90 467 m 0
 99 467 104 463 109 456 c 2
 246 277 l 2
 253 268 256 262 256 255 c 0
 256 248 253 242 246 233 c 2
 109 54 l 2
 104 47 98 43 90 43 c 0
 78 43 68 52 68 64 c 0
 68 70 70 76 74 81 c 2
 200 254 l 1
 74 429 l 2
 70 435 67 439 68 446 c 0
 69 458 78 467 90 467 c 0
EndSplineSet
Validated: 1
EndChar

StartChar: ordmasculine
Encoding: 186 186 176
Width: 390
Flags: MW
HStem: 293 40<61.5 323 67 323> 411 39<167 225.5 167 236> 666 39<164.5 223>
VStem: 51 43<556 558 558 560 528 597.5> 296 43<556 558 558 560 518.5 588>
LayerCount: 2
Fore
SplineSet
194 411 m 0
 111 411 51 478 51 556 c 2
 51 558 l 2
 51 637 112 705 196 705 c 0
 279 705 339 638 339 560 c 2
 339 558 l 2
 339 479 278 411 194 411 c 0
67 293 m 2
 56 293 47 302 47 313 c 0
 47 324 56 333 67 333 c 2
 323 333 l 2
 334 333 343 324 343 313 c 0
 343 302 334 293 323 293 c 2
 67 293 l 2
196 450 m 0
 255 450 296 498 296 556 c 2
 296 558 l 2
 296 618 252 666 194 666 c 0
 135 666 94 618 94 560 c 2
 94 558 l 2
 94 498 138 450 196 450 c 0
EndSplineSet
Validated: 1
EndChar

StartChar: cedilla
Encoding: 184 184 177
Width: 500
Flags: MW
HStem: -142 21G<196 211.5> -10 20G<252 295 295 295>
LayerCount: 2
Fore
SplineSet
295 10 m 1
 230 -122 l 2
 224 -134 219 -142 204 -142 c 0
 188 -142 170 -129 170 -118 c 0
 170 -114 171 -110 175 -103 c 2
 252 10 l 1
 295 10 l 1
EndSplineSet
Validated: 1
EndChar

StartChar: periodcentered
Encoding: 183 183 178
Width: 230
Flags: MW
HStem: 251 93<105.5 124.5>
VStem: 82 66<284 311 274.5 320.5>
LayerCount: 2
Fore
SplineSet
82 311 m 2
 82 330 96 344 115 344 c 0
 134 344 148 330 148 311 c 2
 148 284 l 2
 148 265 134 251 115 251 c 0
 96 251 82 265 82 284 c 2
 82 311 l 2
EndSplineSet
Validated: 1
EndChar

StartChar: paragraph
Encoding: 182 182 179
Width: 480
Flags: MW
HStem: -4 21G<352.5 367.5> 680 20G<312 359 359 366.5>
VStem: 333 53<22 277 277 277>
LayerCount: 2
Fore
SplineSet
333 22 m 2
 333 277 l 1
 327 277 l 2
 173 277 53 353 53 488 c 2
 53 490 l 2
 53 621 161 700 312 700 c 2
 359 700 l 2
 374 700 386 688 386 673 c 2
 386 22 l 2
 386 7 375 -4 360 -4 c 0
 345 -4 333 7 333 22 c 2
EndSplineSet
Validated: 1
EndChar

StartChar: guillemotleft
Encoding: 171 171 180
Width: 515
Flags: MW
HStem: 43 21G<217 227 420.5 431> 447 20G<217 227 421 431>
LayerCount: 2
Fore
SplineSet
425 43 m 0
 416 43 411 47 406 54 c 2
 269 233 l 2
 262 242 259 248 259 255 c 0
 259 262 262 268 269 277 c 2
 406 456 l 2
 411 463 417 467 425 467 c 0
 437 467 447 458 447 446 c 0
 447 440 445 434 441 429 c 2
 315 256 l 1
 441 81 l 2
 445 75 447 71 447 64 c 0
 446 52 437 43 425 43 c 0
221 43 m 0
 213 43 207 47 202 54 c 2
 65 233 l 2
 58 242 55 248 55 255 c 0
 55 262 58 268 65 277 c 2
 202 456 l 2
 207 463 213 467 221 467 c 0
 233 467 243 458 243 446 c 0
 243 440 241 434 237 429 c 2
 111 256 l 1
 237 81 l 2
 241 76 243 70 243 64 c 0
 243 52 233 43 221 43 c 0
EndSplineSet
Validated: 1
EndChar

StartChar: ordfeminine
Encoding: 170 170 181
Width: 390
Flags: MW
HStem: 293 40<100.5 326 106 326> 380 31<173.5 229> 661 30<173.5 229 164 237.5>
VStem: 58 31<500.5 570.5 500.5 578.5> 322 31<395 442 442 442 500.5 570.5 630 676>
LayerCount: 2
Fore
SplineSet
106 293 m 2
 95 293 86 302 86 313 c 0
 86 324 95 333 106 333 c 2
 326 333 l 2
 337 333 346 324 346 313 c 0
 346 302 337 293 326 293 c 2
 106 293 l 2
337 691 m 0
 345 691 353 684 353 676 c 2
 353 395 l 2
 353 387 345 380 337 380 c 0
 329 380 322 387 322 395 c 2
 322 442 l 1
 295 405 253 380 205 380 c 0
 123 380 58 451 58 536 c 0
 58 621 123 691 205 691 c 0
 253 691 295 667 322 630 c 1
 322 676 l 2
 322 684 329 691 337 691 c 0
205 411 m 0
 270 411 322 465 322 536 c 0
 322 605 270 661 205 661 c 0
 142 661 89 605 89 536 c 0
 89 465 142 411 205 411 c 0
EndSplineSet
Validated: 1
EndChar

StartChar: yen
Encoding: 165 165 182
Width: 686
Flags: MW
HStem: 0 222<141 326> 167 55<133 295 141 295 141 343 343 497> 322 55<133 265 141 265 141 295 371 497>
VStem: 113 230<17.5 202> 295 48<24 167 222 322> 295 230<24 202 167 202 187 322 187 322>
LayerCount: 2
Fore
SplineSet
295 24 m 2xb0
 295 167 l 1x68
 141 167 l 2
 125 167 113 179 113 195 c 0x70
 113 209 125 222 141 222 c 2
 295 222 l 1
 295 322 l 1xa8
 141 322 l 2
 125 322 113 334 113 349 c 0xb0
 113 365 125 377 141 377 c 2
 265 377 l 1
 60 657 l 2
 53 668 55 684 65 691 c 0
 76 700 92 698 99 687 c 2
 318 386 l 1
 538 687 l 2
 545 698 561 700 572 691 c 1
 583 684 585 668 577 657 c 2
 371 377 l 1
 497 377 l 2
 513 377 525 365 525 349 c 0xa4
 525 334 513 322 497 322 c 2
 343 322 l 1
 343 222 l 1xb0
 497 222 l 2
 513 222 525 209 525 195 c 0xa4
 525 179 513 167 497 167 c 2
 343 167 l 1x70
 343 24 l 2
 343 11 333 0 319 0 c 0
 306 0 295 11 295 24 c 2xb0
EndSplineSet
Validated: 33
EndChar

StartChar: thorn
Encoding: 254 254 183
Width: 660
Flags: MW
HStem: -164 21G<111 125> -12 47<301 402.5 294 413.5> 475 47<301.5 400.5> 714 20G<110 124>
VStem: 93 49<-139 110 396 709> 547 53<253 255 255 257 172 322>
LayerCount: 2
Fore
SplineSet
93 -139 m 2
 93 709 l 2
 93 724 103 734 117 734 c 0
 131 734 142 724 142 709 c 2
 142 396 l 1
 186 463 251 522 352 522 c 0
 475 522 600 423 600 257 c 2
 600 255 l 2
 600 89 475 -12 352 -12 c 0
 250 -12 184 46 142 110 c 1
 142 -139 l 2
 142 -154 132 -164 118 -164 c 0
 104 -164 93 -154 93 -139 c 2
347 35 m 0
 458 35 547 116 547 253 c 2
 547 255 l 2
 547 389 454 475 347 475 c 0
 241 475 139 386 139 256 c 2
 139 254 l 2
 139 123 241 35 347 35 c 0
EndSplineSet
Validated: 1
EndChar

StartChar: Thorn
Encoding: 222 222 184
Width: 673
Flags: MW
HStem: -4 185<123 348> 133 48<156 345 156 348> 525 48<156 354 156 358> 525 179<123 354 123 156>
VStem: 104 52<22 133 181 525 573 678> 566 52<354 356 356 357 357 359 283.5 411.5>
LayerCount: 2
Fore
SplineSet
104 22 m 2xac
 104 678 l 2
 104 692 116 704 130 704 c 0x9c
 144 704 156 692 156 678 c 2
 156 573 l 1
 358 573 l 2
 512 573 618 494 618 359 c 2
 618 357 l 2
 618 210 491 133 345 133 c 2
 156 133 l 1x6c
 156 22 l 2
 156 8 144 -4 130 -4 c 0
 116 -4 104 8 104 22 c 2xac
156 181 m 1
 348 181 l 2
 478 181 566 250 566 354 c 2
 566 356 l 2
 566 467 480 525 354 525 c 2
 156 525 l 1
 156 181 l 1
EndSplineSet
Validated: 1
EndChar

StartChar: Agrave
Encoding: 192 192 185
Width: 649
Flags: MW
HStem: 0 21G<82 88 567.5 573.5> 1 21G<74 75.5 579 581> 903 20G<291.5 307>
LayerCount: 2
Fore
SplineSet
549 16 m 2xa0
 553 6 563 0 572 0 c 0xa0
 575 0 577 1 581 1 c 1
 593 6 599 21 594 33 c 2
 351 682 l 2
 348 691 338 697 327 697 c 0
 317 697 307 691 303 682 c 2
 60 33 l 2
 55 21 62 6 74 1 c 1x60
 77 1 81 0 83 0 c 0
 93 0 102 6 106 16 c 2
 168 181 l 1
 487 181 l 1
 549 16 l 2xa0
186 230 m 1
 328 606 l 1
 469 230 l 1
 186 230 l 1
382 792 m 0
 369 792 362 794 350 805 c 2
 270 882 l 2
 264 888 259 894 259 900 c 0
 259 910 282 923 301 923 c 0
 313 923 321 917 329 905 c 2
 391 812 l 2
 393 809 395 805 395 801 c 0
 395 796 389 792 382 792 c 0
EndSplineSet
Validated: 41
EndChar

StartChar: Aacute
Encoding: 193 193 186
Width: 646
Flags: MW
HStem: 0 21G<82 88 567.5 573.5> 1 21G<74 75.5 579 581> 903 20G<348 363.5>
LayerCount: 2
Fore
SplineSet
549 16 m 2xa0
 553 6 563 0 572 0 c 0xa0
 575 0 577 1 581 1 c 1
 593 6 599 21 594 33 c 2
 351 682 l 2
 348 691 338 697 327 697 c 0
 317 697 307 691 303 682 c 2
 60 33 l 2
 55 21 62 6 74 1 c 1x60
 77 1 81 0 83 0 c 0
 93 0 102 6 106 16 c 2
 168 181 l 1
 487 181 l 1
 549 16 l 2xa0
186 230 m 1
 328 606 l 1
 469 230 l 1
 186 230 l 1
273 792 m 0
 266 792 260 796 260 801 c 0
 260 805 262 809 264 812 c 2
 326 905 l 2
 334 917 342 923 354 923 c 0
 373 923 396 910 396 900 c 0
 396 894 391 888 385 882 c 2
 305 805 l 2
 293 794 286 792 273 792 c 0
EndSplineSet
Validated: 41
EndChar

StartChar: Egrave
Encoding: 200 200 187
Width: 593
Flags: MW
HStem: 0 49<126 488 128 488 153 488 153 488 153 495> 325 49<153 446 153 452.5> 651 49<153 488> 700 223<121.5 289 128 289 273.5 289 273.5 488>
VStem: 104 49<17.5 325 49 325 374 651>
LayerCount: 2
Fore
SplineSet
104 24 m 2xe8
 104 11 114 1 126 0 c 1
 128 0 l 1
 131 0 l 1
 488 0 l 2
 502 0 512 11 512 24 c 0
 512 38 502 49 488 49 c 2
 153 49 l 1
 153 325 l 1
 446 325 l 2
 459 325 470 336 470 349 c 0
 470 363 459 374 446 374 c 2
 153 374 l 1
 153 651 l 1
 488 651 l 2
 502 651 512 662 512 676 c 0
 512 689 502 700 488 700 c 2
 130 700 l 1
 128 700 l 2
 115 700 104 689 104 676 c 2
 104 24 l 2xe8
364 792 m 0
 351 792 344 794 332 805 c 2
 252 882 l 2
 246 888 241 894 241 900 c 0
 241 910 264 923 283 923 c 0xd8
 295 923 303 917 311 905 c 2
 373 812 l 2
 375 809 377 805 377 801 c 0
 377 796 371 792 364 792 c 0
EndSplineSet
Validated: 9
EndChar

StartChar: Eacute
Encoding: 201 201 188
Width: 593
Flags: MW
HStem: 0 49<126 488 128 488 153 488 153 488 153 495> 325 49<153 446 153 452.5> 651 49<153 488> 700 223<121.5 341.5 128 341.5 326 341.5 326 488>
VStem: 104 49<17.5 325 49 325 374 651>
LayerCount: 2
Fore
SplineSet
104 24 m 2xe8
 104 11 114 1 126 0 c 1
 128 0 l 1
 131 0 l 1
 488 0 l 2
 502 0 512 11 512 24 c 0
 512 38 502 49 488 49 c 2
 153 49 l 1
 153 325 l 1
 446 325 l 2
 459 325 470 336 470 349 c 0
 470 363 459 374 446 374 c 2
 153 374 l 1
 153 651 l 1
 488 651 l 2
 502 651 512 662 512 676 c 0
 512 689 502 700 488 700 c 2
 130 700 l 1
 128 700 l 2
 115 700 104 689 104 676 c 2
 104 24 l 2xe8
251 792 m 0
 244 792 238 796 238 801 c 0
 238 805 240 809 242 812 c 2
 304 905 l 2
 312 917 320 923 332 923 c 0xd8
 351 923 374 910 374 900 c 0
 374 894 369 888 363 882 c 2
 283 805 l 2
 271 794 264 792 251 792 c 0
EndSplineSet
Validated: 9
EndChar

StartChar: Ecircumflex
Encoding: 202 202 189
Width: 593
Flags: MW
HStem: 0 49<126 488 128 488 153 488 153 488 153 495> 325 49<153 446 153 452.5> 651 49<153 488> 651 141<206 216.5 394.5 405.5> 900 20G<302 310 310 316>
VStem: 104 49<17.5 325 49 325 374 651>
LayerCount: 2
Fore
SplineSet
104 24 m 2xec
 104 11 114 1 126 0 c 1
 128 0 l 1
 131 0 l 1
 488 0 l 2
 502 0 512 11 512 24 c 0
 512 38 502 49 488 49 c 2
 153 49 l 1
 153 325 l 1
 446 325 l 2
 459 325 470 336 470 349 c 0
 470 363 459 374 446 374 c 2
 153 374 l 1
 153 651 l 1
 488 651 l 2
 502 651 512 662 512 676 c 0
 512 689 502 700 488 700 c 2
 130 700 l 1
 128 700 l 2
 115 700 104 689 104 676 c 2
 104 24 l 2xec
305 863 m 1
 242 805 l 2
 230 794 223 792 210 792 c 0
 202 792 197 797 197 802 c 0
 197 806 198 809 202 814 c 2
 274 902 l 2
 283 913 290 920 302 920 c 2
 310 920 l 2
 322 920 329 913 338 902 c 2
 410 814 l 2
 414 809 415 806 415 802 c 0
 415 797 410 792 401 792 c 0xdc
 388 792 380 794 368 805 c 2
 305 863 l 1
EndSplineSet
Validated: 9
EndChar

StartChar: egrave
Encoding: 232 232 190
Width: 609
Flags: MW
HStem: 0 48<245.5 328.5 245.5 337.5> 48 188<245.5 328.5> 236 47<109 480 109 508 109 514.5> 283 159<250 341 250 480 109 341> 442 48<250 341> 490 211<259.5 275 259.5 359>
VStem: 58 48<236 236 236 312>
LayerCount: 2
Fore
SplineSet
296 0 m 0x6a
 379 0 452 44 494 111 c 0
 501 123 497 137 486 145 c 1
 476 151 461 149 454 137 c 0
 421 82 361 48 296 48 c 0
 195 48 111 129 106 236 c 1
 508 236 l 2
 521 236 532 245 532 258 c 2
 532 261 l 1
 532 262 l 1
 522 390 422 490 296 490 c 0
 164 490 58 380 58 244 c 0
 58 110 164 0 296 0 c 0x6a
296 442 m 0
 386 442 464 375 480 283 c 1
 109 283 l 1
 127 376 204 442 296 442 c 0
350 570 m 0
 337 570 330 572 318 583 c 2
 238 660 l 2
 232 666 227 672 227 678 c 0
 227 688 250 701 269 701 c 0
 281 701 289 695 297 683 c 2
 359 590 l 2
 361 587 363 583 363 579 c 0
 363 574 357 570 350 570 c 0
EndSplineSet
Validated: 41
EndChar

StartChar: eacute
Encoding: 233 233 191
Width: 609
Flags: MW
HStem: 0 48<245.5 328.5 245.5 337.5> 48 188<245.5 328.5> 236 47<109 480 109 508 109 514.5> 283 159<250 341 250 480 109 341> 442 48<250 341> 490 211<315 330.5 315 359>
VStem: 58 48<236 236 236 312>
LayerCount: 2
Fore
SplineSet
296 0 m 0x6a
 379 0 452 44 494 111 c 0
 501 123 497 137 486 145 c 1
 476 151 461 149 454 137 c 0
 421 82 361 48 296 48 c 0
 195 48 111 129 106 236 c 1
 508 236 l 2
 521 236 532 245 532 258 c 2
 532 261 l 1
 532 262 l 1
 522 390 422 490 296 490 c 0
 164 490 58 380 58 244 c 0
 58 110 164 0 296 0 c 0x6a
296 442 m 0
 386 442 464 375 480 283 c 1
 109 283 l 1
 127 376 204 442 296 442 c 0
240 570 m 0
 233 570 227 574 227 579 c 0
 227 583 229 587 231 590 c 2
 293 683 l 2
 301 695 309 701 321 701 c 0
 340 701 363 688 363 678 c 0
 363 672 358 666 352 660 c 2
 272 583 l 2
 260 572 253 570 240 570 c 0
EndSplineSet
Validated: 41
EndChar

StartChar: ecircumflex
Encoding: 234 234 192
Width: 609
Flags: MW
HStem: 0 48<245.5 328.5 245.5 337.5> 236 47<109 480 109 508 109 514.5> 442 48<250 341> 442 128<196 341> 678 20G<292 300 300 306>
VStem: 58 48<236 236 236 312>
LayerCount: 2
Fore
SplineSet
296 0 m 0xec
 379 0 452 44 494 111 c 0
 501 123 497 137 486 145 c 1
 476 151 461 149 454 137 c 0
 421 82 361 48 296 48 c 0
 195 48 111 129 106 236 c 1
 508 236 l 2
 521 236 532 245 532 258 c 2
 532 261 l 1
 532 262 l 1
 522 390 422 490 296 490 c 0
 164 490 58 380 58 244 c 0
 58 110 164 0 296 0 c 0xec
296 442 m 0
 386 442 464 375 480 283 c 1
 109 283 l 1
 127 376 204 442 296 442 c 0
295 641 m 1
 232 583 l 2
 220 572 213 570 200 570 c 0
 192 570 187 575 187 580 c 0
 187 584 188 587 192 592 c 2
 264 680 l 2
 273 691 280 698 292 698 c 2
 300 698 l 2
 312 698 319 691 328 680 c 2
 400 592 l 2
 404 587 405 584 405 580 c 0
 405 575 400 570 391 570 c 0xdc
 378 570 370 572 358 583 c 2
 295 641 l 1
EndSplineSet
Validated: 41
EndChar

StartChar: igrave
Encoding: 236 236 193
Width: 281
Flags: MW
HStem: 0 21G<118 118 118 125> 681 20G<82.5 98>
VStem: 94 49<17.5 466 24 466 24 466>
LayerCount: 2
Fore
SplineSet
94 24 m 1
 94 24 l 1
 94 11 105 0 118 0 c 1
 118 0 l 1
 132 0 143 11 143 24 c 2
 143 466 l 1
 143 466 l 1
 143 480 132 490 118 490 c 1
 118 490 l 1
 105 490 94 480 94 466 c 2
 94 24 l 1
173 570 m 0
 160 570 153 572 141 583 c 2
 61 660 l 2
 55 666 50 672 50 678 c 0
 50 688 73 701 92 701 c 0
 104 701 112 695 120 683 c 2
 182 590 l 2
 184 587 186 583 186 579 c 0
 186 574 180 570 173 570 c 0
EndSplineSet
Validated: 5
EndChar

StartChar: iacute
Encoding: 237 237 194
Width: 281
Flags: MW
HStem: 0 21G<118 118 118 125> 681 20G<138 153.5>
VStem: 94 49<17.5 466 24 466 24 466>
LayerCount: 2
Fore
SplineSet
94 24 m 1
 94 24 l 1
 94 11 105 0 118 0 c 1
 118 0 l 1
 132 0 143 11 143 24 c 2
 143 466 l 1
 143 466 l 1
 143 480 132 490 118 490 c 1
 118 490 l 1
 105 490 94 480 94 466 c 2
 94 24 l 1
63 570 m 0
 56 570 50 574 50 579 c 0
 50 583 52 587 54 590 c 2
 116 683 l 2
 124 695 132 701 144 701 c 0
 163 701 186 688 186 678 c 0
 186 672 181 666 175 660 c 2
 95 583 l 2
 83 572 76 570 63 570 c 0
EndSplineSet
Validated: 5
EndChar

StartChar: icircumflex
Encoding: 238 238 195
Width: 281
Flags: MW
HStem: 0 21G<118 118 118 125> 678 20G<114 122 122 128>
VStem: 94 49<17.5 466 24 466 24 466>
LayerCount: 2
Fore
SplineSet
94 24 m 1
 94 24 l 1
 94 11 105 0 118 0 c 1
 118 0 l 1
 132 0 143 11 143 24 c 2
 143 466 l 1
 143 466 l 1
 143 480 132 490 118 490 c 1
 118 490 l 1
 105 490 94 480 94 466 c 2
 94 24 l 1
117 641 m 1
 54 583 l 2
 42 572 35 570 22 570 c 0
 14 570 9 575 9 580 c 0
 9 584 10 587 14 592 c 2
 86 680 l 2
 95 691 102 698 114 698 c 2
 122 698 l 2
 134 698 141 691 150 680 c 2
 222 592 l 2
 226 587 227 584 227 580 c 0
 227 575 222 570 213 570 c 0
 200 570 192 572 180 583 c 2
 117 641 l 1
EndSplineSet
Validated: 5
EndChar

StartChar: idieresis
Encoding: 239 239 196
Width: 281
Flags: MW
HStem: 0 21G<118 118 118 125> 570 86<25 49 190 214>
VStem: -6 86<601 625> 159 86<601 625>
LayerCount: 2
Fore
SplineSet
94 24 m 1
 94 24 l 1
 94 11 105 0 118 0 c 1
 118 0 l 1
 132 0 143 11 143 24 c 2
 143 466 l 1
 143 466 l 1
 143 480 132 490 118 490 c 1
 118 490 l 1
 105 490 94 480 94 466 c 2
 94 24 l 1
-6 613 m 0
 -6 637 13 656 37 656 c 0
 61 656 80 637 80 613 c 0
 80 589 61 570 37 570 c 0
 13 570 -6 589 -6 613 c 0
159 613 m 0
 159 637 178 656 202 656 c 0
 226 656 245 637 245 613 c 0
 245 589 226 570 202 570 c 0
 178 570 159 589 159 613 c 0
EndSplineSet
Validated: 5
EndChar

StartChar: Ccedilla
Encoding: 199 199 197
Width: 771
Flags: MW
HStem: -142 191<349 437> 0 49<336.5 437 437 437> 661 49<349.5 437 437 437>
VStem: 73 49<269.5 452.5 269.5 353>
LayerCount: 2
Fore
SplineSet
73 353 m 1x70
 73 552 236 709 437 710 c 1
 437 710 l 1
 523 710 602 680 663 633 c 1
 663 633 l 1
 674 624 676 607 667 598 c 1
 667 598 l 1
 659 586 643 585 633 593 c 1
 633 593 l 1
 579 635 511 661 437 661 c 1
 437 661 l 1
 262 661 122 524 122 353 c 1
 122 353 l 1
 122 186 262 49 437 49 c 1
 437 49 l 1
 511 49 579 73 631 117 c 1
 631 117 l 1
 643 125 659 123 666 111 c 1
 666 111 l 1
 676 102 674 84 663 76 c 1
 663 76 l 1
 602 29 523 0 437 0 c 1
 437 0 l 1
 236 0 73 158 73 353 c 1
 73 353 l 1x70
448 10 m 1
 383 -122 l 2
 377 -134 372 -142 357 -142 c 0xb0
 341 -142 323 -129 323 -118 c 0
 323 -114 324 -110 328 -103 c 2
 405 10 l 1
 448 10 l 1
EndSplineSet
Validated: 37
EndChar

StartChar: ccedilla
Encoding: 231 231 198
Width: 571
Flags: MW
HStem: -142 190<249 310> 0 48<240 310 310 310 310 310 310 310> 443 47<253 310 310 310>
VStem: 58 48<191 246 191 314>
LayerCount: 2
Fore
SplineSet
310 0 m 1x70
 170 0 58 108 58 246 c 1
 58 246 l 1
 58 382 170 490 310 490 c 1
 310 490 l 1
 368 490 423 470 466 436 c 1
 466 436 l 1
 476 429 478 414 469 403 c 1
 469 403 l 1
 461 394 447 391 436 399 c 1
 436 399 l 1
 401 427 357 443 310 443 c 1
 310 443 l 1
 196 443 106 354 106 246 c 1
 106 246 l 1
 106 136 196 48 310 48 c 1
 310 48 l 1
 357 48 401 64 436 91 c 1
 436 91 l 1
 436 91 l 1
 447 99 461 96 469 87 c 1
 469 87 l 1
 478 76 476 61 464 52 c 1
 464 52 l 1
 423 20 368 0 310 0 c 1
 310 0 l 1
 310 0 l 1
 310 0 l 1x70
348 10 m 1
 283 -122 l 2
 277 -134 272 -142 257 -142 c 0xb0
 241 -142 223 -129 223 -118 c 0
 223 -114 224 -110 228 -103 c 2
 305 10 l 1
 348 10 l 1
EndSplineSet
Validated: 37
EndChar

StartChar: Aring
Encoding: 197 197 199
Width: 646
Flags: MW
HStem: 0 21G<70 76 555.5 561.5> 1 21G<62 63.5 567 569> 181 49<174 457 174 475 156 457> 757 39<304.5 331.5>
VStem: 228 181<707 708 691 732> 366 43<707 708 691 720.5>
LayerCount: 2
Fore
SplineSet
582 33 m 2x78
 587 21 581 6 569 1 c 1x74
 565 1 563 0 560 0 c 0
 551 0 541 6 537 16 c 2
 475 181 l 1
 156 181 l 1
 94 16 l 2
 90 6 81 0 71 0 c 0xb8
 69 0 65 1 62 1 c 1
 50 6 43 21 48 33 c 2
 273 633 l 1
 247 648 228 677 228 707 c 2
 228 708 l 2
 228 756 271 796 317 796 c 0
 366 796 409 756 409 708 c 2
 409 707 l 2
 409 675 388 645 358 630 c 1
 582 33 l 2x78
271 707 m 2
 271 694 277 681 287 673 c 0
 295 666 306 661 317 661 c 0
 327 661 336 664 344 669 c 0
 358 677 366 692 366 707 c 2
 366 708 l 2
 366 733 346 757 317 757 c 0
 292 757 271 733 271 708 c 2
 271 707 l 2
174 230 m 1
 457 230 l 1
 316 606 l 1
 174 230 l 1
EndSplineSet
Validated: 33
EndChar

StartChar: OE
Encoding: 338 338 200
Width: 1443
Flags: MW
HStem: 0 49<331.5 475.5 756 1091> 325 49<756 1049 756 1049> 660 40 690 20G<316.5 475.5>
VStem: 73 49<355 355> 696 60
LayerCount: 2
Fore
SplineSet
707 24 m 2xec
 707 189 l 1
 651 76 540 0 411 0 c 0
 222 0 74 159 73 355 c 1
 74 551 222 710 411 710 c 0xdc
 540 710 651 633 707 521 c 1
 707 676 l 2
 707 689 718 700 731 700 c 2
 1091 700 l 2
 1105 700 1115 689 1115 676 c 0
 1115 662 1105 651 1091 651 c 2
 756 651 l 1
 756 374 l 1
 1049 374 l 2
 1062 374 1073 363 1073 349 c 0
 1073 336 1062 325 1049 325 c 2
 756 325 l 1
 756 49 l 1
 1091 49 l 2
 1105 49 1115 38 1115 24 c 0
 1115 11 1105 0 1091 0 c 2
 729 0 l 1
 717 1 707 11 707 24 c 2xec
122 355 m 0
 122 184 252 49 411 49 c 0
 565 49 695 184 696 355 c 1
 695 528 565 660 411 660 c 0xec
 252 660 122 528 122 355 c 0
EndSplineSet
Validated: 1
EndChar

StartChar: Delta
Encoding: 916 916 201
Width: 582
Flags: W
HStem: -28 43.9971<113.668 414.004>
LayerCount: 2
Fore
SplineSet
260.331 15.334 m 6
 264.081 15.4727 292.602 16.0186 296.663 15.9971 c 14
 414.004 15.334 l 5
 264 371 l 5
 113.668 15 l 5
 216.666 14.6689 l 22
 219.322 14.6953 257.758 15.2871 260.331 15.334 c 6
263 -28 m 6
 223 -28 143.667 -29.3333 91 -29.208 c 4
 79.0561 -29.1796 71.1889 -28.4954 70 -28 c 4
 59 -23 53 -9 58 3 c 6
 242 441 l 6
 244 446 247 449 250 452 c 4
 252 453 253 454 255 454 c 5
 256 455 256 455 257 455 c 4
 260 456 262 456 265 456 c 4
 270 456 277 454 281 449 c 4
 284 445 286 441 287 437 c 6
 470 3 l 6
 475 -9 470 -23 458 -28 c 4
 454.401 -29.4996 317.976 -27.6139 263 -28 c 6
EndSplineSet
Validated: 33
EndChar

StartChar: plusminus
Encoding: 177 177 202
Width: 620
Flags: WO
HStem: 105.542 44.916<64.3998 558.653> 328.22 44.22<64.0109 291.05 337.95 563.989>
VStem: 291.05 46.9<185.065 328.22 372.44 514.936>
LayerCount: 2
Fore
SplineSet
101.728 105.542 m 1
 80.0576 105.542 64.2969 114.998 64.2969 129.182 c 1
 64.2969 142.184 80.0576 150.458 101.728 150.458 c 1
 521.337 150.458 l 2
 541.037 150.458 558.768 142.184 558.768 129.182 c 1
 558.768 114.998 541.037 105.542 521.337 105.542 c 1
 101.728 105.542 l 1
291.05 207.44 m 6
 291.05 328.22 l 5
 98 328.22 l 2
 79 328.22 64 337.46 64 350 c 0
 64 362.54 79 372.44 98 372.44 c 2
 291.05 372.44 l 5
 291.05 493.22 l 6
 291.05 505.1 300.85 515 314.15 515 c 4
 327.45 515 337.95 505.1 337.95 493.22 c 6
 337.95 372.44 l 5
 531 372.44 l 2
 549 372.44 564 362.54 564 350 c 0
 564 337.46 549 328.22 531 328.22 c 2
 337.95 328.22 l 5
 337.95 207.44 l 6
 337.95 194.9 327.45 185 314.15 185 c 4
 300.85 185 291.05 194.9 291.05 207.44 c 6
EndSplineSet
Validated: 524293
EndChar
